<svg height="20" viewBox="0 0 20 20" width="20" xmlns="http://www.w3.org/2000/svg"><g fill-rule="evenodd"><path d="m1.180618 10.511989v.710034c0 2.265059 1.620464 4.357815 4.250988 5.490324 2.68365 1.155209 6.362027 1.155209 9.045714 0 2.630651-1.132509 4.251047-3.225265 4.251047-5.490324v-.710034l-.406067-.922922c-1.280624 5.291499-15.454991 5.292371-16.735617 0z" opacity=".252874"/><path d="m1.38358 9.250683 3.387257-4.516952 10.517555.405611 3.236957 4.111341-1.857937 4.162227-9.949805 1.243617-4.947964-3.325622z" fill="#3d261c"/><path d="m9.254655 10.381408c.252902 0 .491159.096005.699874.265142.208694-.169137.446825-.265142.699891-.265142.821669 0 1.487829 1.010695 1.487829 2.257592 0 1.246855-.66616 2.257732-1.487829 2.257732-.253066 0-.491197-.095986-.699891-.265159-.208715.169173-.446972.265159-.699874.265159-.82171 0-1.48785-1.010877-1.48785-2.257732 0-1.246897.66614-2.257592 1.48785-2.257592z" fill="#19130f"/><g fill="#fffffe"><path d="m7.063948 4.733731h2.740551v3.014784c0 .243942-.199609.443697-.443857.443697h-1.61817c-.37337 0-.678524-.305304-.678524-.678694z"/><path d="m12.845092 4.733731h-2.740665v3.014784c0 .243942.199736.443697.443842.443697h1.618171c.373347 0 .678652-.305304.678652-.678694z"/><path d="m13.142731 5.252692h1.918085v2.11002c0 .170732-.139704.310539-.310651.310539h-1.132542c-.261319 0-.474892-.21368-.474892-.475012z"/><path d="m17.188898 5.252692h-1.918164v2.11002c0 .170732.139792.310539.31064.310539h1.132543c.261303 0 .474981-.21368.474981-.475012z"/><path d="m2.766338 5.250444h1.92165v2.11394c0 .171049-.139964.311115-.311228.311115h-1.134647c-.261804 0-.475775-.214076-.475775-.475893z"/><path d="m6.820024 5.250444h-1.921729v2.11394c0 .171049.140053.311115.311219.311115h1.134646c.261787 0 .475864-.214076.475864-.475893z"/></g><path d="m1.180618 10.026999 1.27591-1.310627c1.941689-1.994233 4.819411-2.765324 7.498001-2.009023 2.678588-.756301 5.55633.01479 7.498016 2.009023l1.275822 1.310627c0-3.822012-3.366792-9.039288-7.862845-6.656001l-.910993.4828-.910976-.4828c-4.496056-2.383287-7.862935 2.833989-7.862935 6.656001z" fill="#cf2e08"/><path d="m8.377123 11.233132c.570281 0 1.107136.095986 1.577406.265122.470101-.169136 1.007124-.265122 1.577406-.265122 1.851525 0 3.352507 1.010841 3.352507 2.257736 0 1.246711-1.500982 2.257555-3.352507 2.257555-.570282 0-1.107305-.095992-1.577406-.265123-.47027.169131-1.007125.265123-1.577406.265123-1.851511 0-3.352638-1.010844-3.352638-2.257555 0-1.246895 1.501127-2.257736 3.352638-2.257736z" fill="#e16061"/><path d="m1.180618 9.711988v.710036c0 2.265058 1.620464 4.357815 4.250988 5.490324 2.68365 1.155206 6.362027 1.155206 9.045714 0 2.630651-1.132509 4.251047-3.225266 4.251047-5.490324v-.710036l-.406067-.922921c-1.280624 5.291497-15.454991 5.292371-16.735617 0z" fill="#cf2e08"/><path d="m4.279677 12.721106c.53624.462347 1.16058.832744 1.778656 1.09878 2.283853.983229 5.508535.983229 7.792391 0 .618073-.266036 1.242703-.636583 1.779106-1.09907-1.859101.719888-3.982347.985014-5.675155.985014-1.692813.000146-3.815873-.26483-5.674998-.984724z" fill="#da5739"/></g></svg>