<svg height="250" viewBox="0 0 300 250" width="300" xmlns="http://www.w3.org/2000/svg" xmlns:xlink="http://www.w3.org/1999/xlink"><clipPath id="a"><path clip-rule="evenodd" d="m0 228h300v-228h-300z"/></clipPath><g fill-rule="evenodd"><g clip-path="url(#a)"><path d="m149.101761 261c56.455475 0 102.500519-46.045044 102.500519-102.500122 0-56.454895-46.045044-102.499878-102.500519-102.499878-56.455094 0-102.500088 46.044983-102.500088 102.499878 0 56.455078 46.044994 102.500122 102.500088 102.500122z" fill="#e5dbff"/><g fill="#fff"><path d="m175.036667 111.220947h52.32106l-7.145493-1.082046-1.169296-2.750305c-.863571-2.030411-2.68869-3.492203-4.859695-3.891297-2.169464-.399246-4.395981.3172-5.925339 1.907593l-1.298981-2.353546c-2.030578-3.681565-6.233322-5.598129-10.344619-4.718857-4.111664.879623-7.16269 4.347946-7.50972 8.538239h-1.082093c-2.003768 0-3.857208 1.062332-4.869644 2.792007z"/><path d="m101.250992 90.966995h80.892868l-11.047089-1.673599-1.808655-4.251526c-1.335357-3.139831-4.15718-5.399582-7.512802-6.016952-3.35524-.616608-6.796554.490905-9.161926 2.94963l-2.007614-3.638717c-3.140213-5.691742-9.637528-8.655335-15.994629-7.295685-6.357101 1.359451-11.073311 6.721908-11.610321 13.200516h-1.673012c-3.098091 0-5.963562 1.643142-7.528869 4.316558z"/><path d="m57.304981 166.092789h65.269993l-8.913399-1.351059-1.459121-3.430588c-1.077469-2.532791-3.354294-4.355972-6.062111-4.854355-2.70707-.498199-5.483956.396576-7.392479 2.380097l-1.619652-2.936036c-2.534279-4.592834-7.776413-6.984039-12.905663-5.887054-5.129257 1.096786-8.935028 5.423492-9.36837 10.651062h-1.349693c-2.500076 0-4.811851 1.325806-6.074913 3.483032z"/><path d="m122.574974 220.998444h52.32087l-7.145493-1.082795-1.169693-2.749542c-.863571-2.030578-2.68869-3.492218-4.859299-3.891662-2.170257-.398682-4.39595.317565-5.925674 1.908142l-1.298645-2.35315c-2.03096-3.681946-6.23349-5.599304-10.344971-4.719269-4.111664.878907-7.162338 4.347367-7.509766 8.537461h-1.082046c-2.003815 0-3.85701 1.062927-4.869247 2.792022z"/></g></g><path d="m191.355392 126.703659-4.946929 2.148605 1.874084 3.272583 4.317551-2.966278z" fill="#f66"/><path d="m196.437012 123.643616 2.773651-.124153c.429291-.018738.818039.315857.903778.779007.08493.462776-.160339.906662-.570862 1.031562l-.250656 2.889176c-.051636.590774-.36998 1.101196-.850571 1.365021-1.186889.651016-2.490478 1.03804-3.836181 1.140029-.911805.068497-1.834656-.04631-2.722733-.338638-.716308-.236053-1.25386-.90625-1.368652-1.705322-.115158-.79969.215805-1.576447.840606-1.977417l2.68219-1.863396c.521546-.362495.959626-.847481 1.283341-1.421821.125885-.224007.367309-.337853.611053-.288102.243744.04937.443436.251969.505036.514054z" fill="#f66"/><path d="m52.731747 40.662567c-.218312-.52977-.824356-.781891-1.354313-.564209-.529331.218323-.782089.82457-.563771 1.35492l24.3046 58.97966c.582543 1.414734 1.548661 2.603744 2.752999 3.463104 1.200447.856506 2.637207 1.381454 4.168068 1.472717 1.531456.091446 3.021019-.259018 4.314842-.966705 1.291198-.706116 2.388923-1.771515 3.138687-3.112045.750313-1.341492 1.084717-2.835816 1.011055-4.307007-.073616-1.469666-.554596-2.921158-1.434044-4.179001-.325989-.46814-.970352-.583527-1.438484-.25734-.468132.326004-.583512.969956-.257492 1.438477.650825.930542 1.006859 2.009537 1.06195 3.10498.054734 1.09372-.191314 2.200455-.744789 3.189179-.553619.990417-1.369201 1.779785-2.330932 2.306061-.959809.524795-2.064621.784744-3.199288.716858-1.134483-.067353-2.200271-.456849-3.091202-1.092011-.885795-.632492-1.5988-1.513657-2.033279-2.567978z" fill="#333"/><path d="m53.111294 44.305695c-16.717007 6.888778-27.889401 20.86734-30.111294 35.444915 8.101261-5.714691 15.712017-9.802261 21.849117-9.003708 8.480095-8.908416 19.324986-13.526321 32.754101-13.496856 4.526421-5.469025 12.634972-7.731095 21.849121-9.003708-11.847168-8.779831-29.624237-10.829178-46.341045-3.940643z" fill="#e0003f"/><path d="m53.111294 44.305695c-16.717007 6.888778-27.889401 20.86734-30.111294 35.444915 8.101261-5.714691 15.712017-9.802261 21.849117-9.003708 4.345288-4.5643 9.311352-8.002212 14.927666-10.265792z" fill="#b30033"/><path d="m53.111294 44.305695c-7.161949 2.951568-10.060688 13.52037-8.262177 26.441207 9.031056-8.817749 20.01025-13.176391 32.754101-13.496856-7.82637-10.437012-17.330177-15.895508-24.491924-12.944351z" fill="#cc003a"/><path d="m71.547623 92.924316 3.163322 7.676194c.605148 1.46849 1.612793 2.731948 2.904503 3.653869 1.29155.921326 2.814384 1.459519 4.397705 1.553635 1.584236.094498 3.160278-.258286 4.552048-1.019486 1.391617-.761245 2.537384-1.899169 3.311973-3.283294.775231-1.385514 1.145806-2.958451 1.066384-4.544602-.078987-1.583328-.605103-3.108825-1.512879-4.408798-.463546-.66365-1.386253-.829529-2.050674-.366348-.664818.462768-.831062 1.386993-.367119 2.051422.591896.847717.931274 1.843292.982956 2.875229.051643 1.029632-.185204 2.052017-.688721 2.952316-.504486.901261-1.252517 1.638947-2.158378 2.134476-.905861.495666-1.930901.725464-2.961312.664017-1.0308-.061203-2.021408-.411698-2.861633-1.011445-.839874-.599182-1.489769-1.423736-1.882324-2.377044l-3.163552-7.676193z" fill="#cc003a"/><path d="m92.195694 103.163513 3.245796 4.30661-3.243088 1.924988-2.295204-4.708771z" fill="#f66"/><path d="m89.28109 97.996368-2.352761-1.474243c-.363868-.228241-.866836-.127975-1.169502.233002-.302475.360809-.307808.867615-.012069 1.178513l-1.20504 2.637985c-.246056.538742-.220978 1.140793.067153 1.606643.712624 1.151291 1.655388 2.130448 2.776505 2.881714.759666.509095 1.619644.864151 2.536583 1.046845.739616.14772 1.537567-.170273 2.031563-.809235.493561-.639389.588844-1.47789.242172-2.134476l-1.415718-2.943527c-.275276-.572189-.417618-1.210403-.4161-1.869491.000397-.257309-.153427-.474839-.389885-.551911-.236641-.077102-.509658.000748-.692901.198181z" fill="#f66"/><path d="m142.981461 147.293198c17.760635-.203202 32.818405-5.602799 48.052154-15.718369-.251388-2.470215-1.779953-4.88974-3.366333-6.220123-15.280044 3.386596-29.372452 4.403045-44.531601 1.468498-2.481308 5.624764-5.106476 15.568565-.15422 20.469994z" fill="#ffae5c"/><path d="m143.135681 126.823204c10.444458 10.19445 35.7332 24.063957 56.522263 23.59716 8.330841 23.801102-4.009873 48.639847-30.221482 50.469941-17.553238-14.403107-38.960632-36.577271-48.843238-55.252366-14.215393-8.841644-24.323327-21.079093-32.205178-36.616073 2.061951-1.603378 3.597794-2.67627 6.278649-3.198349 9.48101 10.940536 20.021705 18.413521 33.701255 22.17588z" fill="#f93"/><path d="m199.657944 150.420364c8.330841 23.801102-4.009873 48.639847-30.221482 50.469941 5.544175-19.151444 15.956894-36.539383 30.221482-50.469941z" fill="#9e570f"/><path d="m191.741089 158.9758c4.714691.412872 9.771423.327911 15.095657-.286957 8.414246 18.383148.403259 39.126678-20.386551 42.530884-4.931289-3.334931-9.481064-6.661835-13.694503-10.126496 4.545181-11.667328 10.95874-22.514328 18.985397-32.117431z" fill="#630"/><path d="m206.836746 158.688843c8.414246 18.383148.403259 39.126678-20.386551 42.530884 3.007019-15.699402 10.030823-30.353501 20.386551-42.530884z" fill="#241200"/><path d="m215.865097 191.252029 1.094299-.029113c2.20813-.058533 4.277344 1.072143 5.420243 2.961502 1.232422 2.039001 2.901443 3.778427 4.886886 5.095016l-.207763 1.154373-1.03653.78592.503891 1.168518c.805832 1.872589.673859 4.016815-.355835 5.77536-.742645 1.268387-1.716019.940094-2.843643.977585-.997864.033279-1.884064-.632096-2.131592-1.599381-.333267-1.301315-.728134-2.586121-1.183838-3.850326l-1.74707-2.682969-7.553345-8.186203z" fill="#241200"/><path d="m188.838516 172.772049 4.044693 2.88385c3.371689 2.403259 6.503083 5.127152 9.351319 8.133438 3.650207 3.853409 8.418121 6.463272 13.630569 7.462692-1.640671 1.20488-1.960556 3.535416.5923 6.60521 1.367142 1.643371 3.016999 3.764251 3.553818 5.834244l-2.368423-2.471756c-.991013-1.033463-8.900193-7.585129-9.951645-8.071824l-21.240952-9.831863z" fill="#f66"/><path d="m222.203247 180.243942 1.094315-.029098c2.208114-.059677 4.277359 1.070968 5.419464 2.961517 1.232422 2.038239 2.901443 3.778412 4.886886 5.094254l-.207 1.15512-1.036499.785141.503112 1.169312c.806565 1.871811.674576 4.0168-.355056 5.774948-.742676 1.268005-1.71608.940491-2.843262.977219-.998276.033294-1.885239-.631714-2.132767-1.598633-.333267-1.302048-.728134-2.586899-1.183029-3.85109l-1.747086-2.682937-7.554138-8.186249z" fill="#241200"/><path d="m195.177048 161.763977 4.044327 2.883087c3.371688 2.403244 6.503051 5.127167 9.351333 8.133408 3.650208 3.853409 8.417725 6.464065 13.630539 7.46347-1.640686 1.204117-1.960556 3.534653.592346 6.604462 1.367462 1.644134 3.016968 3.76503 3.553818 5.834228l-2.369232-2.471756c-.990997-1.033462-8.900223-7.58435-9.950913-8.071807l-21.240936-9.831894z" fill="#f66"/><path d="m189.608337 162.407166 17.228409-3.718323c-10.355728 12.177383-17.379532 26.831482-20.386551 42.530884l-8.727646-17.47519z" fill="#630"/><path d="m124.313309 109.395111c3.188759-1.903366 7.287048-1.211578 9.674591 1.632843 2.497772 2.975449 6.302215 4.526428 10.16864 4.146301 5.049835-.497604 9.639404 2.954605 10.562698 7.943825.526078 2.840599 2.027512 5.407982 4.244797 7.258904 4.930878 4.11557 5.719864 11.394561 1.784958 16.471222-3.934143 5.07547-11.18103 6.125793-16.395416 2.376831-2.489731-1.789536-5.430558-2.847474-8.48967-3.052552-4.324402-.290039-7.839554-3.598938-8.391464-7.89772-.484032-3.773056-2.617737-7.135544-5.82412-9.181046-4.82737-3.078811-7.291084-8.788879-6.219734-14.41307.720695-3.782211 4.053703-6.35556 8.88472-5.285538z" fill="#241200"/></g></svg>