<svg height="120" viewBox="0 0 120 120" width="120" xmlns="http://www.w3.org/2000/svg"><g fill-rule="evenodd"><path d="m64.448692 16.985252c27.716622 0 46.270241 22.229508 41.440514 49.65075-1.310028 7.439102-4.209518 14.49414-8.288529 20.828491h-91.131131c-1.847564-6.334351-2.261546-13.389389-.951346-20.828491 4.829727-27.421242 31.213692-49.65075 58.930492-49.65075z" fill="#c2f9ff"/><path d="m40.091091 38.990944h60.966435c1.727981 0 2.893997 1.41362 2.591804 3.141418l-6.41655 36.649781c-.302192 1.727806-1.963249 3.141517-3.690864 3.141517h-60.966805c-1.727802 0-2.893821-1.413711-2.591365-3.141517l6.416107-36.649781c.302475-1.727798 1.963421-3.141418 3.691238-3.141418z" fill="#4c4f57"/><path d="m40.091091 38.990944h60.966435c.31855 0 .617736.048294.892212.137169.364715.278145.529846.756927.431823 1.316482l-6.570129 37.529847c-.189819 1.082565-1.295632 2.05841-2.401108 2.05841h-62.430742c-.453655 0-.807182-.166199-1.030981-.441238-.024147-.258522-.013855-.529831.035145-.809471l6.416107-36.649781c.302292-1.727798 1.963512-3.141418 3.691238-3.141418z" fill="#666a75"/><path d="m39.572979 42.219727h59.844089l-6.296165 35.964401h-59.844177z" fill="#74defc"/><path d="m4.826 80.716431h78.651638c.447785 0 .81427.366317.81427.814636v2.152344c0 .44815-.366485.814285-.81427.814285h-78.651638c-.447891 0-.814455-.366135-.814455-.814285v-2.152344c0-.448319.366564-.814636.814455-.814636z" fill="#666a75"/><path d="m1.277433 81.531067h77.488017c1.631568 0 2.966964 1.334694 2.966964 2.966629 0 1.63192-1.335396 2.966797-2.966964 2.966797h-77.488017c-1.631837 0-2.966886-1.334877-2.966886-2.966797 0-1.631935 1.335049-2.966629 2.966886-2.966629z" fill="#4c4f57"/><path d="m60.382275 81.531067h30.134418c1.631928 0 2.966622 1.334694 2.966622 2.966629 0 1.63192-1.334694 2.966797-2.966622 2.966797h-30.134418c-1.631749 0-2.966786-1.334877-2.966786-2.966797 0-1.631935 1.335037-2.966629 2.966786-2.966629z" fill="#252629"/><path d="m83.412292 83.683411h5.49717c.44796 0 .81443.366485.81443.814285 0 .448135-.36647.814636-.81443.814636h-5.49717c-.447982 0-.814453-.366501-.814453-.814636 0-.4478.366471-.814285.814453-.814285zm-8.857254 0h5.497162c.447983 0 .814453.366485.814453.814285 0 .448135-.36647.814636-.814453.814636h-5.497162c-.447967 0-.814277-.366501-.814277-.814636 0-.4478.36631-.814285.814277-.814285z" fill="#666a75"/><path d="m40.778053 50.338692h21.498761l-.178086.992546h-21.498764c.059311-.330803.118691-.661675.178089-.992546zm27.341622 0h12.933761l-.178253.992546h-12.933952zm17.169029 0h10.17205c-.059295.330871-.118774.661743-.178077.992546h-10.172242zm-44.019524-2.736695h8.055477l-.178169.992546h-8.055488zm17.358311 0h13.235966l-.178261.992546h-13.235794zm18.681454 0h11.647545l-.178071.992546h-11.647567zm-37.022019 5.47329h5.54031l-.178181.992714h-5.540218c.059399-.330696.118797-.661751.178089-.992714zm10.985894 0h4.991745l-.178093.992714h-4.991833zm9.22718 0h8.6978l-.178093.992714h-8.6978zm12.933052 0h12.252853l-.178276.992714h-12.252662zm17.698349 0h3.838417c-.059311.330963-.118774.662018-.178093.992714h-3.838417zm-51.335674 2.736496h5.540382l-.178161.992908h-5.54031c.059379-.330799.11869-.66193.178089-.992908zm8.943802 0h14.067814l-.178254.992908h-14.067745zm16.620021 0h10.476037l-.178093.992908h-10.476204zm13.028237 0h5.918663l-.17807.992908h-5.918686zm-39.083096 2.73687h5.540314l-.178097.992889h-5.540397c.059398-.330959.118782-.661743.17818-.992889zm11.382817 0h5.975494l-.178093.992889h-5.975494zm9.378894 0h6.579899l-.178268.992889h-6.579724zm11.098729 0h9.832565l-.178093.992889h-9.832748zm12.384414 0h10.437859c-.059494.331146-.118813.66193-.178093.992889h-10.437859zm-44.736164 2.736858h6.447983l-.178093.992546h-6.447979c.059399-.330967.118801-.66177.178089-.992546zm9.926945 0h7.714928l-.178269.992546h-7.714752zm14.493347 0h8.896835l-.178085.992546h-8.896843zm11.675942 0h7.355842l-.178276.992546h-7.355652zm11.591095 0h4.386886l-.178093.992546h-4.386886zm-48.178364 2.736691h13.103435l-.178089.992706h-13.103508c.05938-.330963.118782-.661926.178162-.992706zm15.655639 0h7.469284l-.178272.992706h-7.469105zm12.423283 0h10.475327l-.177903.992706h-10.475509zm13.879097 0h12.724777l-.178093.992706h-12.725143zm-42.44931 2.736671h5.540397l-.178085.992546h-5.540405c.059402-.330597.118782-.661575.178093-.992546zm12.318977 0h6.741131l-.177906.992546h-6.741402zm14.134422 0h5.937149l-.178276.992546h-5.937141zm12.101197 0h3.781601l-.178254.992546h-3.781433zm6.333801 0h5.049019l-.178269.992546h-5.049003zm7.185722 0h2.608841c-.059471.330971-.118774.661949-.178245.992546h-2.608681zm-52.565155 2.736511h3.98996l-.178162.992729h-3.989978c.059394-.330803.118797-.661407.17818-.992729zm7.393383 0h6.986325l-.178181.992729h-6.986328zm11.458542 0h10.853146l-.17807.992729h-10.853165zm18.246098 0h9.132789l-.17807.992729h-9.132812zm12.839119 0h4.745933c-.059486.331322-.118805.661926-.178276.992729h-4.74575zm-50.428273 2.736855h7.393387l-.178257.992729h-7.3932c.059288-.330971.118691-.661751.17807-.992729zm11.865513 0h10.238365l-.178089.992729h-10.23846zm14.710495 0h10.522011l-.178268.992729h-10.521843zm14.994141 0h7.515983l-.1781.992729h-7.515976zm-42.061257 2.73687h4.253365l-.178181.992714h-4.253273zm7.959603 0h7.69611l-.178093.992714h-7.69611zm11.402252 0h11.402161l-.177903.992714h-11.402351zm16.829369 0h8.696907l-.178093.992714h-8.696907zm14.124099 0h4.367386l-.178085.992714h-4.367371z" fill="#a3ebff"/><path d="m60.701164 43.592949h17.103874l-.350311 1.952072h-17.103691z" fill="#fff"/><path d="m22.043581 69.804871c.43671 0 .865871.032653 1.285166.094452 2.106981-4.375885 6.583273-7.395943 11.765182-7.395943 3.206234 0 6.141873 1.15678 8.413616 3.075096 2.170891-4.568893 6.827855-7.728695 12.223107-7.728695 7.470165 0 13.525741 6.055763 13.525741 13.525929 0 .314819-.011718.627311-.033035.936958.136192-.00798.273445-.012245.411408-.012245 3.452415 0 6.331512 2.452232 6.99147 5.709869.652344-.563194 1.502144-.903763 2.43148-.903763 2.018097 0 3.661209 1.605995 3.720864 3.609902h-69.175071c-.181545-.700806-.2784-1.435547-.2784-2.192993 0-4.815163 3.903491-8.718567 8.718472-8.718567zm-12.6486 8.045982c.974347 0 1.764201.789604 1.764201 1.764015 0 .416573-.144801.799545-.386273 1.101563h-2.7556c-.241836-.302018-.386273-.68499-.386273-1.101563 0-.974411.789855-1.764015 1.763945-1.764015zm78.030442.024673c1.441047 0 2.609382 1.168328 2.609382 2.609383 0 .077759-.003364.155182-.010292.231522h-5.198173c-.006562-.07634-.010109-.153763-.010109-.231522 0-1.441055 1.168144-2.609383 2.609192-2.609383z" fill="#fff"/><path d="m76.282852 76.842506c.146317.374825.261894.765274.343384 1.167786.652344-.563194 1.502144-.903763 2.43148-.903763 2.018097 0 3.661209 1.605995 3.720864 3.609902h-69.175071c-.181545-.700806-.2784-1.435547-.2784-2.192993 0-1.054696.187237-2.065346.530182-3.000893.161036.635834.432435 1.248939.812582 1.808784 1.162563 1.711998 3.159363 2.662636 5.221417 2.485611 2.061966-.1772 3.867546-1.454727 4.720709-3.340377l.465383.262069c6.319418 3.554871 14.313637 1.580971 18.25222-4.506393l.736416.992729c2.597382 3.501068 6.521836 5.77858 10.850403 6.296165 4.328655.51793 8.679508-.769531 12.029472-3.55931l.293328.558593c.952049 1.813217 2.877128 2.900749 4.921341 2.780365 1.712349-.100853 3.24237-1.033905 4.12429-2.458275zm-66.887871 1.008347c.974347 0 1.764201.789604 1.764201 1.764015 0 .416573-.144801.799545-.386273 1.101563h-2.7556c-.241836-.302018-.386273-.68499-.386273-1.101563 0-.974411.789855-1.764015 1.763945-1.764015zm78.030442.024673c1.441047 0 2.609382 1.168328 2.609382 2.609383 0 .077759-.003364.155182-.010292.231522h-5.198173c-.006562-.07634-.010109-.153763-.010109-.231522 0-1.441055 1.168144-2.609383 2.609192-2.609383z" fill="#e3fcff"/><path d="m44.207565 70.488113h5.701088v-28.268386h-5.701088z" fill="#fff"/><path d="m43.502129 43.74369h7.111946v-5.333892h-7.111946z" fill="#666a75"/><path d="m42.124199 40.943359h9.867729v-18.668594h-9.867729z" fill="#fff"/><path d="m47.058144 11.69593c-2.780362 3.309929-4.482941 6.125359-4.933762 10.578835h9.86763c-.450996-4.453476-2.153595-7.268906-4.933868-10.578835z" fill="#e61e2b"/><path d="m46.280182 33.742729h1.555839v14.28727h-1.555839zm5.71183 0 4.000538 3.644783c1.002125.913178 1.581322 2.200287 1.600143 3.555847.0332 2.407586-.839313 4.739693-2.444603 6.534188-.334526.373741-.820236.576072-1.321121.550148-.500713-.025917-.962967-.27726-1.257191-.683586l-.577766-6.40075zm-9.86763 0-4.00053 3.644783c-1.002236.913178-1.581509 2.200287-1.600144 3.555847-.033382 2.407586.839131 4.739693 2.444512 6.534188.334434.373741.820125.576072 1.321018.550148.500889-.025917.963161-.27726 1.257198-.683586l.577946-6.40075z" fill="#e61e2b"/><path d="m47.058239 30.920547c2.148956 0 3.901634-1.752838 3.901634-3.901817 0-2.148964-1.752678-3.901718-3.901634-3.901718-2.148964 0-3.901733 1.752754-3.901733 3.901718 0 2.148979 1.752769 3.901817 3.901733 3.901817z" fill="#666a75"/><path d="m47.058239 29.807091c1.53569 0 2.788177-1.252579 2.788177-2.788361 0-1.535766-1.252487-2.788437-2.788177-2.788437-1.535786 0-2.788441 1.252671-2.788441 2.788437 0 1.535782 1.252655 2.788361 2.788441 2.788361z" fill="#74defc"/><path d="m47.058239 26.613014c.788979 0 1.432522-.461197 1.432522-1.026901 0-.565697-.643543-1.027077-1.432522-1.027077-.789055 0-1.432621.46138-1.432621 1.027077 0 .565704.643566 1.026901 1.432621 1.026901z" fill="#bff1ff"/><path d="m19.884054 60.799545c1.156601 0 2.094364.937855 2.094364 2.094273 0 1.15678-.937763 2.094456-2.094364 2.094456-1.156599 0-2.0942-.937676-2.0942-2.094456 0-1.156418.937601-2.094273 2.0942-2.094273zm9.998491-27.822181c-.261091 0-.472835.211654-.472835.472923 0 .261093.211744.472748.472835.472748.26109 0 .472836-.211655.472836-.472748 0-.261269-.211746-.472923-.472836-.472923zm33.837094-1.368348c.755688 0 1.368252.612748 1.368252 1.368348 0 .75576-.612564 1.368255-1.368252 1.368255-.755856 0-1.368435-.612495-1.368435-1.368255 0-.7556.612579-1.368348 1.368435-1.368348zm21.1852 12.134674c1.339653 0 2.425415 1.086037 2.425415 2.42553 0 1.339394-1.085762 2.425323-2.425415 2.425323-1.33931 0-2.425255-1.085929-2.425255-2.425323 0-1.339493 1.085945-2.42553 2.425255-2.42553zm-6.383004 20.278512c.908913 0 1.645417.736671 1.645417 1.645416 0 .908554-.736504 1.645241-1.645417 1.645241-.908561 0-1.64524-.736687-1.64524-1.645241 0-.908745.736679-1.645416 1.64524-1.645416zm-8.133873-9.954201c.755852 0 1.368256.612579 1.368256 1.368255 0 .755852-.612404 1.368435-1.368256 1.368435-.755691 0-1.368255-.612583-1.368255-1.368435 0-.755676.612564-1.368255 1.368255-1.368255zm-37.764564-1.842766c1.252582 0 2.268112 1.015182 2.268112 2.267746 0 1.252762-1.01553 2.268017-2.268112 2.268017-1.252491 0-2.268017-1.015255-2.268017-2.268017 0-1.252564 1.015526-2.267746 2.268017-2.267746zm-9.618073-4.195236c.567202 0 1.026894.459709 1.026894 1.026817 0 .5672-.459692 1.027077-1.026894 1.027077-.567197 0-1.026907-.459877-1.026907-1.027077 0-.567108.45971-1.026817 1.026907-1.026817z" fill="#fff"/></g></svg>