<svg height="20" viewBox="0 0 20 20" width="20" xmlns="http://www.w3.org/2000/svg" xmlns:xlink="http://www.w3.org/1999/xlink"><linearGradient id="a" gradientUnits="userSpaceOnUse" x1="2.185144" x2="6.393135" y1="1.553743" y2="5.758145"><stop offset=".00001" stop-color="#ff9191"/><stop offset="1" stop-color="#b55858"/></linearGradient><linearGradient id="b" gradientUnits="userSpaceOnUse" x1="8.892423" x2="13.088571" y1="10.961681" y2="15.154177"><stop offset=".00001" stop-color="#fff"/><stop offset="1" stop-color="#ffdd7c"/></linearGradient><path d="m2.034068 1.989267c1.158048-1.157072 2.422441-1.772195 2.820488-1.374633.026829.026828.050244.057073.068292.091709l2.520001 2.518047-.380488.379999-1.480001 1.478537-.475121.475123-1.860489 1.859023-2.603414-2.600974c.001465-.004878.001465-.010245.002926-.015123l.002927-.002927-.002927-.002927c-.374633-.409756.240488-1.659999 1.387806-2.805854z" fill="url(#a)"/><path d="m6.76236 2.54439 2.356585 2.354634.270245.270245-.38.38-3.816097 3.812681-2.626828-2.624878 2.098046-2.096584 1.717562-1.716099z" fill="#e3dedb"/><path d="m3.418947 7.589268 4.196097-4.192683.190243.190245.095123.094633-4.196099 4.192683-.095122-.095122z"/><path d="m2.943337 7.114146 4.196585-4.192683.190244.190245.094634.095121-4.196098 4.192195-.095123-.095121z"/><path d="m3.894556 8.06439 4.196097-4.192682.190244.190243.095122.094634-4.196098 4.192684-.095123-.095123z"/><path d="m8.774069 4.554634 9.019512 9.011708 1.705853 5.896587-.534634-.154148-5.367316-1.549757-9.019513-9.011707.814146-.813659.285366-.284878.760975-.760488.095121-.094634.285367-.285366.095122-.095121.760488-.760001.285366-.284878.434146-.433658z" fill="url(#b)"/><path d="m17.18041 18.793657.824391-.823902.824388-.8239.670245 2.317074z"/><path d="m.646262 4.800975c-.001461.004878-.001461.010245-.002926.015123l-.005854-.006342z" fill="#ff9191"/><path d="m8.774069 4.554634 9.019512 9.011708-2.035611.062438-.062439 2.033658-2.035608.06244-.062439 2.034146-9.019513-9.011707 1.049268-1.048293 1.04878-1.048293 1.049269-1.047805z" fill="#ffc700"/><path d="m8.774069 4.554634 9.019512 9.011708-2.035611.062438-8.032682-8.025854z" fill="#ffda00"/><path d="m13.659923 15.724878-.062439 2.034146-9.019513-9.011707 1.049268-1.048293z" fill="#ff8a00"/><path d="m15.695531 15.662438-2.035608.06244-8.032684-8.025854 1.04878-1.048293z" fill="#ffa100"/><path d="m18.004801 17.969755.548292-.547804.946341 2.040978z" fill="#fff" opacity=".8"/></svg>