<svg height="32" viewBox="0 0 32 32" width="32" xmlns="http://www.w3.org/2000/svg"><path d="m25.906103 29.119999h-19.839249c-1.76792 0-2.224828-1.119379-2.226854-2.127131.001649-.413435.070009-.823888.202441-1.215503 1.512843-4.333275 6.283978-7.495608 11.944038-7.495608 5.660053 0 10.430794 3.162333 11.944038 7.495608.132431.391615.200796.802068.20244 1.215503-.002025 1.007752-.458532 2.127131-2.226854 2.127131zm-9.919624-13.573126c-3.186424 0-5.769578-2.811663-5.769578-6.280102 0-3.468441 2.583154-6.280105 5.769578-6.280105s5.769577 2.811664 5.769577 6.280105c0 3.468439-2.583153 6.280102-5.769577 6.280102z" fill="#fff" fill-rule="evenodd"/></svg>