<svg height="1495" viewBox="0 0 2083 1495" width="2083" xmlns="http://www.w3.org/2000/svg"><g fill-rule="evenodd"><path d="m1017.52655 151.117798c450.690247 0 816.054627 365.362366 816.054627 816.055115 0 168.679626-51.193238 325.407775-138.871826 455.4953h-1354.363984c-87.686523-130.087525-138.87181-286.815674-138.87181-455.4953 0-450.692749 365.360244-816.055115 816.052993-816.055115z" fill="#ffefd6"/><path d="m1714.110352 630.341064h83.479248c152.307129 0 254.439453 124.615235 226.961425 276.918152l-85.952758 476.494568c-1.142334 6.314942-7.239502 11.49585-13.566895 11.49585h-530.843994c-6.327271 0-10.567261-5.180908-9.425049-11.49585l101.015015-559.970032c19.195556-106.396911 121.936035-193.442688 228.333008-193.442688z" fill="#7d4d62"/><path d="m1705.367188 630.341064h.008422c152.306763 0 254.439209 124.615235 226.96106 276.918152l-85.944458 476.494568c-1.150635 6.314942-7.247803 11.49585-13.566895 11.49585h-530.860229c-6.310791 0-10.559326-5.180908-9.408569-11.49585l85.944213-476.494568c27.47876-152.302917 174.567749-276.918152 326.866456-276.918152z" fill="#96657a"/><path d="m1651.4375 1353.284058c45.088135 0 87.973755-19.433716 117.695923-53.338257 29.72168-33.896485 43.370727-78.963867 37.470459-123.661621l-21.833008-251.707093c-3.812988-43.896728-29.064453-83.07666-67.463867-104.671508-38.407471-21.595398-84.999268-22.823548-124.491455-3.278748l-74.703369 32.088196-132.183106 4.593445-60.906128-22.987915c-85.295532-32.174439-181.62622-6.372254-239.402221 64.152526l-183.567322 246.177063c-31.270813 41.936768-35.124634 98.282349-9.877442 144.085816 25.251953 45.798706 74.962159 72.61145 127.108887 68.548096z" fill="#e68572"/><path d="m1682.465942 865.589417-66.979248-86.749939c-15.316894-19.828309-37.561035-29.88617-62.574463-28.275635l-197.148681 12.687439c-27.363404 1.758667-50.256836 13.493042-67.685791 34.6604l-100.990113 122.712647 328.764771 43.149047z" fill="#e68572"/><path d="m1292.367432 595.27002h199.309692l46.222046 175.787719-128.369995 54.147705-67.751343-42.01062z" fill="#ffceae"/><path d="m1292.367432 595.27002h124.779297c26.50061 23.932861 43.313232 59.603881 43.313232 99.453308 0 52.290893-28.941162 97.391235-70.726318 118.209594l-47.955811-29.738098z" fill="#f9aa89"/><path d="m1256.424927 431.536743h252.475952l-23.386475 201.236572c-8.069458 69.432068-71.473755 126.237854-140.901733 126.237854-69.435913 0-119.626953-56.805786-111.565918-126.237854z" fill="#ffceae"/><path d="m42.290886 1353.284058h1998.751961c23.074341 0 41.957153 18.887573 41.957153 41.957641v.007935c0 23.069946-18.882812 41.949096-41.957153 41.949096h-1998.751961c-23.078388 0-41.957558-18.87915-41.957558-41.949096v-.007935c0-23.070068 18.87917-41.957641 41.957558-41.957641z" fill="#ffceae"/><path d="m1321.76062 697.028381h-4.609863c-21.324097 0-38.703369-17.383484-38.703369-38.699035v-12.481934h82.016479v12.481934c0 21.315551-17.387817 38.699035-38.703247 38.699035z" fill="#fff"/><path d="m1193.488892 1008.355774v118.452087l-26.730713 3.336426c-23.394654 2.920899-44.069092 16.635742-55.852783 37.047608-11.783692 20.424072-13.328492 45.174438-4.158082 66.896728l-42.737793-58.005615c-25.430297-34.516724-28.006469-80.821045-6.565551-117.967285 21.438843-37.1297 62.829223-58.051026 105.444092-53.284668z" fill="#ffceae"/><path d="m1384.573486 1059.265991c46.534058-37.988403 100.464356-57.093567 155.125489-54.944458l-1.799805 159.040894-54.324341 36.464233c-50.831909 34.122315-110.924683 34.122315-161.756592 0 0-73.338989 25.966187-110.686767 62.755249-140.560669z" fill="#ffceae"/><path d="m1244.739868 532.157104-20.362182-117.997924c-6.319336-36.618164 10.863159-73.296021 43.05017-91.871094 32.179078-18.581299 72.525757-15.12793 101.080811 8.65271l118.501099 24.025391c14.338989 2.90686 25.539184 14.111084 28.447998 28.445922l11.783691 7.186036c18.316284 11.175781 24.635376 34.76538 14.355469 53.603149l-34.380737 210.154785-24.504151-5.916321c-16.927368-4.088073-30.157104-17.309875-34.249634-34.249817l3.492554-76.473754-54.15979-1.150269 2.440186-66.087769-29.688843 6.896485c-39.295166 9.127197-80.142945 9.230224-119.478882.297912z" fill="#f7ba00"/><path d="m1470.813477 499.620911c22.334716 3.771728 36.287475 31.38977 31.167968 61.691162-5.119262 30.300964-27.363403 51.80957-49.689453 48.03833-22.334595-3.768006-36.287475-31.386048-31.168213-61.695435 5.119507-30.301391 27.363526-51.805908 49.689698-48.034057z" fill="#ffceae"/><path d="m388.584717 1016.72113h339.578674c28.144348 0 57.097778 23.024964 64.353577 51.1651l60.327148 234.229004c7.243653 28.152222-9.848266 51.168824-37.97998 51.168824h-339.591278c-28.131714 0-57.093537-23.016602-64.345154-51.168824l-60.331421-234.229004c-7.243134-28.140136 9.844513-51.1651 37.988434-51.1651z" fill="#4d4441"/><path d="m822.682495 1185.010742 30.161621 117.104492c7.243653 28.152222-9.848266 51.168824-37.97998 51.168824h-339.591278c-28.131714 0-57.093537-23.016602-64.345154-51.168824l-30.161743-117.104492z" fill="#332d2a"/><path d="m380.765961 1185.010742h441.916534l-35.597107 96.803589c-14.45813 39.307373-58.441101 71.469727-97.75647 71.469727h-298.969146c-39.307434 0-59.644806-32.162354-45.190827-71.469727z" fill="#7d6f6a"/><path d="m1120.805908 580.740234h536.170899v-159.538574h-536.170899z"/><path d="m589.177979 621.129761c-199.364258 0-360.980439-130.422974-360.980439-291.308594s161.616181-291.310547 360.980439-291.310547c199.364318 0 360.982421 130.424927 360.982421 291.310547 0 56.917358-20.228942 110.020508-55.199218 154.886719l163.240234 128.34375-199.716797-89.246094c-66.10553 59.724304-162.264953 97.324219-269.30664 97.324219z" fill="#914da3"/><path d="m420.542969 492.097656v-111.589843h20.05664v11.826171c2.252869-3.477172 4.652527-6.218505 7.199219-8.226562 4.652649-3.575073 10.185822-5.363281 16.601563-5.363281 9.354248 0 17.289032 3.451904 23.802734 10.357422 6.464722 6.905517 9.697266 17.043701 9.697266 30.414062 0 14.104858-3.171387 24.854614-9.513672 32.25-6.342285 7.395264-14.509064 11.09375-24.5 11.09375-6.366761 0-11.655335-1.592041-15.867188-4.775391-2.301819-1.763061-4.555877-4.333618-6.759765-7.71289v41.726562zm124.445312-28.798828c-12.586609 0-21.879455-2.65686-27.878906-7.970703s-8.998047-12.084717-8.998047-20.3125h21.230469c.440735 3.722046 1.395996 6.368286 2.865234 7.935547 2.595764 2.791626 7.394959 4.1875 14.398438 4.1875 4.113891 0 7.382385-.613526 9.80664-1.837891 2.424256-1.224365 3.636719-3.061035 3.636719-5.509765 0-2.35083-.980408-4.136963-2.939453-5.361328-1.958984-1.224366-9.229797-3.330933-21.816406-6.31836-9.060425-2.252807-15.451721-5.069946-19.173828-8.449219-3.722107-3.330322-5.583985-8.129638-5.583985-14.398437 0-7.395264 2.901551-13.748657 8.705078-19.0625 5.803528-5.313843 13.970337-7.970703 24.5-7.970703 9.990906 0 18.145081 1.9823 24.462891 5.949219 6.26886 4.015869 9.868225 10.921752 10.798828 20.716796h-20.9375c-.293823-2.693603-1.052917-4.823364-2.277344-6.390625-2.301818-2.840576-6.219665-4.261718-11.753906-4.261718-4.554626 0-7.797912.710449-9.732422 2.130859-1.934448 1.420288-2.902343 3.08606-2.902343 4.996094 0 2.39978 1.028991 4.137451 3.085937 5.214844 2.056946 1.126464 9.329651 3.062011 21.818359 5.804687 8.325745 1.958984 14.569519 4.921753 18.732422 8.888672 4.113892 4.015869 6.169922 9.036621 6.169922 15.060547 0 7.93396-2.950012 14.409668-8.851562 19.429687-5.90149 5.02002-15.023499 7.529297-27.365235 7.529297zm78.53125-.955078c-11.851989 0-19.833374-4.259644-23.947265-12.78125-2.30188-4.70166-3.453125-11.632568-3.453125-20.791016v-48.263671h21.451172v48.263671c0 4.554688.53778 7.983277 1.615234 10.285157 1.910034 4.064941 5.657104 6.097656 11.240234 6.097656 7.150391 0 12.048767-2.888794 14.69336-8.667969 1.371338-3.134277 2.05664-7.273682 2.05664-12.416015v-43.5625h21.230469v80.074218h-20.349609v-11.314453c-.195923.244995-.685181.980835-1.46875 2.205078-.783631 1.224365-1.713501 2.30188-2.791016 3.232422-3.281311 2.938477-6.452698 4.946045-9.513672 6.023438-3.060913 1.077392-6.64978 1.615234-10.763672 1.615234zm-244.261718-1.761719v-108.285156h22.480468v108.285156zm308.982421 0v-79.927734h20.34961v11.679687c2.595764-4.162963 5.043823-7.12561 7.345703-8.888671 4.065002-3.1344 9.330139-4.701172 15.794922-4.701172 6.121887 0 11.068725 1.347412 14.839844 4.041015 3.036437 2.497681 5.337097 5.705078 6.904296 9.623047 2.742615-4.701538 6.14795-8.153564 10.212891-10.357422 4.309814-2.203857 9.109192-3.30664 14.398438-3.30664 3.526184 0 7.003356.685424 10.43164 2.05664 3.428223 1.371338 6.53656 3.770996 9.328125 7.199219 2.252869 2.791626 3.771118 6.220215 4.554688 10.285156.489807 2.693604.736328 6.636719.736328 11.828125l-.148438 50.46875h-21.451172v-50.984375c0-3.036499-.489318-5.533203-1.46875-7.492187-1.861023-3.722046-5.289734-5.583985-10.285156-5.583985-5.779114 0-9.770752 2.399659-11.974609 7.199219-1.126404 2.546631-1.689453 5.608521-1.689453 9.183594v47.677734h-21.082032v-47.677734c0-4.75061-.491211-8.202515-1.470703-10.357422-1.763122-3.869019-5.215027-5.804687-10.357422-5.804687-5.974975 0-9.991882 1.935668-12.048828 5.804687-1.126404 2.203857-1.689453 5.484863-1.689453 9.84375v48.191406zm-229.863281-15.28125c5.828064 0 10.273041-2.252075 13.333985-6.757812 3.060943-4.505738 4.589843-10.504883 4.589843-17.998047 0-6.170776-1.406585-11.632202-4.222656-16.382813-2.816071-4.750732-7.383362-7.125-13.701172-7.125-7.591156 0-12.807892 3.599488-15.648437 10.798829-1.469269 3.820068-2.203125 8.667968-2.203125 14.544921 0 9.305298 2.473449 15.844117 7.419922 19.615235 2.938476 2.203857 6.415679 3.304687 10.43164 3.304687zm48.851563-162.671875c-13.762024 0-24.020722-4.173218-30.779297-12.523437-6.758545-8.350342-10.138672-18.402222-10.138672-30.15625 0-11.558106 3.380127-21.574097 10.138672-30.046875 6.758575-8.472656 17.017273-12.708985 30.779297-12.708985 13.761963 0 24.022705 4.236329 30.78125 12.708985 6.758606 8.472778 10.138672 18.488769 10.138672 30.046875 0 11.754028-3.380066 21.805908-10.138672 30.15625-6.758545 8.350219-17.019287 12.523437-30.78125 12.523437zm146.779297-.146484c-10.186829 0-19.17389-3.281128-26.960938-9.84375-7.787109-6.562744-11.681641-17.23877-11.681641-32.029297 0-13.859985 3.515076-24.487549 10.542969-31.882812 7.027893-7.395386 16.149902-11.091797 27.365235-11.091797 6.660583 0 12.659729 1.248413 17.998046 3.746093 5.338257 2.497803 9.745423 6.438843 13.222657 11.826172 3.134399 4.750611 5.167114 10.260498 6.097656 16.529297.538696 3.673218.758118 8.963745.660156 15.869141h-54.802734c.293823 8.031982 2.815857 13.664184 7.566406 16.896484 2.889587 2.008057 6.366638 3.011719 10.431641 3.011719 4.309814 0 7.812255-1.225098 10.505859-3.673828 1.469299-1.322388 2.766174-3.158936 3.892578-5.509766h21.378906c-.538757 4.750733-3.012146 9.575073-7.419921 14.472656-6.856507 7.786988-16.45514 11.679688-28.796875 11.679688zm-272.986329-2.644531v-108.283203h22.625v88.816406h53.628907v19.466797zm181.892579 0v-80.074219h19.982421v13.958984c3.2323-5.338379 6.047425-8.988281 8.447266-10.947265 3.91803-3.28125 9.010437-4.921875 15.279297-4.921875.391785 0 .722778.012573.992187.037109.269349.024414.87024.062378 1.800782.111328v21.451172c-1.322327-.146973-2.498902-.245972-3.527344-.294922-1.028504-.04895-1.861328-.072265-2.498047-.072265-8.423706 0-14.079224 2.741333-16.96875 8.226562-1.61615 3.085449-2.423828 7.836182-2.423828 14.251953v38.273438zm142.076171 0v-79.925782h20.34961v11.679688c2.595703-4.162964 5.043823-7.12561 7.345703-8.888672 4.064941-3.134399 9.3302-4.701172 15.794922-4.701172 6.121948 0 11.066772 1.345581 14.83789 4.039063 3.036499 2.497802 5.339112 5.706909 6.90625 9.625 2.742676-4.701661 6.145935-8.155396 10.210938-10.359375 4.309814-2.203858 9.109131-3.304688 14.398437-3.304688 3.526184 0 7.003357.685303 10.431641 2.056641 3.428284 1.371216 6.538513 3.771118 9.330078 7.199219 2.252869 2.791625 3.771057 6.220214 4.554688 10.285156.489746 2.693603.734375 6.634765.734375 11.826172l-.146485 50.46875h-21.451172v-50.982422c0-3.036499-.489257-5.533203-1.46875-7.492188-1.861023-3.722046-5.289734-5.583984-10.285156-5.583984-5.779053 0-9.770752 2.399536-11.974609 7.199219-1.126404 2.54663-1.689453 5.60852-1.689453 9.183593v47.675782h-21.083985v-47.675782c0-4.75061-.489319-8.204467-1.46875-10.359375-1.763122-3.869018-5.215088-5.802734-10.357422-5.802734-5.974975 0-9.991882 1.933716-12.048828 5.802734-1.126404 2.203858-1.689453 5.484986-1.689453 9.84375v48.191407zm-197.833984-14.765625c6.121948 0 10.822144-2.178345 14.103516-6.53711 3.281311-4.358886 4.923828-10.553955 4.923828-18.585937 0-8.031861-1.642517-14.216553-4.923828-18.550781-3.281372-4.334351-7.981568-6.5-14.103516-6.5-6.121887 0-10.836731 2.165649-14.142578 6.5-3.305817 4.334228-4.958984 10.51892-4.958984 18.550781 0 8.031982 1.653167 14.227051 4.958984 18.585937 3.305847 4.358765 8.020691 6.53711 14.142578 6.53711zm129.808594-33.279297h32.542969c-.342835-5.53418-2.019288-9.732666-5.03125-12.597656-3.011963-2.865113-6.746399-4.296875-11.203125-4.296875-4.848511 0-8.608155 1.518188-11.277344 4.554687-2.66919 3.036499-4.345642 7.148438-5.03125 12.339844z" fill="#fff"/></g></svg>