<svg height="1495" viewBox="0 0 2083 1495" width="2083" xmlns="http://www.w3.org/2000/svg"><g fill-rule="evenodd"><path d="m1017.52655 151.117798c450.690247 0 816.054627 365.362366 816.054627 816.055115 0 168.679626-51.193238 325.407775-138.871826 455.4953h-1354.363984c-87.686523-130.087525-138.87181-286.815674-138.87181-455.4953 0-450.692749 365.360244-816.055115 816.052993-816.055115z" fill="#ffefd6"/><path d="m1714.110352 630.341064h83.479248c152.307129 0 254.439453 124.615235 226.961425 276.918152l-85.952758 476.494568c-1.142334 6.314942-7.239502 11.49585-13.566895 11.49585h-530.843994c-6.327271 0-10.567261-5.180908-9.425049-11.49585l101.015015-559.970032c19.195556-106.396911 121.936035-193.442688 228.333008-193.442688z" fill="#7d4d62"/><path d="m1705.367188 630.341064h.008422c152.306763 0 254.439209 124.615235 226.96106 276.918152l-85.944458 476.494568c-1.150635 6.314942-7.247803 11.49585-13.566895 11.49585h-530.860229c-6.310791 0-10.559326-5.180908-9.408569-11.49585l85.944213-476.494568c27.47876-152.302917 174.567749-276.918152 326.866456-276.918152z" fill="#96657a"/><path d="m1651.4375 1353.284058c45.088135 0 87.973755-19.433716 117.695923-53.338257 29.72168-33.896485 43.370727-78.963867 37.470459-123.661621l-21.833008-251.707093c-3.812988-43.896728-29.064453-83.07666-67.463867-104.671508-38.407471-21.595398-84.999268-22.823548-124.491455-3.278748l-74.703369 32.088196-132.183106 4.593445-60.906128-22.987915c-85.295532-32.174439-181.62622-6.372254-239.402221 64.152526l-183.567322 246.177063c-31.270813 41.936768-35.124634 98.282349-9.877442 144.085816 25.251953 45.798706 74.962159 72.61145 127.108887 68.548096z" fill="#e68572"/><path d="m1682.465942 865.589417-66.979248-86.749939c-15.316894-19.828309-37.561035-29.88617-62.574463-28.275635l-197.148681 12.687439c-27.363404 1.758667-50.256836 13.493042-67.685791 34.6604l-100.990113 122.712647 328.764771 43.149047z" fill="#e68572"/><path d="m1292.367432 595.27002h199.309692l46.222046 175.787719-128.369995 54.147705-67.751343-42.01062z" fill="#ffceae"/><path d="m1292.367432 595.27002h124.779297c26.50061 23.932861 43.313232 59.603881 43.313232 99.453308 0 52.290893-28.941162 97.391235-70.726318 118.209594l-47.955811-29.738098z" fill="#f9aa89"/><path d="m1256.424927 431.536743h252.475952l-23.386475 201.236572c-8.069458 69.432068-71.473755 126.237854-140.901733 126.237854-69.435913 0-119.626953-56.805786-111.565918-126.237854z" fill="#ffceae"/><path d="m42.290886 1353.284058h1998.751961c23.074341 0 41.957153 18.887573 41.957153 41.957641v.007935c0 23.069946-18.882812 41.949096-41.957153 41.949096h-1998.751961c-23.078388 0-41.957558-18.87915-41.957558-41.949096v-.007935c0-23.070068 18.87917-41.957641 41.957558-41.957641z" fill="#ffceae"/><path d="m1321.76062 697.028381h-4.609863c-21.324097 0-38.703369-17.383484-38.703369-38.699035v-12.481934h82.016479v12.481934c0 21.315551-17.387817 38.699035-38.703247 38.699035z" fill="#fff"/><path d="m1193.488892 1008.355774v118.452087l-26.730713 3.336426c-23.394654 2.920899-44.069092 16.635742-55.852783 37.047608-11.783692 20.424072-13.328492 45.174438-4.158082 66.896728l-42.737793-58.005615c-25.430297-34.516724-28.006469-80.821045-6.565551-117.967285 21.438843-37.1297 62.829223-58.051026 105.444092-53.284668z" fill="#ffceae"/><path d="m1384.573486 1059.265991c46.534058-37.988403 100.464356-57.093567 155.125489-54.944458l-1.799805 159.040894-54.324341 36.464233c-50.831909 34.122315-110.924683 34.122315-161.756592 0 0-73.338989 25.966187-110.686767 62.755249-140.560669z" fill="#ffceae"/><path d="m1244.739868 532.157104-20.362182-117.997924c-6.319336-36.618164 10.863159-73.296021 43.05017-91.871094 32.179078-18.581299 72.525757-15.12793 101.080811 8.65271l118.501099 24.025391c14.338989 2.90686 25.539184 14.111084 28.447998 28.445922l11.783691 7.186036c18.316284 11.175781 24.635376 34.76538 14.355469 53.603149l-34.380737 210.154785-24.504151-5.916321c-16.927368-4.088073-30.157104-17.309875-34.249634-34.249817l3.492554-76.473754-54.15979-1.150269 2.440186-66.087769-29.688843 6.896485c-39.295166 9.127197-80.142945 9.230224-119.478882.297912z" fill="#f7ba00"/><path d="m1470.813477 499.620911c22.334716 3.771728 36.287475 31.38977 31.167968 61.691162-5.119262 30.300964-27.363403 51.80957-49.689453 48.03833-22.334595-3.768006-36.287475-31.386048-31.168213-61.695435 5.119507-30.301391 27.363526-51.805908 49.689698-48.034057z" fill="#ffceae"/><path d="m388.584717 1016.72113h339.578674c28.144348 0 57.097778 23.024964 64.353577 51.1651l60.327148 234.229004c7.243653 28.152222-9.848266 51.168824-37.97998 51.168824h-339.591278c-28.131714 0-57.093537-23.016602-64.345154-51.168824l-60.331421-234.229004c-7.243134-28.140136 9.844513-51.1651 37.988434-51.1651z" fill="#4d4441"/><path d="m822.682495 1185.010742 30.161621 117.104492c7.243653 28.152222-9.848266 51.168824-37.97998 51.168824h-339.591278c-28.131714 0-57.093537-23.016602-64.345154-51.168824l-30.161743-117.104492z" fill="#332d2a"/><path d="m380.765961 1185.010742h441.916534l-35.597107 96.803589c-14.45813 39.307373-58.441101 71.469727-97.75647 71.469727h-298.969146c-39.307434 0-59.644806-32.162354-45.190827-71.469727z" fill="#7d6f6a"/><path d="m589.177979 621.129761c-199.364258 0-360.980439-130.422974-360.980439-291.308594s161.616181-291.310547 360.980439-291.310547c199.364318 0 360.982421 130.424927 360.982421 291.310547 0 56.917358-20.228942 110.020508-55.199218 154.886719l163.240234 128.34375-199.716797-89.246094c-66.10553 59.724304-162.264953 97.324219-269.30664 97.324219z" fill="#914da3"/><path d="m1120.805908 580.740234h536.170899v-159.538574h-536.170899z"/><path d="m283.805908 310.740234h536.170838v-159.538574h-536.170838z"/><path d="m331.805908 500.740234h536.170838v-159.538574h-536.170838z"/></g></svg>