<svg height="160" viewBox="0 0 160 160" width="160" xmlns="http://www.w3.org/2000/svg"><g fill-rule="evenodd"><path d="m64.561554 75.140198 21.306198 20.314697c27.388146-22.604591 62.229187-42.2929 64.132248-86.210144-44.515442 3.287933-64.260956 37.614548-85.438446 65.895454z" fill="#53d153"/><path d="m66.358696 72.630646-18.090031 6.178207c3.912514-11.422439 10.103821-26.188454 18.458821-31.233093 5.489524-3.314514 18.59481-.845146 18.59481-.845146z" fill="#56ff56"/><path d="m88.804527 92.767319-5.688163 18.002945c11.467933-4.218644 26.256202-10.787751 31.107421-19.173149 3.187401-5.509484.258736-18.327904.258736-18.327904z" fill="#56ff56"/><path d="m120.724907 59.228348c-5.442932 5.375267-14.464966 5.561783-20.151283.416588-5.686318-5.145188-5.883622-13.673699-.440697-19.048958 5.442924-5.375267 14.464966-5.561783 20.151291-.416588 5.68631 5.145187 5.883613 13.673698.440689 19.048958z" fill="#1eb100"/><path d="m10.232249 153.076935c-.26233-.019348-.239077-.674408-.223978-2.083908.013232-1.229096.095121-2.166443.181863-2.082962.197989.189163 1.587897-2.824372 1.467341-3.181-.048518-.142838.058034-.285324.23642-.316681.178385-.03186.783202-.477188 1.344822-.988708.561621-.511521 2.058819-1.614243 3.327121-2.451493 4.626261-3.051773 7.462726-6.615967 8.211553-10.317749.411169-2.031143 1.572707-8.707794 1.712376-9.839889.103405-.841126-2.221079-.937722-4.244087-.177201-2.314112.870079-5.6642 4.18084-6.883004 6.802155-1.297216 2.790207-1.368835 2.567459-.487199-1.515564 2.059275-9.53653 3.068418-10.909775 12.45277-16.937058 2.748314-1.765251 5.515659-3.764541 6.149811-4.443038l1.153389-1.234696-3.45921.197929c-4.142072.236474-8.705669 1.580529-11.71862 3.453392-2.751743 1.710221-2.813003 1.514374-.55133-1.752151 5.02371-7.255417 13.037862-12.791733 21.787082-15.049187 3.504002-.904335 8.704201-.967437 12.024918-.146095 2.766937.684753 3.242222 1.278999 1.02417 1.278999-3.357472 0-8.779328 2.034859-11.426686 4.28846l-1.493183 1.271454 3.530041.027336c5.692162.044403 11.126514 2.517998 7.291714 3.319557-5.150639 1.076126-10.103581 3.904114-15.200802 8.680588-3.705422 3.472565-4.002266 3.914505-2.149803 3.201736 2.56356-.986373 7.837303-1.169487 7.837303-.272384 0 .202682-.960304 1.503815-2.133534 2.889755-3.112922 3.676697-4.673511 7.058899-5.178283 11.225403-.226902 1.873337-.579563 3.802536-.783921 4.287521l-.371383.881256 1.216564-.852981c.669434-.469559 2.271782-1.811905 3.560669-2.982132 9.277519-8.422768 15.48719-8.040444 12.33408.758728-.75177 2.098205-.638531 2.144058 1.28548.522156 2.15239-1.81398 3.238915-3.74553 4.878689-8.673996 3.104595-9.332901 4.745834-9.598725 5.983265-.967972l.457527 3.192306.754246-.918006c2.698822-3.281952 5.917297-15.46476 4.627914-17.519539-.126922-.201714-.02832-.242463.220154-.091423 1.56234.951149 3.131081 6.507804 3.123238 11.064231-.01323 7.774659-3.720597 15.430848-11.885167 24.542237-3.728946 4.161178-4.321537 4.463836-2.752819 1.404358 2.166108-4.225861 3.007992-9.011215 2.228291-12.659912-.442535-2.069748-.678864-1.840401-2.731762 2.649414-4.318989 9.445327-7.258549 12.501266-15.596115 16.214142-4.8512 2.160476-5.097206 2.063354-2.471409-.98021 5.1227-5.936081 7.090088-10.458954 5.646339-12.979431-.094581-.165024-.692417.475464-1.329505 1.422272-3.20604 4.7668-12.513482 9.930618-21.828244 12.111358-5.139854 1.203522-7.537019 2.298584-9.587963 4.378937-.875924.888992-1.329675 1.366776-1.561143 1.349686z" fill="#ff4b00"/><path d="m47.913284 117.577408 13.874008-9.984917 4.900704-6.755974 9.801414-2.412841-14.702118-13.994523-3.920562 9.651391-1.960285 8.203681-7.351059 6.755974-7.351059 11.099098z" fill="#ffb100"/></g><path d="m104.531685 56.992332s-.997643-4.725967-.472824-5.107894c.524864-.382271 3.76802 3.115898 3.76802 3.115898l-3.295158 1.992035z"/><path d="m116.904816 57.611275c0 2.075256-3.025688 3.757583-6.758072 3.757583-3.732376 0-6.758064-1.682327-6.758064-3.757583 0-2.075249 3.025688-3.757576 6.758064-3.757576 3.732384 0 6.758072 1.682327 6.758072 3.757576z"/><path d="m115.99865 56.992332s.997642-4.725967.472816-5.107894c-.524818-.381936-3.767975 3.115898-3.767975 3.115898l3.295159 1.992035z"/><path d="m104.90239 56.848686s2.392463-1.899299 4.432151.011872c-2.119537 1.070167-4.432151-.011826-4.432151-.011826z" fill="#fff200"/><path d="m107.299095 56.027786s-.634315.474968.083199 1.312508c.495514-.644928-.030205-1.316185-.030205-1.316185"/><path d="m110.483124 56.83136s2.39238-1.8993 4.432152.011879c-2.119965 1.070579-4.432152-.011833-4.432152-.011833z" fill="#fff200"/><path d="m112.879837 56.010468s-.634361.47496.083191 1.312507c.495476-.644935-.030205-1.316185-.030205-1.316185"/><path d="m113.525566 58.936203c.358002-.179596.713135-.341881 1.074356-.500183.360535-.157417.724121-.307236 1.090874-.449066.73352-.283196 1.479561-.535965 2.240364-.739357.76046-.201691 1.537224-.358269 2.325142-.407532.393448-.023575.789894-.019142 1.180336.034225.389366.053483.775009.157586 1.119408.340859-.355599-.161049-.741837-.23896-1.127388-.267433-.386536-.028183-.774788-.007942-1.15841.039375-.768013.096878-1.518776.298195-2.251472.542984-.732872.246483-1.448921.540741-2.150345.863945-.35067.16182-.697647.331238-1.04055.507622-.341789.176262-.684258.360176-1.010681.550804l-.290047-.516281z"/><path d="m113.613091 58.93705c.714553-.130379 1.424766-.232796 2.140953-.317543.715408-.083489 1.433563-.146179 2.153946-.174278.719833-.026276 1.443778-.023072 2.161071.065612.357796.045967.715111.113312 1.056557.232369.170158.060081.336418.133591.488647.229873.151764.09591.289917.216485.388253.364441-.10756-.141616-.250954-.251381-.405457-.336212-.154976-.085136-.321922-.146942-.491951-.195442-.341102-.095955-.695122-.140442-1.048965-.163971-.709137-.043816-1.421845-.00338-2.129448.066078-.707985.071228-1.412537.17656-2.112976.302208-.699318.126488-1.399369.272042-2.083969.440995l-.116272-.513749z"/><path d="m113.662865 58.971268c.366241-.002068.723045.0112 1.082939.031395.358948.020744.717125.050483 1.07418.089737.713913.079002 1.424386.194595 2.121689.367477.695755.174324 1.382981.403603 2.014633.744934.314713.171112.614411.371796.878067.612228.263398.239724.488907.521775.643883.838051-.171875-.307785-.409836-.574157-.681251-.796226-.271767-.222649-.575753-.403687-.892784-.555107-.636078-.301697-1.320939-.491059-2.01223-.626297-.692711-.133843-1.396157-.210907-2.100876-.251801-.352425-.020241-.705368-.031013-1.058098-.032959-.351784-.001472-.70739.004143-1.052902.024216l-.017594-.445305z"/><path d="m106.837433 59.452484c-.326386-.190628-.6689-.374496-1.010689-.550796-.342903-.176392-.689873-.34581-1.040543-.507622-.701469-.323204-1.41748-.61747-2.150344-.863953-.732659-.244781-1.483422-.446098-2.25148-.542976-.38366-.047363-.771874-.067558-1.15841-.039375-.385543.028472-.771782.106376-1.127388.267433.344407-.183235.730042-.287377 1.119408-.340866.390442-.05336.786888-.057801 1.180336-.034218.787918.049301 1.564774.205871 2.325142.407532.760719.20343 1.506851.456161 2.240364.739357.36676.14183.730293.291641 1.090874.449058.361221.158356.716354.320587 1.074363.500191l-.291336.516281z"/><path d="m106.924957 59.451218c-.684601-.168908-1.384643-.314461-2.083969-.440995-.700432-.125648-1.404991-.230972-2.112976-.302208-.707596-.069458-1.420303-.109886-2.129448-.066078-.353882.023575-.707855.06807-1.048958.163971-.170036.0485-.336937.110314-.491958.195442-.154541.084839-.29789.194603-.405457.33622.098343-.147957.236458-.268539.388252-.364441.15223-.096283.318489-.1698.488656-.229873.341445-.119057.69876-.186402 1.056549-.232376.717254-.088677 1.441207-.091843 2.161117-.065606.720383.028092 1.438538.09079 2.153946.174271.716187.084755 1.426399.187164 2.140953.317543l-.116707.513329z"/><path d="m106.974731 59.417c-.34552-.020111-.701118-.025688-1.052902-.024208-.35273.001938-.705673.012756-1.058098.032951-.704727.040894-1.40821.117958-2.100875.251801-.691338.135238-1.37616.324646-2.012276.626304-.317032.151413-.621018.332451-.892784.555107-.271416.222062-.509377.488442-.681252.796219.155014-.316276.380486-.598327.643883-.838051.263657-.240432.563354-.441116.878021-.612228.631699-.341324 1.318924-.57061 2.014679-.744934.697304-.172882 1.407822-.288475 2.121681-.367477.357064-.039254.715241-.068993 1.074189-.089737.359939-.020241.716697-.033463 1.082939-.031388l-.017159.445297z"/></svg>