<svg height="300" viewBox="0 0 300 300" width="300" xmlns="http://www.w3.org/2000/svg"><path d="m150.010117 53c-5.025757 0-10.061371.640717-14.881226 1.377472-.766373 12.355865-2.706284 24.415695-12.951187 28.659302-10.267929 4.252807-19.912903-3.081238-29.209892-11.298737-8.128701 5.933548-15.554841 13.095245-21.494309 21.21933 8.249733 9.323303 15.840996 18.909729 11.574364 29.2099-4.262024 10.289627-16.523148 12.190735-28.934918 12.951828-.75452 4.874466-1.102508 9.794296-1.102508 14.880569 0 5.151398.330227 10.221894 1.102508 15.155548 12.41177.759781 24.672238 2.111603 28.934918 12.401246 4.266632 10.300811-3.323967 20.437835-11.574364 29.76181 5.910523 8.06224 13.4235 15.042389 21.494309 20.943039 9.267387-8.18132 18.978141-15.26146 29.209892-11.022446 10.288971 4.262024 12.190735 16.247528 12.951187 28.659287 4.819855.73677 9.855469 1.101852 14.881226 1.101852 5.025085 0 9.785751-.366409 14.604934-1.101852.759796-12.411759 2.662216-24.397934 12.951187-28.659287 10.231751-4.238342 19.943161 2.841126 29.209885 11.022446 8.070145-5.90065 15.583771-12.880799 21.494309-20.943039-8.249741-9.323975-15.840989-19.460327-11.574372-29.76181 4.262024-10.289643 16.798126-11.640152 29.209885-12.401246.772949-4.934311 1.102508-10.004806 1.102508-15.155548 0-5.085601-.349304-10.005447-1.102508-14.880569-12.411759-.759781-24.948517-2.662857-29.209885-12.951828-4.266617-10.300827 3.323975-19.887253 11.574372-29.2099-5.939469-8.123428-13.365616-15.285782-21.494309-21.21933-9.296326 8.217499-18.942612 15.551544-29.209885 11.298737-10.244903-4.243607-12.184814-16.303437-12.951187-28.659302-4.819854-.737412-9.579849-1.377472-14.604934-1.377472zm0 65.309799c17.525665 0 31.689865 14.1642 31.689865 31.689865 0 17.525681-14.1642 31.689225-31.689865 31.689225-17.525681 0-31.966164-14.163544-31.966164-31.689225 0-17.525665 14.440483-31.689865 31.966164-31.689865z" fill="#999"/></svg>