<svg height="50" viewBox="0 0 50 50" width="50" xmlns="http://www.w3.org/2000/svg"><path d="m21.288424 1.88184c-1.104599.390663-2.139712.913402-3.108639 1.568748-.260187.175881-.507004.361466-.741522.555981l2.909904 1.283806z" fill="#6a2381"/><path d="m26.332682 5.009853-.302912-3.994049c-.530913.022084-1.068724.06707-1.613934.135582-.430998.054169-.853016.124558-1.266311.211121z" fill="#812374"/><path d="m26.332682 5.009853-3.183157-3.647346c-.641217.134125-1.261456.307281-1.861101.519333l-.940257 3.408535z" fill="#2f8222"/><path d="m36.69976 4.112743c-.051315-.035148-.102802-.070167-.15464-.10485-1.587814-1.062901-3.416141-1.888173-5.425684-2.43623l-.602319 6.734333z" fill="#1e7506"/><path d="m30.517117 8.305996.602319-6.734333c-.029098-.007965-.05812-.015999-.087227-.023792-.403513-.108132-.811361-.200096-1.223713-.276135l-3.475814 3.738117z" fill="#118c44"/><path d="m29.808496 1.271736c-1.219121-.225082-2.477815-.310108-3.778726-.255932l.302912 3.994049z" fill="#7a1e85"/><path d="m42.718327 16.121689c.086551-1.06303.045696-2.099919-.135071-3.10524-.148266-.895443-.383-1.75008-.701561-2.565472l-.494232 2.740841z" fill="#2fc905"/><path d="m40.569637 7.962315c-.01268-.018643-.02502-.037365-.037712-.055916-.706409-1.031872-1.538528-1.951744-2.497547-2.771736l.197197 3.428451z" fill="#0d8d1d"/><path d="m38.231575 8.563114-.197197-3.428451c-.420444-.359547-.865143-.699902-1.334618-1.02192l-6.182643 4.193253z" fill="#069600"/><path d="m38.231575 8.563114-7.714458-.257118 1.729858 2.431168z" fill="#009c40"/><path d="m17.438263 4.006569c-.73489.60952-1.344149 1.309975-1.82911 2.098896l4.739014-.81509z" fill="#7f3771"/><path d="m20.348167 5.290375-4.739014.81509c-.333541.54258-.608195 1.127029-.824839 1.752335l.53781 2.996215z" fill="#82488b"/><path d="m15.322124 10.854015 5.961104.21043-.935061-5.77407z" fill="#009608"/><path d="m26.332682 5.009853 1.523636 6.162812c.053453.010639.107494.022091.161712.034088l2.499087-2.900757z" fill="#299400"/><path d="m21.283228 11.064445 5.049454-6.054592-5.984515.280522z" fill="#178a17"/><path d="m21.283228 11.064445 4.078772.172944c.002639-.000977.005361-.00195.008087-.002938.694753-.234512 1.522794-.253883 2.486231-.061786l-1.523636-6.162812z" fill="#00945c"/><path d="m14.784314 7.8578c-.076814.221752-.146772.44836-.208991.680374-.168509.629593-.216391 1.241535-.143368 1.842331l.890169.47351z" fill="#69246c"/><path d="m14.431955 10.380505c.034007.279331.093959.55624.180477.831314l.709692-.357804z" fill="#6c2256"/><path d="m38.348427 10.760559-.116852-2.197445-5.9846 2.17405z" fill="#319d00"/><path d="m38.348427 10.760559 2.645904-2.128937c-.134048-.226471-.27576-.449596-.424694-.669307l-2.338062.600799z" fill="#319100"/><path d="m41.387463 13.191818.494232-2.740841c-.24606-.629566-.541985-1.235798-.887364-1.819355l-2.645904 2.128937z" fill="#539100"/><path d="m30.517117 8.305996-2.499087 2.900757c.10519.023197.21192.048763.320271.076809l3.908674-.546398z" fill="#659f00"/><path d="m22.806877 12.745201c.917393-.709011 1.752709-1.223503 2.555123-1.507812l-4.078772-.172944z" fill="#42a200"/><path d="m14.612432 11.211819c.042305.134601.091065.268772.146006.402523l.563686-.760327z" fill="#77255c"/><path d="m14.758438 11.614342c.061705.150219.131114.300014.208687.449386.255636.466576.556333.864888.905281 1.19431l-.550282-2.404023z" fill="#7b5088"/><path d="m15.322124 10.854015.550282 2.404023c.4921.464485 1.080301.791736 1.774797.977912.304648.081574.596192.140339.874299.176049l2.761726-3.347554z" fill="#a549aa"/><path d="m41.387463 13.191818-3.039036-2.431259-1.285752 9.163757z" fill="#009a1f"/><path d="m37.062675 19.924316 1.285752-9.163757-6.101452-.023395z" fill="#09a300"/><path d="m32.246975 10.737164-.696457 3.211833c.356445.820847.436104 1.642071.217041 2.459172-.232271.866035-.615692 1.566536-1.150772 2.101747l6.445888 1.4144z" fill="#8da900"/><path d="m28.338301 11.283562c.026468.006809.052858.01366.079576.020771 1.304482.349251 2.251417 1.024173 2.829655 2.05566.11668.196224.21771.392616.302986.589004l.696457-3.211833z" fill="#a69600"/><path d="m21.424809 13.692734c.439849-.25861.900634-.57275 1.377681-.944123.001448-.001148.00293-.002262.004387-.00341l-1.523649-1.680756z" fill="#5b00af"/><path d="m18.521502 14.411999c.682107.087581 1.283067.03532 1.7968-.167668.350176-.140434.72028-.324649 1.106507-.551597l-.141581-2.628289z" fill="#751bb9"/><path d="m37.062675 19.924316 4.826252.105963c.120179-.365928.232602-.743946.337117-1.134348.25201-.941482.418487-1.867313.492283-2.774242l-1.330864-2.929871z" fill="#009304"/><path d="m39.073147 23.010115 2.090984-1.121794c.266987-.579775.50853-1.19916.724796-1.858042l-4.826252-.105963z" fill="#93008a"/><path d="m37.062675 19.924316-6.445888-1.4144c-.008266.008297-.016773.016558-.025114.024769l2.239756 2.932549z" fill="#ad6a00"/><path d="m24.922577 19.703114c-.719175-.036211-1.302349-.039019-1.739395-.013062-.177923.010551-.353115.034853-.525423.072727l1.570961 2.756377z" fill="#c49200"/><path d="m29.001642 19.489878c-.83152.281074-1.834455.375969-3.010166.284221-.384018-.030937-.740631-.05447-1.068899-.070985l-.693857 2.816042z" fill="#bb00bc"/><path d="m21.28544 20.439957c-.492227.428957-.849136 1.138771-1.097362 2.06413l-.158133.590319.809136.266314z" fill="#2bdb51"/><path d="m24.22872 22.519156-1.570961-2.756377c-.44359.097578-.867144.288014-1.262818.587982-.037241.028258-.07366.058047-.109501.089196l-.446359 2.920763z" fill="#d09247"/><path d="m32.831429 21.467234-2.239756-2.932549c-.432438.424574-.96234.742968-1.590031.955193l-4.772922 3.029278z" fill="#b900b7"/><path d="m39.906116 24.07037c.469128-.651987.888123-1.379122 1.258015-2.182049l-2.090984 1.121794z" fill="#8c0f80"/><path d="m39.073147 23.010115-2.010472-3.085799-4.231246 1.542918z" fill="#a56400"/><path d="m24.789808 29.392044 8.041621-7.92481-8.602709 1.051922z" fill="#a300cd"/><path d="m20.029945 23.094406-.453592 1.692936 1.262728-1.426622z" fill="#9f7fa7"/><path d="m32.362217 28.472084c1.355293-.218981 2.604538-.615253 3.749523-1.1889l-3.280311-5.81595z" fill="#aa0087"/><path d="m24.789808 29.392044 3.387469.683859c.027059-.085617.053024-.172264.076673-.260691l.314657-1.17486c1.346352.079237 2.610331.022806 3.79361-.168268l.469212-7.00485z" fill="#c800c4"/><path d="m32.831429 21.467234 3.280311 5.81595c.018044-.0091.036007-.018295.054043-.027574l2.907364-4.245495z" fill="#a40092"/><path d="m19.576353 24.787342-.675564 2.521629c-.181158.677054-.24444 1.331555-.191414 1.954729l2.129706-5.90298z" fill="#85187c"/><path d="m20.839081 23.36072 3.950727 6.031324-.561088-6.872888z" fill="#d368d7"/><path d="m36.165783 27.25561c.35321-.179152.696796-.374739 1.03009-.587857 1.040985-.665645 1.942715-1.53087 2.710243-2.597383l-.832969-1.060255z" fill="#975f00"/><path d="m20.839081 23.36072-2.129706 5.90298c.0017.01949.002938.039063.004855.05847l6.075578.069874z" fill="#1eb100"/><path d="m18.71423 29.32217c.002595.027064.005994.053959.009063.080853l.989487 2.300527c.098135.119748.203119.23601.315119.349039.372997.352349.795784.642487 1.269676.870243l3.492233-3.530788z" fill="#60d838"/><path d="m25.538946 33.10276c.537634-.22538 1.016724-.540703 1.423039-.960388.544874-.55347.956728-1.247284 1.215292-2.066469l-3.387469-.683859z" fill="#0b8308"/><path d="m21.297575 32.922832c.309418.148606.64045.270817.994341.365468.894972.240516 1.736368.253116 2.540954.05149.245118-.063667.480622-.142566.706076-.23703l-.749138-3.710716z" fill="#b84f9c"/><path d="m18.819937 29.960155c.179193.656704.473291 1.231713.892843 1.743395l-.989487-2.300527c.021571.188686.05332.37474.096644.557132z" fill="#ae7b91"/><path d="m21.079475 38.553036c-.084293-.027325-.169746-.052597-.256309-.075753l.015915.288868z" fill="#ad9ec0"/><path d="m20.823166 38.477283c-.000042-.00008-.000122-.00008-.000122-.00008-.174053-.04673-.348271-.083919-.522663-.11158l.5387.400528z" fill="#ad6f7c"/><path d="m20.300381 38.365623c-.742966-.118137-1.48964-.064346-2.242483.157197-.668704.196605-1.28652.492786-1.844201.900032l4.625384-.656701z" fill="#a84154"/><path d="m21.655754 38.779938c-.185879-.086987-.377972-.162731-.576279-.226902l-.240394.213115z" fill="#a8a0c3"/><path d="m20.839081 38.766151-4.625384.656701c-.215799.157547-.422917.331085-.620029.52275-.459044.453808-.819009.970429-1.081914 1.54509l2.096082 3.236649z" fill="#a83e53"/><path d="m16.607836 44.727341 3.763742-.116944.467503-5.844246z" fill="#a86640"/><path d="m24.584518 45.121487c.24376-.926335.229292-1.856758-.041526-2.777825-.247374-.943271-.681778-1.744755-1.349257-2.444782-.456016-.47858-.968038-.852127-1.537981-1.118942l-.816673-.013787z" fill="#ad6c82"/><path d="m20.371578 44.610397 3.938212 1.306439c.1077-.248177.197452-.506062.2689-.772877.002004-.0075.003833-.015072.005828-.022472l-3.745437-6.355336z" fill="#4aa842"/><path d="m14.511754 41.490692c-.126862.277283-.231374.56794-.312958.871952-.174645.65279-.235627 1.31163-.177363 1.964764l2.586403.399933z" fill="#a73551"/><path d="m14.650101 46.344257c.260471.463513.586953.885655.970845 1.274357.081662.080853.164727.158303.249159.232777l.737731-3.12405z" fill="#a02b4e"/><path d="m14.021433 44.327408c.026894.30146.079107.601646.157406.899528.117159.398236.275674.76939.471262 1.117321l1.957735-1.616916z" fill="#a02c4f"/><path d="m16.607836 44.727341 2.524963 4.447765c.211325.00774.423334.002293.636282-.017017l.602497-4.547692z" fill="#a73852"/><path d="m23.128035 47.624916c.508403-.49509.904502-1.069244 1.181755-1.70808l-3.938212-1.306439-.602497 4.547692c.314482-.028431.631045-.086308.950506-.173889.411299-.108086.792506-.252518 1.148053-.436783l1.048978-.724118c.071577-.063831.142094-.129787.211417-.198383z" fill="#831e62"/><path d="m15.870105 47.851391c.632285.558151 1.342101.940376 2.132094 1.151626.375632.100766.75199.158043 1.1306.172089l-2.524963-4.447765z" fill="#a62f50"/><path d="m21.86764 48.547417c.376657-.195153.724456-.435162 1.048978-.724118z" fill="#a62a4f"/></svg>