<svg height="50" viewBox="0 0 50 50" width="50" xmlns="http://www.w3.org/2000/svg"><path d="m42.84684 20.004341 1.85815-3.28471-2.856956 2.636069z" fill="#b32423"/><path d="m41.473999 22.431435 1.372841-2.427094-.998806-.648641z" fill="#ae876d"/><path d="m49.152649 8.856956-2.82711.39695.779018 3.223629z" fill="#ac1c24"/><path d="m36.350582 31.488899 3.067688-5.423139-4.157825.370754z" fill="#77d0ca"/><path d="m39.375912 14.618279.706665-.269585-.645886.38623 2.411343 4.620776 2.856956-2.636069 1.544293-2.7299-7.666874-.892193z" fill="#c32424"/><path d="m46.249283 13.989731.855274-1.512196-.779018-3.223629-4.567482.641274-3.175648 3.202358z" fill="#c11e24"/><path d="m27.690838 38.887821 1.878012 1.62516-.838438-3.459026z" fill="#3d6fbf"/><path d="m29.56885 40.512981 1.125953.974293 1.833349-3.241081-3.79774-1.192238z" fill="#3f7bc7"/><path d="m35.260445 26.436514 4.157825-.370754 2.055729-3.634325.374035-3.075735z" fill="#a5c87b"/><path d="m41.758057 9.89518-2.363594.331966-.812054 2.870392z" fill="#c61e25"/><path d="m34.82291 17.494144.437535 8.94237 6.587589-7.080814-5.956867-2.500456z" fill="#c1c654"/><path d="m28.730412 37.053955 3.79774 1.192238.824631-1.457726-2.238699-4.793743z" fill="#4795d7"/><path d="m33.352783 36.788467 1.960335-3.465717-4.199034-1.328026z" fill="#4688cf"/><path d="m31.114084 31.994724 4.199034 1.328026 1.037464-1.833851-1.090137-5.052385z" fill="#4c9edc"/><path d="m41.848034 19.3557-2.411343-4.620776-3.545524 2.12032z" fill="#cd551e"/><path d="m38.582409 13.097538-3.797505 3.272366 4.591008-1.751625z" fill="#cd551e"/><path d="m34.742783 16.385979-7.555857.571605-.054979 2.332178z" fill="#d2e747"/><path d="m32.414402 18.934406-5.34964 3.199337-.062904 2.664881z" fill="#d2e747"/><path d="m25.872328 37.314201 1.81851 1.57362 1.039574-1.833866z" fill="#4486ce"/><path d="m31.114084 31.994724 4.146361-5.55821-8.258587-1.63789z" fill="#88d7d3"/><path d="m32.414402 18.934406-5.412544 5.864218 8.258587 1.63789-.437535-8.94237z" fill="#a9dc65"/><path d="m31.114084 31.994724-6.276542 4.42392 1.034786.895557 2.858084-.260246z" fill="#4999da"/><path d="m22.295534 26.294756.704443 8.533812 1.837565 1.590076 6.276542-4.42392z" fill="#54b8eb"/><path d="m39.394463 10.227146-6.478035.909462 5.665981 1.96093z" fill="#dd2824"/><path d="m34.784904 16.369904 3.797505-3.272366-5.665981-1.96093-2.409684.338413 4.256638 4.903031z" fill="#df4f1e"/><path d="m22.295534 26.294756 8.81855 5.699968-4.112226-7.1961z" fill="#7fd5e8"/><path d="m34.742783 16.385979.020599-.007927-4.256638-4.903031-1.963274.275658-1.356544 5.206905z" fill="#e77618"/><path d="m27.064762 22.133743-1.930902 1.154757 1.867998 1.510124z" fill="#d4ea64"/><path d="m22.414017 21.089737 4.71793-1.799975.054979-2.332178-5.275145 3.726056z" fill="#d4ea64"/><path d="m13.615328 31.874311 3.278511 1.938082 2.873093-1.78149 3.233045 2.797665-.704443-8.533812z" fill="#5cc3f0"/><path d="m12.546593 36.508064 4.347246-2.695671-3.278511-1.938082z" fill="#437ac6"/><path d="m18.74556 27.108715-2.441756 1.460308-2.628212 2.960503-.060264.344785 8.680206-5.579555z" fill="#9bddcb"/><path d="m27.186926 16.957584 1.356544-5.206905-1.986307.278843-2.482038 2.219135z" fill="#f27c15"/><path d="m25.13386 23.2885-2.924305 1.748756.085979 1.2575 4.706324-1.496132z" fill="#bae5a8"/><path d="m21.951567 21.266171.46245-.176434-.502236-.406097z" fill="#bae5a8"/><path d="m26.557163 12.029522-2.062612.289627-.419426 1.929508z" fill="#f36618"/><path d="m27.186926 16.957584-3.111801-2.708927-2.163344 6.434983z" fill="#eddd30"/><path d="m21.951567 21.266171-.039786-.582531-7.619776-.427256 3.461409 2.611509z" fill="#d2ea78"/><path d="m21.327723 25.564529.967811.730227-.085979-1.2575z" fill="#d2ea78"/><path d="m17.753414 22.867893-3.461409-2.611509-.011614 3.936651z" fill="#c6e9b1"/><path d="m18.74556 27.108715 3.549974-.813959-.967811-.730227z" fill="#c6e9b1"/><path d="m13.615328 31.874311-.530482.320673-1.442637 1.624955.029192-.770474-2.55863 1.546826-.099004 4.10242 3.532826-2.190647z" fill="#71b3c5"/><path d="m24.075125 14.248657-2.479965-1.522396-6.334633.889515-.968522 6.640608z" fill="#f9cf08"/><path d="m24.075125 14.248657-9.78312 6.007727 7.619776.427256z" fill="#f1ef1b"/><path d="m24.494551 12.319149-2.899391.407112 2.479965 1.522396z" fill="#f79310"/><path d="m11.972797 25.073414 2.307594-.880379.011614-3.936651-3.167295 6.092802.783113.444809z" fill="#c5e56e"/><path d="m11.731532 31.456957-2.529578-.560375-.089183 3.699709 2.55863-1.546826z" fill="#8ad596"/><path d="m13.084846 32.194984.530482-.320673-.205366-.045511z" fill="#8ad596"/><path d="m11.12471 26.349186.738003 1.63723.04511-1.192421z" fill="#9bda8d"/><path d="m13.532522 31.690754.082806.183557.060264-.344785z" fill="#9bda8d"/><path d="m11.862713 27.986416-.738003-1.63723-1.877462 2.672415-.045294 1.874981 2.529578.560375z" fill="#9ad97e"/><path d="m13.409962 31.8288.205366.045511-.082806-.183557z" fill="#9ad97e"/><path d="m14.292005 20.256384.968522-6.640608-6.564989.921711-.999932.736633z" fill="#facc09"/><path d="m7.695606 15.27412-2.804236 3.877697 4.496568 4.037506-.057514 2.385102 1.794286.774761z" fill="#ebd025"/><path d="m7.695606 15.27412 3.429104 11.075066 3.167295-6.092802z" fill="#f0e923"/><path d="m9.330424 25.574425-.083176 3.447176 1.877462-2.672415z" fill="#bfe256"/><path d="m8.695538 14.537487-1.145762.160896.14583.575737z" fill="#f9aa0c"/><path d="m6.587335 14.833504-5.625663.789917 3.929697 3.528396 2.804237-3.877697z" fill="#f79010"/><path d="m7.549776 14.698383-.962441.135121 1.108271.440616z" fill="#f7990f"/></svg>