<svg height="32" viewBox="0 0 32 32" width="32" xmlns="http://www.w3.org/2000/svg"><g fill-rule="evenodd"><path d="m13 7v13c0 1.536644-2.213634 4.46644-3.995362 5.383501-.74684.394468-2.176345.604273-3.004638.616499-1.340101 0-1.750193-.668941-2-1-.220286-.291935-1.040169-1.003513-1-2 .094937-2.35511 2.373808-4.855637 5-5 1.839499-.10112 2.419816 1.462715 3 2-.008265-.860611 0-18 0-18l1.442855.007883 15.557145 2.992117v5z"/><path d="m28 24c0 1.536644-2.213634 4.46644-3.995361 5.383501-.746842.394468-2.176346.604273-3.004639.616499-1.340101 0-1.750193-.668941-2-1-.220285-.291935-1.040169-1.003513-1-2 .094938-2.35511 2.37381-4.855637 5-5 1.839499-.10112 2.419817 1.462715 3 2-.008265-.860611 0-18 0-18h2z"/></g></svg>