<svg height="300" viewBox="0 0 300 300" width="300" xmlns="http://www.w3.org/2000/svg"><g stroke="#fff" stroke-opacity=".024055" stroke-width="15.97229"><g fill-rule="evenodd"><path d="m48 83 90 5 14-5 31 12 10 14 11 10v-45l-21-38-28-8h-5l-92 41z"/><path d="m202 163-6 24 59-65-2-22-10-15z"/><path d="m161 201-8 3-14 4 63 27 35-18 11-16z"/><path d="m100 182-15-13-1 62 40 27 22 4-25-52z"/><path d="m43 199-4-9 6-48 38-31 12-2-5 24z"/></g><g fill="#fff"><path d="m194.215027 110.65181c-7.336929-5.522415-15.344422-10.808152-23.864716-15.738877-8.559753-4.930725-17.119476-9.190857-25.560898-12.819885-14.00325-5.995758-27.612052-10.098129-40.076934-12.346527-27.059822-4.812393-48.636681-.552261-56.762516 13.490448 19.328449-33.410584 55.460804-55.894684 96.83945-55.894684 16.251679 0 30.728302 16.56723 40.076951 42.404236 4.299591 11.912628 7.534149 25.758102 9.348663 40.905289z"/><path d="m230.943314 140.171127c-8.165299 9.664231-18.539536 19.407349-30.728287 28.558777 1.104477-9.111984 1.696167-18.657867 1.696167-28.558777 0-9.900894-.59169-19.446777-1.696167-28.558761-1.814514-15.107743-5.049072-28.992676-9.348663-40.865845-9.348649-25.837006-23.825272-42.404236-40.076951-42.404236 41.378663 0 77.511017 22.4841 96.839463 55.894684 8.125854 14.082169.986145 34.909546-16.685562 55.934158z"/><path d="m263.618286 147.171127c0 20.354035-5.443512 39.445816-14.949951 55.934159-8.125839 14.082153-29.702698 18.302856-56.762528 13.490478-12.464874-2.208969-26.073684-6.350769-40.076934-12.346542 8.441391-3.589585 17.001144-7.889176 25.560882-12.819901s16.527802-10.216461 23.864716-15.738861c12.188751-9.151443 22.563003-18.855102 30.728271-28.558761 17.671738-21.024628 24.811417-41.852005 16.685593-55.89473 9.506439 16.488358 14.949951 35.580139 14.949951 55.934158z"/><path d="m243.628876 207.105286c-19.328446 33.410598-55.4608 55.894714-96.839463 55.894714-16.251663 0-30.728279-16.56723-40.076934-42.404236-4.299591-11.912628-7.534142-25.758118-9.348656-40.86586 7.336922 5.522415 15.344421 10.808151 23.864716 15.738877 8.559745 4.930725 17.119483 9.230316 25.560874 12.819885 14.003266 5.995758 27.612076 10.137573 40.076951 12.346527 27.059829 4.772949 48.636688.512817 56.762512-13.529907z"/><path d="m141.789413 261c-41.378646 0-77.511001-22.484116-96.83945-55.894714-8.125836-14.082154-.986145-34.870087 16.685577-55.894715 8.165279-9.664215 18.539532-19.407318 30.728283-28.558761-1.104485 9.111984-1.696167 18.657867-1.696167 28.558761 0 9.90091.591682 19.446793 1.696167 28.558777 1.814514 15.107742 5.049065 28.992661 9.348656 40.865845 9.388107 25.797577 23.825271 42.364807 40.076934 42.364807z"/><path d="m140.789413 87.093048c-8.441391 3.589569-17.001129 7.88916-25.560874 12.819885-8.559739 4.930725-16.527794 10.216462-23.864716 15.738877-12.188751 9.151443-22.563004 18.855102-30.728283 28.558761-17.671722 21.024628-24.811413 41.852021-16.685577 55.894715-9.50644-16.448899-14.949963-35.540665-14.949963-55.934159 0-20.393478 5.443523-39.4458 14.949963-55.934158 8.125835-14.082138 29.702694-18.302841 56.762516-13.490448 12.464882 2.248398 26.073677 6.350769 40.076934 12.346527z"/></g></g></svg>