<svg height="48" viewBox="0 0 48 48" width="48" xmlns="http://www.w3.org/2000/svg" xmlns:xlink="http://www.w3.org/1999/xlink"><linearGradient id="a" gradientUnits="userSpaceOnUse" x1="0" x2="0" y1="5.353" y2="42.619"><stop offset=".00001" stop-color="#fff" stop-opacity=".8"/><stop offset="1" stop-color="#fff" stop-opacity="0"/></linearGradient><path d="m23.745886 4.836617c-8.802496.237525-10.458577 6.734363-9.988601 11.621755.07298.759005.419647 1.45117.969359 2.065153.05164-.481786.12211-.955707.221266-1.422424-.03689.4142-.05268.838083-.05268 1.264378 0 3.935026 1.614259 7.411392 4.067087 9.461774-.163395.961945-.531106 1.78307-1.074723 2.781636l-9.187826 1.970323c-4.453872 1.030346-4.790854 7.372215-4.488548 10.58918 39.677341-.112591-.076665.066288 39.659374-.084293-.135986-3.516892-.632881-9.768234-5.162884-10.736687l-8.703148-1.654232c-.00066-.028101.002001-.056181 0-.084289l-.537361-2.960757c2.339085-2.069435 3.866898-5.456648 3.866894-9.282654 0-.038641.000313-.07736 0-.115902.037769.192803.075382.383427.105366.547898.498848-.67264.381843-1.824112.516289-2.728953.699546-4.708053-1.95152-11.093196-9.324799-11.231903-.298998-.005619-.601107-.00766-.885065 0z" fill="#fff" fill-rule="evenodd"/><path d="m23.78125 5.875c-4.145538.111862-6.347372 1.608994-7.625 3.59375-1.22166 1.897812-1.540263 4.384838-1.375 6.59375.315181-.04369.633133.05826.864128.277102.230994.218835.349978.530817.323372.847898-.03023.339413 0 .751966 0 1.1875 0 3.649433 1.474224 6.800987 3.65625 8.625.29833.239773.44211.623186.375 1-.192614 1.133951-.659641 2.066729-1.21875 3.09375-.141443.268269-.392227.462055-.6875.53125l-9.1875 2c-1.774521.410515-2.676663 1.807072-3.21875 3.71875-.44552 1.571136-.498436 3.30909-.4375 4.75 12.500668.014641 24.999191-.014019 37.5-.0625-.095261-1.572456-.287739-3.356236-.8125-4.9375-.644814-1.943016-1.616398-3.329422-3.4375-3.71875l-8.6875-1.65625c-.458981-.08914-.803288-.471699-.84375-.9375-.01111-.020479-.02153-.04133-.03125-.0625-.001101-.04656.000366-.015169 0-.03125l-.5-2.84375c-.06266-.360806.06768-.728136.34375-.96875 2.084913-1.844563 3.5-4.954264 3.5-8.5 0-.04422.00021-.09906 0-.125.001801-.375471.204521-.721233.53125-.90625.041241-.412683.045872-.904924.125-1.4375.311211-2.094498-.13789-4.613834-1.46875-6.5625s-3.487499-3.373775-6.875-3.4375c-.290932-.00547-.552896-.038254-.8125-.03125z" fill="none" opacity=".8" stroke="url(#a)" stroke-width="1.042"/><path d="m23.75 5.34375c-4.279827.115486-6.68992 1.711487-8.0625 3.84375s-1.665114 4.851738-1.4375 7.21875c.02159.224531.110797.443754.1875.65625.0042-.02047-.0043-.04208 0-.0625.03452-.276142.286358-.472017.5625-.4375.276142.034519.472018.286358.4375.5625-.03373.378689-.03125.819319-.03125 1.25 0 2.849562 1.177059-9.306561 2.59375-7.375 4.794222-2.620338 9.550179 9.517923 14.84375 7.46875.000217-.03134 0-.06234 0-.09375 0-.041281.000263-.09244 0-.125-.005402-.243706.166595-.455421.40625-.5.020672-.109173.080349-.158739.09375-.28125.05011-.457952.050499-.967354.125-1.46875.331463-2.230793-.141911-4.888699-1.5625-6.96875s-3.736652-3.620819-7.28125-3.6875c-.295168-.00555-.602606-.007351-.875 0z" fill-rule="evenodd" opacity=".077019"/></svg>