<svg height="300" viewBox="0 0 300 300" width="300" xmlns="http://www.w3.org/2000/svg"><path d="m254 256.763428-18.046127-67.347855c6.777603-13.508987 10.597381-28.757248 10.597381-44.900268 0-55.380768-44.895263-100.276047-100.276016-100.276047-55.380829 0-100.275238 44.895279-100.275238 100.276047 0 55.380813 44.894409 100.276092 100.275238 100.276092 13.028458 0 25.474716-2.485733 36.893585-7.006988z" fill="#fff"/><path d="m58.153954 144.515305c0 48.590255 39.531456 88.121292 88.121284 88.121292 11.199646 0 22.106949-2.070374 32.419525-6.153504l3.737396-1.479278s33.7081 9.03183 54.378571 14.57077c-5.310822-19.818237-13.793701-51.477463-13.793701-51.477463l2.073227-4.13182c6.175262-12.309845 9.306198-25.582734 9.306198-39.449997 0-48.590149-39.531479-88.121201-88.121216-88.121201-48.589828 0-88.121284 39.531052-88.121284 88.121201z" fill="#f1f1f1"/><g fill="#646464" fill-rule="evenodd"><path d="m114.835144 145.803665c0-7.399429-5.998421-13.397858-13.397858-13.397858s-13.397857 5.998429-13.397857 13.397858c0 7.399445 5.99842 13.397873 13.397857 13.397873s13.397858-5.998428 13.397858-13.397873z"/><path d="m158.054047 145.803665c0-7.399429-5.998429-13.397858-13.397858-13.397858-7.399445 0-13.397858 5.998429-13.397858 13.397858 0 7.399445 5.998413 13.397873 13.397858 13.397873 7.399429 0 13.397858-5.998428 13.397858-13.397873z"/><path d="m201.272949 145.803665c0-7.399429-5.998428-13.397858-13.397857-13.397858-7.399445 0-13.397873 5.998429-13.397873 13.397858 0 7.399445 5.998428 13.397873 13.397873 13.397873 7.399429 0 13.397857-5.998428 13.397857-13.397873z"/></g></svg>