<svg height="300" viewBox="0 0 300 300" width="300" xmlns="http://www.w3.org/2000/svg"><g fill="#0084bf"><path d="m149.812439 299.863831c.089493.035339.17691.074096.265015.109405h-2.506394c.672165.010071 1.342316.026764 2.017121.026764 2.079193 0 4.146362-.052704 6.204818-.136169z"/><path d="m69.346222 53.835464c3.845314-7.879196 1.780487-18.16362-4.857864-27.37181-1.661026 1.146362-3.30066 2.319213-4.912949 3.529388 4.590546 7.626495 5.83136 15.781647 2.841076 22.429764-7.128277 15.800049-29.39484 28.103241-49.058312 50.854736-3.472487 4.02182-6.811553 8.364121-9.966691 12.990341-.580351 2.526734-1.093657 5.077469-1.545173 7.652252 4.95129-7.872116 10.477945-15.025161 16.346072-21.309066 20.532808-21.950211 43.505274-33.162735 51.153841-48.775605z"/><path d="m68.165131 129.100403c27.211898-9.773132 55.339546.489593 71.131317-13.181259 17.654663-15.338135 22.132034-49.384644 7.382889-79.356858-6.011948-12.174743-14.977753-23.656616-26.247033-33.729095-.991195.195831-1.977752.402405-2.961578.617371 10.345146 9.129364 18.71862 19.463439 24.579704 30.445129 15.330536 28.802887 12.089981 62.005264-4.57016 77.112884-15.069252 13.618454-43.185279 4.774415-70.499557 14.944062-30.306004 11.332657-54.192233 46.871612-53.767985 86.587616.851359 1.853637 1.73375 3.687866 2.658172 5.500686-.047707-.804977-.09077-1.612625-.118112-2.414917-1.365-39.622574 22.149407-75.608383 52.412343-86.525619z"/><path d="m65.522621 122.950333c27.314278-10.675904 55.397896-3.267273 69.823708-16.86876 15.717666-14.874938 17.75412-47.21907 1.855545-74.82669-5.631439-9.767548-13.338783-18.948334-22.708428-27.124115-1.0102.241882-2.018097.49115-3.021331.75354 8.34745 7.213348 15.333213 15.241363 20.659324 23.782745 16.42482 26.398545 15.574478 57.867935.742905 72.508667-13.838089 13.623429-41.855942 7.671524-69.086842 18.925446-28.661655 11.891769-52.022209 44.022247-55.101956 81.476562.67447 1.841492 1.393364 3.659058 2.136257 5.464554 1.420021-38.672424 25.135041-72.508316 54.700818-84.091949z"/><path d="m61.768059 117.414322c27.067398-11.925064 54.975105-7.425308 68.283195-21.092865 13.98021-14.429443 13.701905-44.993012-3.224258-70.167038-4.9273-7.311951-11.14177-14.190613-18.423889-20.436707-1.041298.297242-2.077889.6073-3.109482.925995 6.17849 5.271332 11.560676 11.012421 15.997017 17.098999 17.392341 23.940293 18.765358 53.596207 5.576759 67.815003-12.799171 13.752289-40.559021 10.704605-67.399441 23.339248-26.398609 12.457657-48.469273 41.211121-54.325707 75.680146.517331 1.841507 1.072331 3.66835 1.657674 5.485916 4.568877-36.037918 27.367111-66.475357 54.968132-78.648697z"/><path d="m55.293194 51.439926c2.168651-5.272446 1.676735-11.363815-1.009178-17.285293-2.000111 1.647369-3.955101 3.348144-5.865742 5.095214 1.029205 4.001465.947117 7.993653-.422871 11.651032-5.496643 14.652435-23.071575 27.834045-39.578537 48.280762-1.050875 2.916168-2.011041 5.872772-2.882774 8.870315.950468-1.277862 1.915285-2.531692 2.889812-3.754455 18.747321-23.530121 40.259301-36.882981 46.86929-52.857575z"/><path d="m69.771416 135.84523c26.637497-9.285858 54.798553 3.613724 72.310997-10.289078 19.775924-15.770416 26.777069-51.436889 13.216018-83.662475-6.10939-14.469086-16.102127-28.192383-29.049476-40.091187-.967125.151245-1.934616.31015-2.897103.480347 12.141282 10.9953 21.648133 23.611175 27.738816 36.953613 14.163788 31.112259 8.414871 65.970795-10.272415 81.542893-16.603074 13.764312-44.736741 2.137619-71.731019 11.61708-29.747314 10.484955-52.564216 46.212174-50.750368 85.154572.094464 1.975021.254338 3.957413.466904 5.942505 1.032959 1.834198 2.104193 3.647125 3.212214 5.433273-.481253-3.093063-.827311-6.180832-1.01718-9.254532-2.314518-38.22818 19.677412-73.64302 48.772612-83.827011z"/><path d="m36.117058 103.246552c23.561146-18.539765 48.930488-25.010956 58.519691-39.850495 7.734749-11.99617 2.407257-32.094147-13.174263-47.075531-1.318596.672638-2.624817 1.36966-3.919349 2.080109 13.269668 13.58844 17.857887 31.002121 11.176475 42.059555-9.123672 15.031051-33.959061 22.742126-56.83366 42.158249-12.555555 10.675857-23.877544 24.96553-32.186562 41.719772-.069444 1.879593-.117152 3.761871-.117152 5.658127 0 .193237.006973.38446.006973.578064 8.846723-19.439148 21.901508-35.792313 36.527847-47.32785z"/><path d="m56.889824 112.563416c26.54776-13.402207 54.107078-11.790253 66.430931-25.646363 12.424393-14.037292 10.035767-42.772339-7.80043-65.46167-3.842598-4.877258-8.330345-9.499878-13.379509-13.797088-1.079582.359466-2.154244.733215-3.224182 1.117035 3.900016 3.322967 7.449333 6.847625 10.600776 10.54306 18.2314 21.438965 21.596787 49.241836 9.893624 63.113647-11.862984 13.981217-39.173981 13.790345-65.367001 27.993836-23.588489 12.83287-43.726174 38.216232-51.555307 69.066467.37278 1.860901.779933 3.707123 1.218117 5.543335 6.9501-32.727539 28.127708-59.794907 53.182981-72.472259z"/><path d="m43.978237 105.355423c24.770939-16.786606 51.066685-20.67131 61.573063-35.138153 9.739769-13.464996 3.780891-38.487228-15.407295-56.166519-.446526-.408905-.898102-.814362-1.353996-1.216828-1.203766.534302-2.400567 1.08194-3.587311 1.647248 17.901985 16.367462 23.871521 39.272522 15.050171 52.173797-10.04776 14.654343-35.905381 19.84903-60.099594 37.508698-16.609766 12.152038-31.297198 30.446792-40.418207 52.421951.083456 1.970383.207921 3.931473.367789 5.880112 9.149709-24.389755 25.367972-44.54744 43.87538-57.110306z"/><path d="m50.936607 108.5009c25.772805-15.049225 52.804543-16.231292 64.203965-30.368057 11.024665-13.712906 6.741485-40.599091-11.857033-60.777863-2.353478-2.549652-4.912605-5.003723-7.655876-7.354827-1.132058.435821-2.256752.886779-3.377129 1.349975 1.591927 1.377991 3.119461 2.790314 4.573868 4.24176 18.910866 18.926545 24.062775 44.878556 13.692535 58.45929-10.951874 14.295608-37.635772 16.849731-62.940719 32.756317-20.305884 12.799149-37.950871 34.740952-46.889315 61.419235.230268 1.898621.497922 3.785538.797634 5.664811 8.49657-28.832139 27.448185-52.512757 49.45207-65.390641z"/><path d="m70.554703 143.230194c25.381286-9.123657 53.832702 5.817993 73.442047-8.493301 22.017273-16.107102 31.498093-53.314087 19.140472-87.66063-5.988586-16.582367-16.752212-32.431854-31.117935-46.054626-.956497.111725-1.910644.231567-2.863785.361786 13.685181 12.774078 24.086441 27.580292 30.155793 43.130783 12.963668 33.300964 4.709671 69.759354-16.183594 85.703903-18.514679 14.096359-46.769173.064758-72.88105 9.23584-28.315266 9.993088-49.367392 45.04245-46.497883 82.513016.319055 4.096313.910068 8.215927 1.754459 12.333633 1.221466 1.796173 2.478968 3.563584 3.775885 5.302399-1.292212-5.056153-2.194964-10.131592-2.677237-15.17366-3.475219-36.673005 16.536969-71.30658 43.952828-81.199143z"/><path d="m96.888847 271.408813c-13.723571-19.936141-12.161384-44.454467 1.308892-54.738891 16.076103-12.216766 45.51004-14.616989 70.611694-35.204559 28.789474-23.649582 46.851273-68.030182 38.646057-113.427048-4.163071-22.871964-14.865356-45.554489-30.685806-65.582627-.923767-.168914-1.85289-.325439-2.784699-.47763 16.235016 20.163818 27.179566 43.127182 31.313889 66.277161 8.003647 45.008071-10.363175 89.078018-39.537125 111.822479-25.543548 19.864013-55.342888 20.699737-71.801117 32.479294-14.055343 10.102859-16.480934 35.337997-3.19786 56.410873 6.589286 10.437256 16.345726 20.033478 28.481079 27.960419 2.522026.517944 5.068107.971832 7.635589 1.363647-12.667671-7.434997-22.949783-16.67746-29.990593-26.883118z"/><path d="m73.881668 260.641754c-11.69347-24.504257-6.384033-51.901367 9.582283-61.593139 17.513832-10.582779 48.105141-6.563294 74.499016-24.500245 29.75264-20.253204 48.289047-63.425018 40.498306-107.048385-4.205734-23.403641-15.738357-46.587357-32.842377-66.653916-.921752-.098449-1.848907-.182617-2.77539-.264648 17.255539 19.873688 28.925674 42.923157 33.207519 66.217392 7.870194 43.082718-10.5027 85.936828-40.224655 105.483169-26.505981 17.392029-57.258522 11.729157-75.104439 21.97284-16.670799 9.620315-23.063179 37.726959-11.965431 63.365967 4.608238 10.625457 11.845948 20.859832 21.203652 30.050262 2.331123 1.009949 4.689651 1.963104 7.076873 2.85614-10.126617-8.996887-18.038116-19.19519-23.155357-29.885437z"/><path d="m84.88501 266.34259c-12.788483-22.22081-9.46283-48.177551 5.202949-58.113556 16.820023-11.363647 46.94207-10.592071 72.846382-29.773254 29.467576-21.870163 48.004654-65.636703 40.148499-110.222595-4.136978-23.331879-15.307159-46.47345-31.900574-66.687317-.929764-.13385-1.860214-.266235-2.795364-.383423 16.884399 20.183045 28.25415 43.39949 32.41719 66.817474 7.783402 44.124939-10.805084 87.59784-40.470916 108.629578-26.189316 18.536408-56.574067 16.145569-73.746476 27.106125-15.29882 9.801804-19.590683 36.477447-7.331214 59.840317 5.6175 10.678192 14.170181 20.754364 25.01831 29.469635 2.457626.77893 4.938912 1.497772 7.449326 2.149902-11.531289-8.362122-20.720375-18.240021-26.838112-28.832886z"/><path d="m109.867134 275.635864c-14.485443-17.676025-14.506851-40.809997-2.150535-51.497558 15.234046-13.133881 43.781875-18.559784 67.804275-40.647797 27.748215-25.531555 44.921616-70.552002 36.056915-116.604309-4.254486-22.005234-14.376739-43.799591-29.169922-63.282166-.942459-.210907-1.884307-.418426-2.834106-.610656 15.34053 19.803528 25.769135 42.098877 29.974258 64.591354 8.500245 45.742966-9.173767 90.43631-37.481979 115.022018-24.599747 21.325776-53.617516 25.257172-69.278099 37.931855-12.907555 10.478027-13.65181 34.297485.470589 53.100799 7.461357 9.914032 18.211326 18.732056 31.33287 25.615021 2.567749.255615 5.154236.444519 7.76004.568695-13.488327-6.288971-24.633773-14.633667-32.484306-24.187256z"/><path d="m74.744095 179.475677c18.910812-9.438766 49.821167.957764 76.046249-15.153991 28.943634-17.85289 46.075669-59.663834 37.580063-100.876602-4.650284-22.433426-16.546692-44.499466-33.854904-63.363938-.9245-.029724-1.853577-.049042-2.784073-.062011 17.186783 18.395111 29.089188 39.945892 33.906342 61.916442 8.833343 40.503601-7.654602 81.915329-36.098984 99.355408-25.876282 15.817841-56.741257 3.981171-76.077263 13.243378-20.010899 9.627624-31.211086 40.420807-22.819572 70.46112 2.701232 9.620301 7.235393 19.145173 13.341094 28.18274 1.998124 1.392334 4.032883 2.737304 6.101067 4.031585-6.921387-9.216491-12.110001-19.044372-15.256794-29.025756-9.105694-28.968415.827641-59.123505 19.916775-68.708375z"/><path d="m71.361969 160.184967c21.232697-8.96579 51.481232 6.049683 75.420822-9.123337 26.210388-16.666153 40.155899-56.556686 30.01825-94.677719-5.369095-20.099335-17.064545-39.613891-33.463044-56.252716-.939178.039093-1.87297.08548-2.806778.141205 15.992707 15.948639 27.528656 34.638183 33.077973 53.959473 10.652237 37.240051-2.266739 76.530929-27.524582 93.03453-22.978752 14.987107-52.817802-.559036-75.004303 8.40712-24.234955 9.83757-40.67152 42.951904-35.163864 76.995727 1.208481 7.430314 3.384109 14.884675 6.44479 22.21222 1.620628 1.654663 3.279335 3.273926 4.974041 4.855194-3.768902-7.902878-6.482163-15.999344-8.013054-24.091156-6.220467-33.090607 8.915817-65.654007 32.039749-75.460541z"/><path d="m78.358742 189.372925c18.178993-9.942658 49.042648-2.64856 75.564018-19.55098 29.585068-18.906143 47.664963-61.438232 39.647247-103.937271-4.380661-23.097931-16.156204-45.915192-33.501815-65.522156-.927765-.064087-1.853577-.128479-2.787354-.176208 17.368317 19.271606 29.226624 41.762787 33.730774 64.577652 8.233917 41.873962-9.440109 84.064316-38.765518 102.40213-26.435311 16.470627-57.345658 7.599823-75.876724 17.265503-18.229367 9.558243-26.927567 39.059219-17.135361 66.933624 3.623047 10.272415 9.497124 20.327927 17.246162 29.632462 2.17228 1.216095 4.376953 2.376892 6.613686 3.484893-8.560066-9.293243-15.111275-19.479553-19.219273-29.962188-10.456287-26.766419-2.943535-55.583893 14.484158-65.147461z"/><path d="m72.499031 169.647812c19.847328-9.107086 50.590149 4.005112 75.973824-11.576309 27.814956-17.117417 43.55661-58.070954 34.332824-97.822602-4.993408-21.428955-16.869079-42.382599-33.864959-60.248901-.938431.004089-1.874878.01474-2.807373.036438 16.736206 17.279846 28.544509 37.552032 33.728103 58.357178 9.65297 38.960769-5.228988 79.405334-32.295028 96.266998-24.742226 15.366928-55.287186 1.177506-75.752869 10.191391-22.034985 9.756439-35.856709 41.745743-28.911335 73.852554 1.886982 8.672486 5.170959 17.327607 9.689743 25.706421 1.810165 1.537873 3.658729 3.03302 5.543327 4.482788-5.29734-8.753296-9.18573-17.884338-11.462795-27.06279-7.670288-31.088852 4.829159-62.493545 25.826538-72.183166z"/><path d="m70.901085 151.341003c23.303146-9.01622 52.614265 6.704102 74.521431-8.065429 24.220596-16.377121 36.050201-55.004166 24.853378-91.322144-5.724945-18.476257-17.059982-36.276733-32.584106-51.492554-.943482.074097-1.882263.159546-2.820694.250611 14.977447 14.436889 26.052154 31.28894 31.917877 48.850097 11.773575 35.350724 1.087997 73.283982-22.044617 89.534302-20.763077 14.535568-49.563278-.986557-73.993774 8.094055-26.41528 9.856919-45.308457 44.017212-41.180096 79.855164.68684 5.911224 1.963333 11.857727 3.781902 17.766876 1.41504 1.734101 2.872109 3.434143 4.362252 5.103485-2.408551-6.66542-4.114964-13.408203-5.044106-20.118988-4.800434-34.958908 12.888909-68.605972 38.230553-78.455475z"/><path d="m27.476944 102.29364c22.140388-20.277466 46.40007-29.191284 55.041206-44.419617 5.693833-10.06015 1.915284-24.9552-9.091346-37.124633-1.461792.863464-2.912507 1.745788-4.340928 2.656646 8.791626 10.715912 11.712525 23.240418 6.966767 32.252915-8.156189 15.41864-31.787739 25.504913-53.148256 46.628677-8.181209 8.102524-15.753356 17.830277-22.140045 28.81659-.283037 2.240356-.510978 4.49504-.692517 6.763824 7.497031-13.940857 16.995527-26.030472 27.405119-35.574402z"/><path d="m255.95607 138.350586c-4.141693 32.933121-15.265106 57.857971-18.028412 77.571793-1.923691 13.888076 7.099243 26.142913 21.190933 26.245727 3.011597.018662 6.173432-.260361 9.450714-.829056 1.575959-2.051758 3.099823-4.143646 4.570862-6.274261-2.24469.394562-4.434692.642853-6.557892.730972-13.776672.568649-23.085922-11.186874-21.736938-25.099014 1.929657-19.809265 11.836944-45.209641 14.624329-78.295685 2.526367-30.119431-1.290284-65.102997-15.632264-99.094086-1.112671-.899414-2.238022-1.783508-3.37474-2.650573 16.219619 36.944992 19.550979 75.315124 15.493408 107.694183z"/><path d="m248.315506 149.188995c-6.80423 32.467286-20.339233 56.255356-24.703812 75.684876-3.083084 13.785309 5.337067 27.052673 19.992157 28.574509 4.666291.479934 9.732407.303085 15.082215-.513901 1.736084-1.838944 3.424804-3.723191 5.063476-5.646225-4.311279.714187-8.435547.974533-12.300216.762237-14.384095-.800293-23.109971-13.553665-20.608948-27.401764 3.570343-19.588943 15.90393-43.974502 21.389847-76.702056 5.744293-34.399552 3.057052-76.028183-15.0775-115.746506-1.077331-.775574-2.162643-1.539551-3.259979-2.287079 20.083588 42.330765 21.991898 87.08757 14.42276 123.275909z"/><path d="m262.746307 126.110107c-1.425689 33.181824-10.076873 59.00232-11.186172 78.871048-.760254 13.912171 8.811966 25.168381 22.253586 23.960236 1.192077-.107437 2.405548-.272293 3.634979-.482544 1.404388-2.280716 2.754028-4.597549 4.034271-6.957718-.234314.038681-.470611.08136-.704925.112763-13.090424 1.81752-22.918305-8.940079-22.732117-22.830231.284424-19.898041 7.673981-46.076737 7.71936-79.296204.026032-24.877426-4.258484-52.677993-14.953384-80.185241-1.160782-1.062226-2.340881-2.107178-3.533661-3.132752 12.506485 30.853302 16.645462 62.315979 15.468063 89.940643z"/><path d="m240.018799 158.582397c-9.367279 31.791779-25.227112 54.208832-31.16098 73.227143-4.229783 13.604446 3.52626 27.896454 18.647857 30.950714 6.104767 1.227508 12.973725 1.419098 20.351288.566101 1.88562-1.633331 3.7285-3.320068 5.529404-5.046783-6.374405.867004-12.357636.891082-17.772202.069366-14.900696-2.276032-22.997116-16.052002-19.338058-29.753922 5.15628-19.240615 19.866058-42.369857 27.962494-74.526763 9.489486-37.757279 8.492904-85.511628-13.573059-130.293442-1.065293-.68515-2.137268-1.359406-3.221924-2.018433.888428 1.725372 1.755493 3.4552 2.579788 5.196289 21.516708 45.592057 21.086838 93.958191 9.995392 131.62973z"/><path d="m264.265442 192.110229c.369812 13.031067 9.309906 22.887665 20.962738 22.001923 1.246124-2.63446 2.418884-5.311706 3.515533-8.029663-9.983368-.385193-17.702758-9.259827-18.545776-21.108887-1.387634-19.84465 3.456207-46.560943.732941-79.680252-1.528504-18.551788-5.473969-38.540985-12.61731-58.637192-1.249481-1.313674-2.527008-2.59819-3.823913-3.86676 8.904113 23.925232 13.126525 47.901581 14.010284 69.755036 1.332275 33.200485-4.783844 59.677795-4.234497 79.565795z"/><path d="m231.25827 166.494995c-11.844314 30.924347-29.907547 51.741455-37.345825 70.234528-5.355804 13.35083 1.66333 28.695953 17.148682 33.391723 7.285492 2.199952 15.775772 3.03299 25.042968 2.424225 2.032441-1.437744 4.028855-2.923553 5.98787-4.456756-8.345368.764282-16.050049.281707-22.778137-1.404328-15.319184-3.859314-22.715485-18.679275-17.91771-32.164245 6.687454-18.771973 23.666626-40.415497 34.290146-71.796418 12.549835-37.155548 14.490204-85.506637-5.861084-131.470916-1.699402-3.828949-3.557632-7.625519-5.562744-11.379761-1.048599-.603668-2.106522-1.195435-3.171814-1.773407 3.12645 5.656128 5.916458 11.414123 8.340042 17.240448 19.22995 46.277283 15.821167 94.579697 1.827606 131.154907z"/><path d="m299.55545 152.754669c.016663-.919464.036072-1.836578.036072-2.758331 0-4.922638-.246277-9.785156-.706909-14.585907-.289001-.687912-.558594-1.394775-.804932-2.123291-3.723205-11.062653-6.24823-24.898377-9.913971-40.792938-1.999115-4.807816-4.232482-9.496125-6.699432-14.036652 6.434418 25.973389 8.285339 48.082748 13.016388 64.411896 1.12265 3.8573 2.887482 7.203338 5.072784 9.885223z"/><path d="m285.953674 160.927872c1.533844 7.67131 5.73227 13.661239 11.113465 16.572708.699493-3.792587 1.263488-7.633194 1.676666-11.518921-3.838013-3.107391-6.852295-7.950897-8.311371-13.893158-4.715057-19.314667-5.022736-46.374725-13.256012-78.589584-.355743-1.387757-.723572-2.781357-1.109985-4.18042-1.567261-2.453919-3.212555-4.854264-4.917938-7.20871 1.996398 6.679764 3.666381 13.274048 5.029998 19.722488 6.856995 32.532029 5.885193 59.597031 9.775177 79.095597z"/><path d="m275.806091 177.388489c1.198761 10.575409 7.733368 18.512329 16.142823 19.980835 1.036621-3.119141 1.977111-6.28096 2.81076-9.486237-6.89032-2.328766-12.256805-9.319855-13.68988-18.517303-3.061737-19.648789-.793-46.658799-6.2789-79.444062-1.826935-10.908859-4.509491-22.255935-8.185242-33.767135-1.38504-1.725754-2.806091-3.420777-4.265198-5.081818 5.397186 15.968018 8.833984 31.760391 10.694946 46.675781 4.098298 32.983216.549317 59.873642 2.770691 79.639939z"/><path d="m186.950699 184.465027c-21.957871 24.387451-48.772949 34.07251-62.563294 48.610763-10.749969 11.356369-8.672165 32.505295 6.636048 46.88527 8.73085 8.187896 20.630584 14.829956 34.66954 19.176574 2.594467-.277038 5.169602-.620758 7.724014-1.029266-14.025619-3.685822-26.021469-9.687714-34.936935-17.337647-15.497047-13.312744-18.185295-33.821518-7.968918-45.4122 13.265991-14.994141 39.394943-26.01883 60.553162-51.165864 24.662475-29.37918 38.912414-75.672775 27.915085-122.57579-4.478043-19.01033-13.093155-37.755234-25.138382-54.985489-.955796-.295074-1.917008-.580292-2.881485-.857025 12.816803 17.944397 21.854416 37.612488 26.285766 57.533844 10.370575 46.749863-4.746383 92.730759-30.294601 121.15683z"/><path d="m41.435783 46.060074c-5.252025 5.463562-10.093208 11.323364-14.478157 17.531189-.879043 1.369659-1.825878 2.757004-2.825426 4.159347-4.346874 6.618317-8.189538 13.594422-11.460526 20.883881 12.408673-14.766174 23.901603-26.034424 27.882746-37.812988.518284-1.546585.806313-3.142197.881363-4.761429z"/><path d="m179.164627 184.101868c-23.397659 22.84967-51.413475 29.742645-66.192718 43.341705-11.807946 10.912598-11.070054 33.363007 3.733192 49.923706 8.125137 9.078339 19.485558 16.845673 33.107338 22.496552h5.98056c.718918-.031403 1.436447-.060059 2.154648-.1008-13.958221-5.010681-25.694412-12.252167-34.185013-20.945984-15.07286-15.466705-16.509636-37.26033-5.227981-48.385849 14.289596-14.078979 41.743774-22.376358 64.443863-46.002243 26.356582-27.463516 42.251068-73.121704 32.454574-119.679336-4.377914-20.722001-13.809967-41.202103-27.341003-59.759903-.94719-.250641-1.896301-.490265-2.850785-.722168 14.191849 19.068023 23.980286 40.257629 28.298859 61.673919 9.293915 46.325913-7.290817 91.65709-34.375534 118.160401z"/><path d="m195.30014 183.605316c-20.302551 25.894623-45.711959 38.199463-58.418289 53.65213-9.689392 11.817688-6.415115 31.703003 9.22612 43.969849 9.034287 7.07193 21.007355 12.433716 34.90155 15.466705 2.524354-.539367 5.024689-1.141388 7.501725-1.805542-13.659165-2.400177-25.528153-7.105224-34.614517-13.573028-15.744401-11.244294-19.57866-30.522904-10.413208-42.560181 12.120651-15.895172 36.763076-29.439499 56.158477-56.062393 22.69812-31.223023 34.978989-78.120697 22.528641-125.209305-4.478134-16.851013-12.126068-33.433685-22.468536-48.904449-.97583-.345063-1.955017-.682435-2.938904-1.008606 11.21756 16.403198 19.366775 34.118927 23.859527 52.104995 11.698121 47.017472-1.607299 93.619187-25.322586 123.929825z"/><path d="m222.223999 172.931702c-14.19252 29.876144-34.331512 48.873077-43.20755 66.735336-6.467819 13.033798-.254318 29.458298 15.475372 35.899429 8.181198 3.339356 18.053116 5.061402 28.989655 4.98938 2.177978-1.234894 4.323227-2.519745 6.429748-3.859344-10.137542.377075-19.35997-.864441-27.132049-3.618409-15.622238-5.555358-22.244889-21.430572-16.333756-34.633819 8.175171-18.184662 27.279633-38.125427 40.31807-68.545837 15.375915-35.949463 20.207733-84.145432 2.089157-130.69098-3.018311-7.725341-6.6754-15.342285-10.917847-22.773834-1.028564-.527679-2.068527-1.042938-3.112411-1.548187 5.337112 9.075195 9.795135 18.442291 13.278015 27.9617 17.072006 46.752198 10.857818 94.817978-5.876404 130.084565z"/><path d="m213.100266 177.901703c-16.398438 28.670013-38.453797 45.64386-48.702164 62.771225-7.556473 12.669998-2.230713 30.203232 13.613754 38.490555 8.774613 4.580871 19.715836 7.401642 32.022049 8.14917 2.310837-1.019898 4.59021-2.094513 6.837585-3.223938-11.668106-.30362-22.123367-2.546387-30.643707-6.499176-15.801056-7.350861-21.582031-24.325348-14.568924-37.18425 9.566925-17.509171 30.693115-35.514878 46.003647-64.808289 18.033081-34.538147 25.5802-82.42839 9.528168-129.341736-3.843979-11.206192-9.044922-22.222763-15.455353-32.81694-1.014572-.462952-2.034485-.911835-3.063065-1.3526 7.453003 11.993774 13.346146 24.557281 17.457108 37.340729 15.076263 47.029815 6.260895 94.71112-13.029098 128.47525z"/><path d="m204.068741 181.441345c-18.435669 27.337036-42.264465 42.068848-53.783035 58.393219-8.631775 12.256897-4.277848 30.941467 11.537963 41.177765 9.05896 5.846436 20.71901 9.901978 34.0318 11.702881 2.424286-.78363 4.821151-1.628662 7.18869-2.533722-12.860947-1.246857-24.215317-4.667023-33.174133-9.880646-15.845826-9.252502-20.703675-27.356399-12.603196-39.824096 10.888459-16.73761 33.859543-32.610779 51.297303-60.630616 20.480087-32.952224 30.518203-80.394882 16.369781-127.48909-4.299164-14.250259-10.821747-28.256546-19.277984-41.523544-.995835-.402801-1.997712-.792328-3.005585-1.173828 9.424682 14.429535 16.542648 29.775665 20.959991 45.384216 13.272065 47.113663 2.083222 94.29802-19.541595 126.397461z"/></g></svg>