<svg height="300" viewBox="0 0 300 300" width="300" xmlns="http://www.w3.org/2000/svg"><path d="m57.018894 242.133652c52.06445 50.727096 135.387371 49.640274 186.110211-2.421006 13.473678-13.831878 23.282333-29.869445 29.460647-46.91275h-247.45614c6.552164 18.084839 17.184831 35.008805 31.885282 49.333756z" fill="#273f75"/><path d="m25.133612 192.799896h247.45614c5.867951-16.186798 8.46167-33.280823 7.774048-50.263382l-40.733459-39.687118h-214.469058c-10.542881 29.023254-10.525251 60.976532-.027671 89.9505z" fill="#fffffe"/><path d="m54.599796 56.024277c-13.45158 13.807403-23.258373 29.812607-29.438513 46.825119h214.469058l-88.857804-86.575714c-34.887863-.498078-69.904373 12.791656-96.172741 39.750595z" fill="#9b252c"/><path d="m150.813034 16.342163c1.311188 32.447632 14.56105 64.476929 39.661545 88.931412 25.095199 24.454727 57.461304 36.866073 89.930817 37.331467" fill="#ff9400"/></svg>