<svg height="20" viewBox="0 0 20 20" width="20" xmlns="http://www.w3.org/2000/svg"><g fill-rule="evenodd"><path d="m2.560516 2c-.382814 0-.691.310457-.691.696095v15.60781c0 .385636.308186.696095.691.696095h14.878266c.382814 0 .691-.310459.691-.696095v-14.008884l-2.289282-2.294847h-13.279984z" fill="#1eb100"/><path d="m13.704252 2v4.221499c0 .431331-.37873.778501-.849591.778501h-5.709003c-.470861 0-.84991-.34717-.84991-.778501v-4.221499" fill="#babec3" stroke="#000" stroke-linecap="round" stroke-linejoin="round" stroke-width=".784443"/><path d="m12.109633 3.058914c.247069 0 .446315.198929.446315.446026v1.990278c0 .247067-.199246.445996-.446315.445996h-1.207599c-.247386 0-.446314-.198929-.446314-.445996v-1.990278c0-.247097.198928-.446026.446314-.446026z"/><path d="m4.664667 10c-.342667 0-.618334.243758-.618334.546761v5.906478c0 .303002.275667.546761.618334.546761h10.670667c.342666 0 .618333-.243759.618333-.546761v-5.906478c0-.303003-.275667-.546761-.618333-.546761z" fill="#d9dddf"/></g></svg>