<svg height="36" viewBox="0 0 36 36" width="36" xmlns="http://www.w3.org/2000/svg"><path d="m28.700853 29.460854s-.772649-13.188036-4.777776-17.193161c-1.312081-1.312081-3.724741-3.696246-6.923077-5.267693-.29851-.146667 1.332966 4.130938 1 4.000002-.322538-.126841-1.681259-3.869255-2-4.000002-6.109559-2.50614-14-4.239998-14-4.239998s1.388978 3.819691 3.104368 7.917177c.09971.238179 4.793923 1.083462 4.895631 1.322821.083217.195839-4.42637-.214333-4.34207-.018549 1.515671 3.520132 3.187903 6.969681 4.352327 8.134106 2.670086 2.670084 9.297437 2.536751 9.297437 2.536751l-2.622222 2.803419s4.005125 1.335043 5.340169 2.670086c1.335043 1.335041 5.34017 0 5.34017 0" fill="#f7ba00" fill-opacity=".497874" opacity=".798607" stroke="#fffc67"/><path d="m33 34s-7.440001-10.413334-16.120001-19.669628c-8.679999-9.256296-14.879999-11.57037-14.879999-11.57037" fill="none" stroke="#fff"/></svg>