<svg height="350" viewBox="0 0 350 350" width="350" xmlns="http://www.w3.org/2000/svg"><g stroke-linecap="round" stroke-linejoin="round"><path d="m152.047943 250.134842c0 27.384323-27.255463 49.583725-60.876793 49.583725s-60.876802-22.199402-60.876802-49.583725c0-27.384338 27.255472-49.583725 60.876802-49.583725s60.876793 22.199387 60.876793 49.583725z" fill="#4a4a4a" fill-opacity=".202725" stroke="#fff" stroke-width="10.588585"/><path d="m319.704254 250.134842c0 27.384323-27.255462 49.583725-60.8768 49.583725-33.621323 0-60.876801-22.199402-60.876801-49.583725 0-27.384338 27.255478-49.583725 60.876801-49.583725 33.621338 0 60.8768 22.199387 60.8768 49.583725z" fill="#4a4a4a" fill-opacity=".19524" stroke="#fff" stroke-width="10.588585"/><g fill="none"><path d="m148.369995 228.840012c4.367798-11.225037 14.64801-19.106995 26.634003-19.106995 11.986007 0 22.266998 7.882996 26.63501 19.107971" stroke="#fff" stroke-width="10.587"/><path d="m80.069 282.780029c-15.290001-1.146911-28.979-10.822021-32.458999-23.970031-1.424603-5.383011-.949421-10.636979 1.050197-15.292984" stroke="#fff" stroke-width="4.9627"/><path d="m84.112 273.440002c-11.468003-.859985-21.735001-8.119995-24.345002-17.979995-1.067997-4.03003-.711998-7.979981.788002-11.470032" stroke="#ccc" stroke-width="3.4739"/><path d="m247.289993 282.780029c-15.289993-1.146911-28.978988-10.822021-32.458999-23.970031-1.424591-5.383011-.949417-10.636979 1.050201-15.292984" stroke="#fff" stroke-width="4.9627"/><path d="m251.339996 273.440002c-11.468002-.860168-21.735-8.11621-24.343994-17.977005-1.068405-4.03717-.712066-7.977478.787674-11.46997" stroke="#ccc" stroke-width="3.4739"/><g stroke="#fff" stroke-width="10.587"><path d="m78.360275 87.065338c12.321389-30.73941 40.533921-51.706055 66.074112-23.513458m-105.721229 159.12204 40.033607-137.475281"/><path d="m271.640289 87.065338c-12.322723-30.723541-40.533935-51.70874-66.074112-23.499176m105.721238 159.095551-40.033631-137.475281"/></g></g></g></svg>