<svg height="2770" viewBox="0 0 3000 2770" width="3000" xmlns="http://www.w3.org/2000/svg"><path d="m904 2384h1190v-1166h-1190z" fill-rule="evenodd" opacity=".203199"/><path d="m1509.6875 163.238525c-212.90918 0-385.951782 173.092041-385.951782 386.059082-.028076 212.736451 173.042602 383.242676 385.951782 383.242676 212.907715 0 383.136475-170.497436 383.136475-383.242676 0-212.967041-170.22876-386.059082-383.136475-386.059082zm-391.583008 865.109864c-175.434509 6.223388-250.732055 146.534424-250.732055 146.534424l-569.06836 780.577636c-24.610473 34.584473-36.62265 75.482422-36.62265 121.175781 0 121.330567 98.442017 219.799805 219.739044 219.799805 29.296692 0 54.694153-4.54834 78.882385-14.088623l343.696778-95.811279v340.97583h1191.683471v-340.97583l343.697022 95.811279c25.065186 9.513672 49.841064 14.088623 78.880859 14.088623 121.297119 0 219.739014-98.469238 219.739014-219.799805 0-45.688964-13.119385-86.557373-36.622803-121.175781l-569.068115-780.577636s-74.639404-140.311036-250.730957-146.534424h-763.457153zm-214.107971 262.06726 597.234192 194.442749 594.418213-194.442749v459.326294l-42.257813-14.090576c-306.270874-90.495971-425.245483 312.899903-118.316284 402.967529l8.436524 2.826661-442.293824 146.534423-445.110962-146.534423 8.446778-2.826661c306.95874-90.0708 188.409179-493.491455-118.316345-402.967529l-42.258057 14.090576v-459.326294zm-583.156311 1507.584351" fill="#fff"/></svg>