<svg height="36" viewBox="0 0 36 36" width="36" xmlns="http://www.w3.org/2000/svg"><g fill-rule="evenodd"><path d="m20.935394 27.59654c3.193241 2.999476 6.507445.261994 5.43978-2.544267-1.06617-2.802502-4.985587-4.68315-8.904999-6.563797-1.787042 3.72422-3.574033 7.448557-2.507817 10.251018 1.067715 2.806166 5.51133 3.037302 5.973036-1.142954z" fill="#3d6b36"/><path d="m26.743172 15.492691c4.337782.614159 4.276094 4.912291 1.419 5.835339-2.853168.921741-6.772585-.958907-10.691997-2.839554 1.78692-3.72419 3.573974-7.448437 6.427139-8.370115 2.8571-.923048 5.817801 2.398595 2.845858 5.37433z" fill="#3d6b36"/><path d="m17.49494 17.926558 1.93325.899387c5.694798 2.649637 10.550263 6.815981 14.0339 12.042505l-.248257.159687c-.584442.376169-1.319124.432203-1.953844.149269l-.295796-.636032c-2.427881-5.222141-6.993944-9.140289-12.524089-10.747062l-2.368176-1.062054-.15772-.994394z" fill="#509242"/><path d="m8.692055 21.721832c-4.337869-.614166-4.276258-4.912336-1.419107-5.835357 2.853246-.921853 6.772659.958793 10.692096 2.839454-1.786947 3.724264-3.574032 7.448557-6.427229 8.370373-2.857029.922958-5.817863-2.398773-2.84576-5.37447z" fill="#3d6b36"/><path d="m14.499829 9.617983c-3.193324-2.999483-6.507603-.262039-5.439883 2.544248 1.066248 2.802391 4.985662 4.683037 8.905098 6.563698 1.787014-3.724148 3.573977-7.448436 2.507729-10.250765-1.067648-2.806251-5.511397-3.037477-5.972944 1.142819z" fill="#3d6b36"/><path d="m17.495274 17.926718 1.932916.899227c2.97509 1.384167 5.720787 3.182556 8.161812 5.329449-.478687-.361735-1.030197.233568-.774578.526552h-.000237c-2.321758-2.268139-5.188236-3.961655-8.375083-4.887633l-1.515984-.679912z" fill="#3d6b36"/><path d="m8.315179 21.540998c-4.150284-.52416-4.007601-4.783428-1.248281-5.753393 2.755637-.968687 6.479855.818301 10.20405 2.605276-1.786953 3.724261-3.574031 7.448557-6.32965 8.417193-2.759273.969864-5.535667-2.263367-2.626119-5.269076z" fill="#81bd42"/><path d="m12.045792 16.134792c1.671616.553236 3.448387 1.405545 5.225156 2.258089-1.564674 3.261015-3.129368 6.521847-5.344267 7.932887-.394911-.602147-.723559-1.259404-.972257-1.966866-.996784-2.835793-.496624-5.847336 1.091368-8.22411z" fill="#81bd42"/><path d="m12.045792 16.134792c1.671616.553236 3.448387 1.405545 5.225156 2.258089-1.564674 3.261015-3.129368 6.521847-5.344267 7.932887-.394911-.602147-.723559-1.259404-.972257-1.966866-.996784-2.835793-.496624-5.847336 1.091368-8.22411z" fill="#60b045"/><path d="m7.916256 15.578161c2.646543-.40357 6.000577 1.205319 9.354692 2.81472-.54631 1.138663-1.092744 2.277174-1.666835 3.337134-3.071744.315582-6.216477-1.828505-7.434426-5.293385-.100252-.285372-.184252-.571874-.253431-.858469z" fill="#71b844"/><path d="m12.045792 16.13479c1.671572.553217 3.448387 1.405547 5.225156 2.258091-.54631 1.138663-1.092744 2.277174-1.666835 3.337134-1.795158.184494-3.61505-.471615-5.060935-1.739903.207641-1.374012.724594-2.690803 1.502614-3.855322z" fill="#509242" opacity=".467644"/><path d="m8.315179 21.540998c-4.150284-.52416-4.007601-4.783428-1.248281-5.753393 2.755637-.968687 6.479855.818301 10.20405 2.605276z" fill="#71b844"/><path d="m12.045792 16.134792c1.671616.553236 3.448387 1.405545 5.225156 2.258089l-6.812252 2.394675c.103773-1.659853.659593-3.264506 1.587096-4.652764z" fill="#60b045"/><path d="m7.916256 15.578161c2.646543-.40357 6.000577 1.205319 9.354692 2.81472l-6.051633 2.127234c-1.334738-.929594-2.436387-2.3391-3.049628-4.083485-.100252-.285372-.184252-.571874-.253431-.858469z" fill="#60b045"/><path d="m14.114092 24.144257c-.923885 1.268854-1.953461 2.237194-3.172794 2.665817-2.123067.746235-4.255591-.996-3.801141-3.208153 2.18565 1.08168 4.652083 1.343556 6.973935.542336z" fill="#8ec240"/><path d="m14.114092 24.144257c-.664182.912189-1.38287 1.668922-2.187411 2.181511-.348374-.531193-.644998-1.105586-.880887-1.719254 1.026879.0326 2.061154-.114761 3.068298-.462257z" fill="#81bd42"/><g fill="#8ec240"><path d="m8.31518 21.540998c1.350515-.58856 2.841654-1.175409 4.422711-1.7311 1.580987-.555668 3.111246-1.030986 4.533057-1.417017-1.350515.588683-2.841655 1.17541-4.422612 1.73115-1.581086.55574-3.111357 1.031084-4.533156 1.416967z"/><path d="m10.945334 20.635527c-.148989 1.353231-.236106 2.352449-1.86759 3.452873 1.36295-.743384 2.09723-1.882013 2.187066-3.546068z"/><path d="m14.065404 19.50532c-1.077557-1.07684-1.853302-1.888159-4.048043-1.706335 1.710396-.305516 3.148624.174314 4.392226 1.564054z"/><path d="m10.1376 20.885973c-.564233-.590099-.970724-1.034386-2.096571-.958078.875703-.147622 1.619385.124763 2.271985.885002z"/></g><path d="m10.781905 25.709148c-.106055-.18235.102839-.50171.466659-.713358.363813-.211648.744779-.235487.850828-.053117.106047.18243-.102871.501846-.466632.713369-.36384.211752-.744785.235483-.850855.053106zm1.66445-.968307c-.055651-.09568.049827-.260834.235666-.368996.185784-.10804.381529-.118103.437214-.022493.05565.095678-.049814.260868-.235689.36899-.185813.108171-.381538.118238-.437191.022499z" fill="#dee8aa"/><path d="m6.527065 16.832067c-.088532-.251863.307516-.620445.884616-.823278.577086-.202873 1.116759-.163204 1.205243.088759.088577.25177-.307539.620435-.88465.823293-.577063.202883-1.116672.163092-1.205209-.088774z" fill="#dee8aa"/><path d="m26.226765 15.24502c2.909361-3.00588.13303-6.239056-2.62624-5.269068-2.755602.968493-4.542612 4.692761-6.329577 8.416929 3.724146 1.78707 7.448508 3.574007 10.204083 2.605439 2.759321-.969962 2.901884-5.22929-1.248266-5.7533z" fill="#81bd42"/><path d="m19.933899 13.36202c-.957762 1.477606-1.810429 3.254141-2.662951 5.030861 3.260899 1.564789 6.52182 3.129359 9.13237 2.844256-.068628-.716801-.223644-1.435167-.472282-2.14263-.996771-2.835878-3.271153-4.872024-5.997137-5.732487z" fill="#81bd42"/><path d="m19.933899 13.36202c-.957762 1.477606-1.810429 3.254141-2.662951 5.030861 3.260899 1.564789 6.52182 3.129359 9.13237 2.844256-.068628-.716801-.223644-1.435167-.472282-2.14263-.996771-2.835878-3.271153-4.872024-5.997137-5.732487z" fill="#67b545"/><path d="m22.8069 10.344065c-2.316978 1.341024-3.926561 4.694725-5.535952 8.048816 1.138638.546469 2.277182 1.092598 3.388218 1.560305 2.593523-1.675907 3.705035-5.316095 2.487204-8.780916-.100391-.285385-.214172-.561415-.33947-.828205z" fill="#71b844"/><path d="m19.933947 13.362043c-.957814 1.477467-1.810477 3.254118-2.662999 5.030838 1.138638.546469 2.277182 1.092598 3.388218 1.560305 1.515673-.979431 2.524897-2.62986 2.859106-4.524002-1.021593-.941807-2.248777-1.645557-3.584325-2.067141z" fill="#59a545"/><path d="m26.226765 15.24502c2.909361-3.00588.13303-6.239056-2.62624-5.269068-2.755602.968493-4.542612 4.692761-6.329577 8.416929z" fill="#71b844"/><path d="m19.933899 13.36202c-.957762 1.477606-1.810429 3.254141-2.662951 5.030861l6.812203-2.394407c-1.119454-1.229877-2.557154-2.133896-4.149252-2.636454z" fill="#67b545"/><path d="m22.8069 10.344065c-2.316978 1.341024-3.926561 4.694725-5.535952 8.048816l6.051583-2.127081c.459549-1.560335.437021-3.349145-.176161-5.09353-.100391-.285385-.214172-.561415-.33947-.828205z" fill="#67b545"/><path d="m19.933947 13.362043c-.957814 1.477467-1.810477 3.254118-2.662999 5.030838l6.051583-2.127081c.080244-.272384.14567-.551698.195982-.836439-1.021735-.941936-2.248946-1.6457-3.584566-2.067318z" fill="#59a545" opacity=".64221"/><path d="m23.332136 20.904066c1.514624.411738 2.923577.522856 4.142895.094254 2.123045-.746306 2.696485-3.439652.957794-4.880816-1.028212 2.211214-2.788227 3.958742-5.100689 4.786562z" fill="#8ec240"/><path d="m23.332136 20.904066c1.088801.29592 2.122944.436577 3.071182.333071-.060606-.632424-.188558-1.265965-.388565-1.892309-.78055.667909-1.679546 1.200224-2.682617 1.559238z" fill="#81bd42"/><g fill="#a3c93c"><path d="m26.226765 15.24502c-1.421889.385761-2.95212.861149-4.533177 1.416901-1.581011.555717-3.072174 1.142492-4.42264 1.73096 1.42174-.38577 2.952071-.86111 4.53308-1.416826 1.580984-.555727 3.072097-1.142465 4.422737-1.731035z"/><path d="m23.608486 16.184292c.962959.962419 1.656098 1.687424 3.617268 1.524866-1.528403.273022-2.81354-.155743-3.924824-1.397657z"/><path d="m20.467485 17.254997c.166678-1.51428.264254-2.63261 2.090004-3.864006-1.525295.831896-2.34703 2.106182-2.447513 3.968317z"/><path d="m24.395313 15.8743c.070772-.81345.110028-1.414322 1.035904-2.059229-.775488.432882-1.185188 1.110588-1.218572 2.111897z"/></g><path d="m26.910515 20.039858c-.031244-.208605-.39407-.327046-.810373-.264591-.416132.062591-.728261.282381-.696801.491026.031245.208604.394051.327087.810278.264545.416323-.0625.728192-.282354.696896-.49098zm-1.904272.286043c-.016358-.109467-.20212-.172249-.414639-.140343-.21262.031973-.371551.146607-.355165.256031.016363.109475.202118.172257.414644.140355.212713-.031937.371759-.146573.35516-.256043z" fill="#dee8aa"/><path d="m24.675188 10.452843c-.088539-.251866-.62822-.291569-1.205341-.088686-.577053.20286-.973101.571443-.884568.823303.088555.251882.628195.291681 1.205294.088783.577078-.202846.973143-.571533.884615-.8234z" fill="#dee8aa"/><path d="m20.419033 27.348776c-.524286 4.150106-4.783575 4.007536-5.753418 1.248213-.968698-2.755551.818337-6.479868 2.605333-10.204108 3.72419 1.786974 7.448508 3.574007 8.417084 6.329682.969895 2.759348-2.263439 5.535633-5.268999 2.626213z" fill="#81bd42"/><path d="m15.012736 23.618095c.553335-1.67163 1.405633-3.448371 2.258212-5.225214 3.260945 1.564694 6.521777 3.129452 7.932789 5.344279-.602054.394897-1.259456.723541-1.966879.972221-2.835838.99688-5.847248.496754-8.224122-1.091286z" fill="#81bd42"/><path d="m15.012736 23.618095c.553335-1.67163 1.405633-3.448371 2.258212-5.225214 3.260945 1.564694 6.521777 3.129452 7.932789 5.344279-.602054.394897-1.259456.723541-1.966879.972221-2.835838.99688-5.847248.496754-8.224122-1.091286z" fill="#67b545"/><path d="m14.456143 27.747681c-.403584-2.646633 1.205347-6.000565 2.814805-9.3548 1.138684.546374 2.277066 1.092841 3.337063 1.666918.315508 3.071652-1.828581 6.216381-5.293396 7.434448-.285389.100161-.57196.184243-.858472.253434z" fill="#71b844"/><path d="m15.012786 23.61812c.553193-1.671585 1.405583-3.448396 2.258162-5.225239 1.138684.546374 2.277066 1.092841 3.337063 1.666918.184334 1.795174-.471584 3.615032-1.740001 5.060888-1.373883-.207611-2.690705-.724546-3.855224-1.502567z" fill="#59a545" opacity=".663768"/><path d="m20.419033 27.348776c-.524286 4.150106-4.783575 4.007536-5.753418 1.248213-.968698-2.755551.818337-6.479868 2.605333-10.204108z" fill="#71b844"/><path d="m15.012736 23.618095c.553335-1.67163 1.405633-3.448371 2.258212-5.225214l2.394577 6.812262c-1.659814-.103725-3.264589-.659542-4.652789-1.587048z" fill="#67b545"/><path d="m14.456143 27.747681c-.403584-2.646633 1.205347-6.000565 2.814805-9.3548l2.127186 6.051667c-.929617 1.334787-2.33909 2.436479-4.083519 3.049699-.285389.100161-.57196.184243-.858472.253434z" fill="#67b545"/><path d="m23.022266 21.549856c1.268841.923968 2.237156 1.953413 2.665766 3.172707.746271 2.122995-.995907 4.255579-3.208046 3.801111 1.081524-2.185635 1.343462-4.652016.54228-6.973818z" fill="#8ec240"/><path d="m23.022266 21.549856c.912104.664171 1.668894 1.382855 2.181471 2.187304-.531238.348407-1.105512.645031-1.71923.880897.032615-1.02679-.114653-2.061134-.462241-3.068201z" fill="#81bd42"/><path d="m20.419033 27.348776c-.588736-1.350596-1.175386-2.8417-1.73114-4.422758-.555754-1.580994-1.031086-3.11129-1.416945-4.533137.588597 1.350567 1.175349 2.841715 1.731089 4.422736.555731 1.580982 1.031036 3.111267 1.416996 4.533159z" fill="#9ec83d"/><path d="m19.513485 24.71859c1.353294.148929 2.35251.236046 3.452831 1.867567-.743414-1.362959-1.881946-2.097258-3.546003-2.187151z" fill="#9ec83d"/><path d="m18.38335 21.598499c-1.076984 1.077605-1.888193 1.853249-1.706432 4.048052-.305458-1.710337.1744-3.148672 1.564152-4.3923z" fill="#9ec83d"/><path d="m19.764019 25.526272c-.590284.564239-1.034447.970852-.958189 2.096611-.147594-.875691.124773-1.619469.884941-2.271982z" fill="#9ec83d"/><path d="m24.587154 24.88192c-.182272.106151-.501697-.102741-.713407-.466675-.211594-.363682-.235449-.744675-.052982-.850737.182249-.106105.50167.102793.713287.466681.211784.363766.235365.744728.053102.850731zm-.968393-1.664402c-.095615.055715-.260834-.049885-.368908-.235653-.108106-.185837-.118139-.381516-.022543-.437176.095614-.055687.260918.049715.368954.235581.108196.185884.118301.381652.022497.437248z" fill="#dee8aa"/><path d="m15.710052 29.136871c-.251823.088436-.620521-.307611-.823381-.884723-.20281-.577088-.163056-1.116745.088763-1.205185.251922-.088593.62058.30755.823414.884651.202836.577099.163114 1.116627-.088796 1.205257z" fill="#dee8aa"/><path d="m14.122955 9.437149c-3.00574-2.909477-6.238948-.133131-5.269057 2.626215.968637 2.755554 4.692855 4.542542 8.41705 6.329517 1.787007-3.724147 3.573975-7.448436 2.605307-10.203943-.969891-2.759346-5.229199-2.902071-5.7533 1.248211z" fill="#81bd42"/><path d="m12.240005 15.730038c1.47752.95775 3.254174 1.810299 5.030943 2.662843 1.564707-3.260854 3.1293-6.5217 2.844124-9.132351-.716797.06869-1.435146.223603-2.142608.472241-2.835816.996885-4.871988 3.271255-5.732459 5.997267z" fill="#81bd42"/><path d="m12.240005 15.730038c1.47752.95775 3.254174 1.810299 5.030943 2.662843 1.564707-3.260854 3.1293-6.5217 2.844124-9.132351-.716797.06869-1.435146.223603-2.142608.472241-2.835816.996885-4.871988 3.271255-5.732459 5.997267z" fill="#67b545"/><path d="m9.221965 12.856964c1.341133 2.317003 4.694868 3.926516 8.048983 5.535917.546385-1.138595 1.092585-2.277223 1.56016-3.388172-1.675842-2.593582-5.316025-3.705116-8.780912-2.4872-.285315.10031-.561383.214095-.828231.339455z" fill="#71b844"/><path d="m12.240048 15.729944c1.477434.957823 3.254131 1.810393 5.0309 2.662937.546385-1.138595 1.092585-2.277223 1.56016-3.388172-.979322-1.51577-2.629843-2.52486-4.523882-2.859161-.941898 1.021715-1.645616 2.248894-2.067178 3.584396z" fill="#59a545"/><path d="m14.122955 9.437149c-3.00574-2.909477-6.238948-.133131-5.269057 2.626215.968637 2.755554 4.692855 4.542542 8.41705 6.329517z" fill="#71b844"/><path d="m12.240005 15.730038c1.47752.95775 3.254174 1.810299 5.030943 2.662843l-2.394582-6.812086c-1.229811 1.119433-2.1338 2.557137-2.636361 4.149243z" fill="#67b545"/><path d="m9.221965 12.856964c1.341133 2.317003 4.694868 3.926516 8.048983 5.535917l-2.127235-6.051513c-1.560244-.459624-3.349096-.436941-5.093517.176141-.285315.10031-.561383.214095-.828231.339455z" fill="#67b545"/><path d="m19.782049 12.331799c.411692-1.514586.522854-2.923638.094206-4.142861-.74626-2.123136-3.439581-2.696627-4.880884-.957886 2.211311 1.028202 3.958883 2.788237 4.786678 5.100747z" fill="#8ec240"/><path d="m19.782049 12.331799c.295922-1.08874.436579-2.122946.333067-3.071362-.632372.06069-1.266033.188704-1.89233.388672.667978.780586 1.200155 1.67963 1.559263 2.68269z" fill="#81bd42"/><path d="m14.122956 9.437149c.38584 1.421896.861122 2.952169 1.416925 4.533188.555753 1.580997 1.142444 3.072143 1.731067 4.422544-.385887-1.42168-.861217-2.951974-1.416919-4.532949-.555781-1.581068-1.142473-3.072218-1.731073-4.422783z" fill="#9ec83d"/><path d="m15.062322 12.05541c.962367-.962921 1.687306-1.656091 1.52489-3.617313.272905 1.528345-.155838 2.813551-1.397694 3.924839z" fill="#9ec83d"/><path d="m16.132933 15.196426c-1.514231-.166776-2.632495-.264255-3.863945-2.090004.831904 1.525328 2.106108 2.346995 3.968305 2.447539z" fill="#9ec83d"/><path d="m14.752283 11.268621c-.813369-.07088-1.414272-.110002-2.059194-1.035974.432767.775492 1.110533 1.185245 2.111888 1.218655z" fill="#9ec83d"/><path d="m18.917812 8.75329c-.208601.031365-.327037.39419-.26449.810417.062538.41623.282351.728251.490931.696936.208605-.031307.327068-.39418.264541-.810455-.062522-.416214-.282381-.728203-.490982-.696898zm.286097 1.904291c-.109469.016482-.1723.202097-.140392.414742.031978.212498.146562.37158.256031.3551.109443-.016431.172323-.202085.14035-.414703-.031883-.212631-.146498-.371607-.255989-.355139z" fill="#dee8aa"/><path d="m9.330852 10.988762c-.251819.088438-.291571.628097-.0887 1.205183.202846.577074.571454.973255.823317.884724.251866-.088538.291595-.628207.088748-1.205342-.202823-.577064-.571496-.973095-.823365-.884565z" fill="#dee8aa"/></g></svg>