<svg height="250" viewBox="0 0 300 250" width="300" xmlns="http://www.w3.org/2000/svg" xmlns:xlink="http://www.w3.org/1999/xlink"><clipPath id="a"><path clip-rule="evenodd" d="m15.74913 238.00687h271.300567v-228.909851h-271.300567z"/></clipPath><g clip-path="url(#a)"><g fill-rule="evenodd"><path d="m150.569443 67.131531c61.509536 0 111.373092 49.862884 111.373092 111.371582 0 41.642837-22.859665 77.941894-56.709579 97.049438h-109.326157c-33.850357-19.107544-56.709137-55.406601-56.709137-97.049438 0-61.508698 49.862694-111.371582 111.371781-111.371582z" fill="#ff634d"/><path d="m25.092152 181.994476 7.502185-1.121795 5.830906 38.995346c.308533 2.063369-1.127243 4.00357-3.190242 4.312057-2.063092.308487-4.003411-1.126907-4.311943-3.190277z" fill="#c93"/><path d="m30.651213 181.163239 1.943124-.290558 5.830906 38.995346c.308533 2.063369-1.127243 4.00357-3.190242 4.312057-.852333.127442-1.683552-.042877-2.387394-.431961 2.387733.431717 3.952324-1.464126 3.610492-3.750183z" fill="#bd8b28"/><path d="m28.687057 180.389404c2.071639-.309753 3.821038-.093475 3.90728.483277.086216.576599-1.523386 1.295227-3.595024 1.605011-2.071546.309753-3.820943.093383-3.907161-.483216-.086243-.576767 1.523359-1.295318 3.594905-1.605072z" fill="#edbb56"/><path d="m28.733427 180.699524c1.456471-.217789 2.686213-.065689 2.746836.339752.060611.405335-1.070849.910523-2.527319 1.128296-1.456452.217773-2.686217.065674-2.746826-.339661-.060625-.405441 1.070858-.910614 2.527309-1.128387z" fill="#a67a21"/><path d="m28.306618 182.241867c-1.157606.091171-2.049114-.070297-2.1005-.413956-.057761-.386291.966346-.862991 2.322584-1.095474-.136616.481629-.213244.988617-.222084 1.50943z" fill="#876217"/><path d="m27.573769 188.279053.000167-.000031c.455893-.068176.894211.362808.963.822846l3.817228 25.528473c.068802.460113-.256985.781723-.712877.849884l-.000168.00003c-.455805.068161-.894239-.362991-.963068-.823288l-3.817186-25.528183c-.068789-.460052.257099-.781586.712904-.849731z" fill="#deab45"/><path d="m27.011992 184.522064.000167-.00003c.453516-.057129.879717.265869.947333.718063l.183651 1.228195c.067604.452118-.247971.868942-.701498.92601l-.000168.000016c-.453497.057144-.879717-.26587-.947334-.718079l-.18365-1.22818c-.067619-.452209.248017-.868774.701499-.925995z" fill="#deab45"/><path d="m32.549728 180.879364c2.500809-.373947 5.00145-.747864 7.502091-1.12178 1.265861 8.465698 4.112617 27.503952 5.378479 35.96965.308479 2.063003-1.127113 4.003158-3.190113 4.311645-2.063187.308503-4.003498-1.126876-4.311978-3.189865-1.265861-8.465713-4.112617-27.503952-5.378479-35.96965z" fill="#c93"/><path d="m38.108879 180.048096c.64764-.096833 1.2953-.193665 1.94294-.290512 1.265861 8.465698 4.112617 27.503952 5.378479 35.96965.308479 2.063003-1.127113 4.003158-3.190113 4.311645-.852246.127427-1.683476-.042877-2.387482-.43193 2.387821.431702 3.952412-1.464127 3.610584-3.750199-1.257846-8.412078-4.096561-27.396545-5.354408-35.808654z" fill="#bd8b28"/><path d="m36.144722 179.274292c2.071732-.309784 3.820854-.093475 3.907097.483292.086216.576599-1.52311 1.295181-3.594841 1.604965-2.071713.309784-3.820847.093384-3.907067-.483216-.086242-.576766 1.523098-1.295272 3.594811-1.605041z" fill="#edbb56"/><path d="m36.191093 179.584381c1.456456-.217773 2.686215-.065674 2.746838.339752.060612.40535-1.070869.910523-2.527321 1.128311-1.456451.217789-2.686218.065674-2.746826-.339675-.060627-.405426 1.070858-.910599 2.527309-1.128388z" fill="#a67a21"/><path d="m35.764099 181.12677c-1.157421.091141-2.048931-.070343-2.100315-.414001-.057762-.386261.966255-.862977 2.322491-1.095459-.136521.481628-.213242.988617-.222176 1.50946z" fill="#876217"/><path d="m35.007408 187.002731c.460098-.01741.894425.362961.9632.822922.638607 4.270783 2.858162 19.114517 3.496822 23.385666.068745.459763-.253029.832108-.713142.849411-.46016.017487-.894379-.362793-.963154-.822739-.63863-4.270981-2.858162-19.114517-3.496807-23.385605-.068764-.459838.252937-.832061.713081-.849655z" fill="#deab45"/><path d="m34.46973 183.406921c.453324-.05896.879929.266007.947518.718018.053192.355713.106376.711426.159565 1.067139.067619.452209-.248348.867157-.701672.926101-.453224.05896-.879906-.266006-.947525-.718216-.053173-.355606-.106346-.711227-.15955-1.067016-.067604-.452118.248436-.867096.701664-.926026z" fill="#deab45"/><path d="m40.007397 179.764221c2.500713-.373932 5.001445-.747864 7.50209-1.121765 1.115009 7.456848 3.810974 25.486649 4.926003 32.943604.308471 2.062973-1.127156 4.00354-3.190155 4.312011-2.063095.308487-4.003464-1.127258-4.31194-3.190246-1.115024-7.45694-3.810989-25.486756-4.925998-32.943604z" fill="#c93"/><path d="m45.566452 178.932983c.647732-.096847 1.29538-.193695 1.943035-.290527 1.115009 7.456848 3.810974 25.486649 4.926003 32.943604.308471 2.062973-1.127156 4.00354-3.190155 4.312011-.852169.127426-1.683411-.043075-2.387436-.432113 2.387718.431518 3.952308-1.46431 3.610508-3.750183-1.10701-7.403351-3.79493-25.379349-4.901955-32.782792z" fill="#bd8b28"/><path d="m43.602299 178.159164c2.07164-.309768 3.820945-.09349 3.907188.483292.086216.576599-1.523292 1.295197-3.594932 1.604981-2.071553.309753-3.820942.093383-3.907158-.483216-.086243-.576752 1.523349-1.295303 3.594902-1.605057z" fill="#edbb56"/><path d="m43.64867 178.469269c1.45636-.217774 2.686211-.065674 2.746834.339752.060612.40535-1.070957.910538-2.527317 1.128296-1.456368.217773-2.686218.065689-2.74683-.339661-.060623-.405426 1.07095-.910614 2.527313-1.128387z" fill="#a67a21"/><path d="m43.221859 180.011627c-1.157517.091156-2.049114-.070312-2.100502-.413971-.057758-.386276.966347-.862976 2.322586-1.095474-.136612.481644-.213257.988617-.222084 1.509445z" fill="#876217"/><path d="m42.440815 185.726639c.000187-.000015.000187-.000015.000187-.000015.45927-.027863.894203.362701.962994.822753.531822 3.556672 2.644546 17.685944 3.176345 21.242463.068749.459747-.253608.822052-.712932.849548 0 0 0 0-.000187.00003-.459065.027802-.894097-.362838-.962845-.822601-.531826-3.556702-2.644554-17.685974-3.176365-21.242554-.068787-.460037.253685-.822174.712803-.849624z" fill="#deab45"/><path d="m41.927212 182.291809c.000187-.00003.000187-.00003.000187-.00003.452972-.060654.879718.265869.947334.718063.045162.302017.090309.603958.135468.90596.067588.452026-.248517.865417-.701489.926086 0 0 0 0-.000191.000031-.45298.060577-.879612-.265961-.947242-.718277-.045159-.302002-.090294-.603836-.135453-.905838-.067615-.452225.248402-.865448.701386-.925995z" fill="#deab45"/><path d="m47.464966 178.649109c2.5009-.373963 5.001362-.747849 7.502167-1.121796.964187 6.448197 3.50933 23.46933 4.473491 29.917374.308533 2.063339-1.127044 4.003525-3.190227 4.312027-2.063.308472-4.003407-1.126892-4.311936-3.190247-.964164-6.448028-3.509308-23.469177-4.473495-29.917358z" fill="#c93"/><path d="m53.02412 177.817856c.647732-.096848 1.295281-.19368 1.943013-.290543.964187 6.448197 3.50933 23.46933 4.473491 29.917374.308533 2.063339-1.127044 4.003525-3.190227 4.312027-.852078.127411-1.683388-.042908-2.387318-.431961 2.387661.431717 3.95237-1.463944 3.610542-3.749985-.95623-6.394974-3.493312-23.362228-4.449501-29.756912z" fill="#bd8b28"/><path d="m51.060055 177.044006c2.071621-.309753 3.820835-.093444 3.907078.483307.086219.576599-1.523201 1.295197-3.594822 1.604981-2.071823.309784-3.821049.093399-3.907269-.4832-.086243-.576767 1.52319-1.295273 3.595013-1.605088z" fill="#edbb56"/><path d="m51.106426 177.354126c1.456265-.217743 2.686302-.065704 2.746926.339737.060611.40535-1.071145.910568-2.527413 1.128311-1.45647.217789-2.68621.065674-2.746822-.339661-.060623-.405441 1.070835-.910614 2.527309-1.128387z" fill="#a67a21"/><path d="m50.679619 178.896484c-1.157799.091187-2.049114-.070312-2.100502-.413971-.057759-.386291.966163-.86296 2.322395-1.095443-.136516.481613-.213165.988601-.221893 1.509414z" fill="#876217"/><path d="m49.874573 184.450317c.458408-.037857.89423.3629.96299.822754.425018 2.842392 2.430912 16.257202 2.855903 19.099411.068775.459946-.254581.81192-.712906.849732-.458469.03804-.894382-.362778-.963184-.822907-.424992-2.842224-2.430885-16.257019-2.855892-19.099334-.068787-.460038.254577-.811905.713089-.849656z" fill="#deab45"/><path d="m49.385067 181.176651c.452698-.062454.879745.266037.947334.718063.037133.248322.074276.496735.111397.744965.067589.452026-.248802.863556-.701504.925995-.452903.062378-.879898-.26593-.947517-.71814-.037117-.248199-.074234-.49646-.111378-.744858-.067604-.452118.248764-.863632.701668-.926025z" fill="#deab45"/><path d="m54.922707 177.533966c2.50064-.373917 5.001453-.747864 7.502094-1.12178.813381 5.439651 3.207661 21.451858 4.021015 26.891311.308525 2.063355-1.127052 4.003525-3.190052 4.311997-2.063179.308502-4.003517-1.126877-4.312046-3.190216-.813355-5.439469-3.20763-21.451676-4.021011-26.891312z" fill="#c93"/><path d="m60.481602 176.702759c.647915-.096894 1.295646-.193741 1.943199-.290573.813381 5.439651 3.207661 21.451858 4.021015 26.891311.308525 2.063355-1.127052 4.003525-3.190052 4.311997-.85244.127472-1.683537-.042679-2.387379-.431748 2.387524.431549 3.952034-1.464279 3.610237-3.750137-.805393-5.386215-3.191658-21.344833-3.99702-26.73085z" fill="#bd8b28"/><path d="m58.517719 175.928894c2.071621-.309784 3.820839-.093475 3.907082.483292.08622.576599-1.523205 1.295211-3.59483 1.604965-2.071815.309799-3.821048.093414-3.907264-.483185-.086243-.576767 1.523193-1.295288 3.595012-1.605072z" fill="#edbb56"/><path d="m58.564087 176.238983c1.456272-.217743 2.685947-.065643 2.746571.339798.060611.40535-1.070782.910507-2.527054 1.128266-1.456467.217788-2.686306.065689-2.746914-.339646-.060627-.405441 1.07093-.910614 2.527397-1.128418z" fill="#a67a21"/><path d="m58.137096 177.781372c-1.157623.091171-2.049022-.070312-2.100406-.413971-.057762-.386291.966259-.862976 2.32249-1.095459-.136699.481629-.213352.988617-.222084 1.50943z" fill="#876217"/><path d="m57.308029 183.173935c.457562-.047836.894322.362991.963093.822922.318199 2.128021 2.217285 14.828537 2.535473 16.956451.068802.460144-.255417.801941-.712982.849747-.457562.047836-.894291-.362793-.963066-.822739-.318215-2.128113-2.217297-14.828613-2.535485-16.956543-.06879-.460052.255245-.801819.712967-.849838z" fill="#deab45"/><path d="m56.84264 180.061523c.452541-.064163.879818.266037.947411.718049.029087.194549.058189.389175.08728.583709.067619.45221-.249035.861847-.701565.926102-.452553.064102-.879822-.266037-.947441-.718247-.029072-.194427-.058163-.388977-.087261-.583587-.06762-.45221.249019-.861939.701576-.926026z" fill="#deab45"/><path d="m62.380192 176.418854c2.500644-.373902 5.001629-.747879 7.50227-1.121796.662574 4.431076 2.906021 19.43454 3.568611 23.865784.308448 2.06282-1.127251 4.003372-3.190255 4.311844-2.062995.308487-4.00357-1.127228-4.312019-3.190033-.66259-4.431244-2.906036-19.434708-3.568607-23.865799z" fill="#c93"/><path d="m67.939262 175.587616c.647919-.096878 1.295288-.19368 1.9432-.290558.662574 4.431076 2.906021 19.43454 3.568611 23.865784.308448 2.06282-1.127251 4.003372-3.190255 4.311844-.852073.127411-1.68341-.043061-2.387245-.432129 2.387726.431701 3.952027-1.464279 3.61023-3.750153-.654556-4.377456-2.890007-19.327499-3.544541-23.704788z" fill="#bd8b28"/><path d="m65.975204 174.813782c2.071618-.309769 3.821015-.093491 3.907258.483276.086219.576599-1.523385 1.295227-3.595002 1.604996-2.07164.309769-3.820869.093368-3.907085-.483231-.086243-.576751 1.523189-1.295273 3.594829-1.605041z" fill="#edbb56"/><path d="m66.021576 175.123886c1.456268-.217758 2.686119-.065658 2.746742.339768.060616.405334-1.070953.910537-2.527229 1.128295-1.456284.217743-2.686306.065674-2.746918-.33966-.060623-.405426 1.071114-.910645 2.527405-1.128403z" fill="#a67a21"/><path d="m65.594582 176.66626c-1.157448.091156-2.049023-.070313-2.100411-.413971-.057758-.386276.966255-.862976 2.322678-1.09549-.136704.481659-.213356.988633-.222267 1.509461z" fill="#876217"/><path d="m64.741623 181.897797c.456581-.058075.894287.362823.963066.822754.211372 1.413635 2.00367 13.399978 2.21505 14.813613.068748.459748-.256409.791581-.713005.849564-.456749.058182-.894471-.362793-.96325-.822723-.21138-1.413651-2.003654-13.399872-2.215034-14.813507-.068764-.45987.256386-.791779.713173-.849701z" fill="#deab45"/><path d="m64.300308 178.946396c.452477-.065811.879814.266037.947403.718063.02108.14093.042137.281769.06321.422714.067589.452027-.249474.860154-.701584.925904-.452469.065902-.879978-.265808-.947598-.718018-.021083-.141022-.042133-.281784-.063194-.422622-.067615-.45221.249291-.860138.701763-.926041z" fill="#deab45"/><path d="m69.83786 175.303726 7.502091-1.12178 3.116104 20.839554c.308471 2.063003-1.126885 4.003494-3.190064 4.311996-2.063003.308487-4.003525-1.127045-4.312027-3.190216z" fill="#c93"/><path d="m75.396935 174.472488 1.943016-.290542 3.116104 20.839554c.308471 2.063003-1.126885 4.003494-3.190064 4.311996-.852066.127411-1.683754-.042999-2.387604-.432068 2.387726.431702 3.952431-1.464157 3.610604-3.750213z" fill="#bd8b28"/><path d="m73.432854 173.698654c2.071815-.309799 3.820854-.09346 3.907097.483292.086219.576599-1.523026 1.295181-3.594841 1.60498-2.071625.309754-3.82103.093399-3.90725-.4832-.086243-.576767 1.523369-1.295303 3.594994-1.605072z" fill="#edbb56"/><path d="m73.479225 174.008759c1.456284-.217759 2.686119-.065674 2.746742.339767.060616.40535-1.070945.910538-2.527229 1.128281-1.456268.217758-2.686294.065704-2.746902-.339661-.060624-.405426 1.071113-.910645 2.527389-1.128387z" fill="#a67a21"/><path d="m73.052254 175.551132c-1.157257.09111-2.049034-.070312-2.100418-.413986-.057763-.386261.966255-.862961 2.322677-1.095474-.136703.481643-.213356.988632-.222259 1.50946z" fill="#876217"/><path d="m72.175011 180.621521.000175-.000031c.455979-.068176.894135.363022.962883.822785l1.894608 12.670563c.068748.459777-.256989.78157-.712792.849731l-.000183.000015c-.455803.068161-.894157-.363006-.962906-.822769l-1.894615-12.670654c-.068764-.459839.257019-.781479.71283-.84964z" fill="#deab45"/><path d="m71.75779 177.831299.000183-.000031c.452026-.067596.879631.266053.94722.718079l.039077.261368c.06762.452224-.249328.858566-.701355.926162l-.000183.000031c-.452026.067581-.879654-.266052-.947265-.71817l-.039093-.261444c-.067612-.452225.249389-.858399.701416-.925995z" fill="#deab45"/><path d="m93.442841 58.169647c-1.655243-.770492-3.887505-.177185-4.986084 1.325119-1.098694 1.502381-.647469 3.344864 1.00753 4.115311 1.655166.770447 3.887436.177139 4.986069-1.32518 1.098693-1.502365.64759-3.344818-1.007515-4.11525z" fill="#fadb3d"/><path d="m93.685768 59.368195c-1.503586-.699891-3.531265-.160965-4.529404 1.20372-.997909 1.364807-.588394 3.038391.915192 3.738281 1.503525.699966 3.531441.161102 4.529457-1.203705.99791-1.364685.588272-3.038391-.915245-3.738296z" fill="#e99e2e"/><path d="m80.840019 40.88028-.217216 4.248062c-.485749 9.502563 4.566246 17.892074 13.192421 21.907577l18.665519 8.689194c19.864655 9.24707 10.243699 43.150406-14.684822 31.545853l-21.378845-9.952347c-10.690987-4.77002-4.013878-21.902237 9.136192-15.780853l13.066323 6.082565c5.703354 2.655121 4.505142 9.330475.469764 12.160171l-2.283004-1.062668c1.885528-1.613754 3.31427-4.989089.028557-6.518859l-13.492234-6.280671c-3.612358-1.585846-6.165992 3.569611-2.499069 5.368378l21.853706 10.17337c9.151085 4.259949 14.943451-10.960784 4.391488-15.872726l-17.055123-7.939377c-7.001472-3.259186-14.487419-2.917038-21.16198.967682-2.850303 1.658814-5.656368 3.703751-8.42535 6.073532-8.657741-8.963348 7.475865-45.986023 20.393673-43.808883z" fill="#f3b528"/><path d="m98.231857 96.948853c.892021-1.654084.932045-3.66565-1.396949-4.749878l-4.692467-2.184189-4.679772-2.17862-4.119995-1.917862c-2.647354-1.162063-4.72554 1.296113-4.204223 3.400345l-.050515-.020263c-.827385-1.179551-.758911-2.768052.166481-3.872422.925385-1.104385 2.477166-1.449264 3.783577-.841293l4.473793 2.082596c.342789.159515.699028.165649 1.047036.017944.348007-.147705.590934-.408371.71408-.765747.217789-.631714.239457-1.335495.020623-2.016327l-.235977-.734009 4.679534 2.178406c-.853263.20018-1.567359.781265-1.937141 1.575638-.012802.027679-.025261.055481-.037186.083405-.325477.761825.012917 1.645614.764016 1.995132l5.091209 2.370224c.785728.365738 1.325645.97406 1.595566 1.797623.270149.823669.195144 1.633316-.221497 2.393402l-.759849 1.38623z" fill="#e99e2e"/><path d="m116.896332 106.46814c-4.382683 3.517135-10.916535 4.612243-19.100411.802826l-21.378845-9.952347c-4.153824-1.853195-5.684631-5.572373-5.233757-9.069123.274437 2.731812 1.940567 5.253113 4.610382 6.496033l24.086777 11.21254c5.018394 2.33641 11.791244 3.916687 17.015854.510071z" fill="#e99e2e"/><path d="m105.997635 102.200089c7.058922-.184891 10.30162-12.325242 1.091164-16.612763l-17.055123-7.939377c-7.001472-3.259186-14.487419-2.917038-21.16198.967682-2.850303 1.658814-5.656368 3.703751-8.42535 6.073532-5.668068-5.868255-.7098-23.762054 7.015034-34.810074l-1.127663 2.543305c-1.979606 4.465576-2.837108 9.347687-2.497795 14.220566.114807 1.648574 1.115975 3.104782 2.614212 3.802185 1.498253.697464 3.256943.526001 4.592316-.447419 2.481689-1.809066 5.76017-2.098053 8.51989-.75093l27.467781 12.849365c6.146515 2.490829 9.008644 7.938095 8.271042 11.87355-.880387 4.697617-4.977501 9.234085-9.303528 8.230378z" fill="#e99e2e"/><path d="m101.936539 71.742233c-6.034317-2.809143-10.926796-5.084839-11.182114-4.536255-.255394.548584 4.223045 3.71373 10.257362 6.522797 6.034256 2.809021 11.339333 4.198257 11.594773 3.649597.255317-.548538-4.63575-2.827255-10.670021-5.636139z" fill="#fadb3d"/><path d="m80.635315 55.006668c-1.348465-3.312073-1.341393-6.178314-1.642258-6.055756-.301079.12262-1.466392 3.460495-.117805 6.772553 1.348228 3.312027 4.699699 5.344055 5.001014 5.221481.301087-.12268-1.892478-2.626251-3.240951-5.938278z" fill="#fadb3d"/><path d="m98.991287 100.375153c-3.216957-1.49733-5.825325-2.710602-5.961448-2.418213-.136132.292389 2.251373 1.979843 5.468467 3.477615 3.216957 1.497345 6.045197 2.238068 6.181328 1.945679.13617-.292755-2.471374-1.507309-5.688347-3.005081z" fill="#fadb3d"/><path d="m90.947136 84.670975c-3.332825-1.551544-6.035088-2.808594-6.176178-2.505432-.141106.302932 2.332588 2.051086 5.66552 3.60263 3.33287 1.551651 6.263 2.318909 6.404052 2.015976.140976-.302948-2.560463-1.561508-5.893394-3.113174z" fill="#fadb3d"/><path d="m90.947304 84.670975c-.573273-.2668-1.127831-.524781-1.653778-.767838.146888.457367.185348.925049.128822 1.37442.327499.164383.665886.328537 1.01413.490616.555542.258805 1.100082.495362 1.62239.709213.247673-.349853.570778-.638671.943337-.845687-.640396-.302124-1.332771-.624421-2.054901-.960724z" fill="#f3b528"/><path d="m85.52594 94.556244c-.230782.495697-.015877 1.0849.479835 1.315445.495713.231003 1.084916.016098 1.315796-.479614l6.18898-13.295121c.200592.118973.408875.228928.624588.329254l9.155884 4.262253c1.632172.759735 3.112892.320893 4.127823-.650833.379631-.363525.687386-.798065.90564-1.267029.218368-.469177.352867-.984359.386581-1.508911.090073-1.402328-.527214-2.817871-2.159393-3.577606l-5.889458-2.741638c-1.570663-.731125-3.294243-.754761-4.807319-.202744-1.143593.416947-2.16745 1.163117-2.915131 2.180497-.168205-.245133-.313538-.504288-.434654-.774094-.475098-1.0607-.576241-2.291-.214272-3.491928.469826-1.558441.790489-3.16536.958183-4.798416.166703-1.620713.179612-3.258835.035851-4.892121l.001511-.003479-.202797-2.301941c-.048653-.543426-.528672-.944564-1.072174-.895904-.543435.048599-.944664.528717-.895897 1.072113l.203018 2.301941.001861-.000229c.132874 1.509888.120766 3.021713-.03273 4.514923-.153381 1.492645-.450882 2.976074-.888961 4.429596-.503586 1.671097-.360398 3.388535.30503 4.873825.302941.676559.713913 1.304092 1.220696 1.856567zm8.860062-14.245072c.52034-.808273 1.284065-1.396087 2.147415-1.711059 1.037231-.378128 2.218017-.362488 3.292961.137863l5.889458 2.741638c.772934.359818 1.066604 1.01088 1.025474 1.650238-.017319.269593-.091278.544495-.212402.804795-.121117.259964-.284004.493744-.478974.680496-.462806.442993-1.150077.637512-1.923011.277679l-9.156006-4.262146c-.204361-.09523-.399498-.202148-.584915-.319504z" fill="#fadb3d"/><path d="m86.477615 86.781601 6.865067 3.195648c.543503.253143-.215416 1.882874-.758743 1.630097l-6.865006-3.195771c-.543327-.252899.215363-1.882995.758682-1.629974z" fill="#fadb3d"/><path d="m84.97554 86.221252.166245.077378-.031746.068466c-.103676.222778-.006607.488998.216179.592804l1.377075.640976-.21212.455856-1.37719-.641098c-.222771-.103683-.488998-.006485-.592796.216293l-.031746.068238-.166237-.077286c-.467094-.217438.185242-1.618957.652336-1.401627z" fill="#fadb3d"/><path d="m85.37104 89.159012c2.288452 1.065216 4.576676 2.130325 6.864891 3.195541.543503.253128-.215477 1.883332-.758743 1.630203-2.288269-1.065216-4.576614-2.130432-6.865059-3.195526-.543091-.253128.215592-1.883331.758911-1.630218z" fill="#fadb3d"/><path d="m83.868851 88.598785c.055496.025605.110977.05156.166244.077271-.010666.022934-.021202.045639-.031746.068466-.103798.222763-.006721.488876.216057.59256.459107.213745.918083.427597 1.377197.64122-.070777.1521-.141449.303986-.212234.456085-.458984-.213852-.918099-.427475-1.377083-.641327-.222771-.103805-.489113-.006485-.592789.216278-.010658.022828-.021202.045655-.031746.068238-.05548-.025605-.110862-.05156-.166351-.077149-.467102-.217682.185234-1.619201.652451-1.401642z" fill="#fadb3d"/><path d="m84.264351 91.536453 6.865005 3.195755c.543328.252793-.215477 1.882996-.758918 1.630097l-6.864884-3.195771c-.543327-.253128.215477-1.88298.758797-1.630081z" fill="#fadb3d"/><path d="m82.762161 90.976212.166352.077377-.031968.068237c-.103683.222885-.006492.488983.216172.592667l1.377304.641113-.212349.456101-1.37719-.641114c-.222771-.103683-.488884-.006836-.59256.216049l-.031967.068467-.166252-.077378c-.467094-.217346.185242-1.619201.652458-1.401519z" fill="#fadb3d"/><path d="m165.879379 115.523132c2.194184 0 3.690354 2.35643 3.343277 5.263535-.34703 2.907112-2.406204 5.263725-4.60083 5.263725-2.193344 0-3.689941-2.356613-3.34288-5.263725.347473-2.907105 2.407104-5.263535 4.600433-5.263535zm-26.177749 0c-2.193756 0-3.690537 2.35643-3.34375 5.263535.347717 2.907112 2.407318 5.263725 4.600662 5.263725 2.193741 0 3.690582-2.356613 3.343536-5.263725-.347473-2.907105-2.40712-5.263535-4.600448-5.263535z" fill="#f5891e"/><path d="m124.265839 286.85675h57.049545v-87.451675h-57.049545z" fill="#634f4f"/><path d="m129.62854 144.254089 14.998459-4.129486h16.327042l14.998199 4.129486v48.60112c0 12.738953-10.423004 23.161515-23.161972 23.161515-12.738709 0-23.161728-10.422562-23.161728-23.161515z" fill="#fff"/><path d="m123.118744 141.697327 4.991745-3.660492 8.163269 3.037231 8.353241-.949463v45.374253c0 6.7061-3.418396 12.950088-9.068329 16.562957-5.649933 3.612503-12.751999 4.096268-18.839523 1.282807v-34.173279l-48.470536-27.984573c-6.084846-3.512864-8.254291-11.23996-4.886173-17.40625 3.367443-6.166748 11.04073-8.518967 17.285397-5.298279z" fill="#634f4f"/><path d="m182.462708 141.697327-4.99173-3.660492-8.164185 3.037231-8.352752-.949463v45.374253c0 6.7061 3.418121 12.950088 9.068511 16.562957 5.649521 3.612503 12.751771 4.096268 18.838608 1.282807v-34.173279l48.471665-27.984573c6.08464-3.512864 8.253616-11.23996 4.886413-17.40625-3.36766-6.166748-11.041427-8.518967-17.286255-5.298279z" fill="#634f4f"/><path d="m56.961983 110.61554c1.668537-2.017594 4.683422-2.302903 6.701023-.634766l5.145763 4.255585c2.017594 1.668579 2.303108 4.683868.634529 6.701004-1.668129 2.017601-4.684105 2.303131-6.701023.634994l-5.145759-4.255813c-2.017598-1.668564-2.303116-4.683869-.634533-6.701004z" fill="#f93"/><path d="m69.208687 135.635284c5.237861 0 9.5103-4.271759 9.5103-9.510047 0-5.237862-4.272439-9.510293-9.5103-9.510293-5.23827 0-9.510487 4.272431-9.510487 9.510293 0 5.238288 4.272217 9.510047 9.510487 9.510047z" fill="#fff"/><path d="m63.097958 135.635742c6.820552 0 12.383724-5.563232 12.383724-12.383743 0-6.820557-5.563172-12.383484-12.383724-12.383484-6.820549 0-12.383725 5.562927-12.383725 12.383484 0 6.820511 5.563176 12.383743 12.383725 12.383743z" fill="#f93"/><path d="m58.346817 116.632446-30.351482-41.602691.806734-.601792 32.975015 39.663437c1.287243 1.548584-2.243106 4.167557-3.430267 2.541046z" fill="#634f4f"/><path d="m152.790268 142.789581h-.999497l-.878631.879288-3.989136-2.303055-.386459.669922c-.574982.99643-.822434 2.148193-.707337 3.29306-.115097 1.144684.132355 2.296906.707337 3.293335l.386459.669922 3.989136-2.303116.878631.879136h.999497.999969l.879075-.879136 3.988693 2.303116.386459-.669922c.574967-.996429.822861-2.148651.707321-3.293335.11554-1.144867-.132354-2.29663-.707321-3.29306l-.386459-.669922-3.988693 2.303055-.879075-.879288z" fill="#634f4f"/><path d="m249.048843 110.61554c-1.667892-2.017594-4.682785-2.302903-6.700775-.634766l-5.145828 4.255585c-2.017136 1.668579-2.302612 4.683868-.634308 6.701004 1.668823 2.017601 4.683655 2.303131 6.701737.634994l5.145736-4.255813c2.017151-1.668564 2.302658-4.683869.633438-6.701004z" fill="#f93"/><path d="m236.803009 135.635284c5.237824 0 9.510269-4.271759 9.510269-9.510047 0-5.237862-4.272445-9.510293-9.510269-9.510293-5.238739 0-9.509842 4.272431-9.509842 9.510293 0 5.238288 4.271103 9.510047 9.509842 9.510047z" fill="#fff"/><path d="m242.9133 135.635742c6.821212 0 12.383941-5.563232 12.383941-12.383743 0-6.820557-5.562729-12.383484-12.383941-12.383484-6.819886 0-12.382599 5.562927-12.382599 12.383484 0 6.820511 5.562713 12.383743 12.382599 12.383743z" fill="#f93"/><path d="m144.626999 140.124603 8.163269 2.01117 8.163773-2.01117v-17.629112h-16.327042z" fill="#f5891e"/><path d="m138.955353 105.928543h27.670334v19.298554c0 7.609329-6.225388 13.835189-13.834961 13.835189h-.000458c-7.609543 0-13.834915-6.22586-13.834915-13.835189z" fill="#f93"/><path d="m158.294159 130.585327c-.344391 2.726257-2.687744 4.852097-5.503891 4.852097-2.815659 0-5.159027-2.12584-5.503433-4.852097z" fill="#fff"/><path d="m166.625687 120.547668 2.139755-11.369628c.696258-3.700104-1.408539-7.355683-4.957642-8.61171l-1.112823-1.011704c-2.692612-2.448059-6.277222-3.674606-9.904709-3.389541-3.627487-.285065-7.211166.941482-9.903778 3.389541l-1.113251 1.011704c-3.549148 1.256027-5.653503 4.911606-4.957229 8.61171l2.139343 11.369628 2.463989-9.156189c2.638382 2.033738 5.875473 3.136155 9.206833 3.136155h2.164093 2.164551c3.33136 0 6.568435-1.102417 9.206207-3.136155z" fill="#634f4f"/><path d="m156.55986 116.129578 4.131256.244766c.615265.036072 1.146881.442444 1.343842 1.026291.196548.584533.019485 1.229675-.447968 1.631134-.467422.401748-1.132263.479202-1.679824.196319l-3.456192-.244766c-.768418-.053985-1.356278-.709137-1.32663-1.479568.029236-.770661.667084-1.419785 1.435516-1.374176z" fill="#634f4f"/><path d="m158.273804 120.123154h.000473c.898102 0 1.632889.734588 1.632889 1.632705v1.002114c0 .89772-.734787 1.632522-1.632889 1.632522h-.000473c-.897705 0-1.632492-.734802-1.632492-1.632522v-1.002114c0-.898117.734787-1.632705 1.632492-1.632705z" fill="#634f4f"/><path d="m149.020691 116.129578-4.130798.244766c-.615265.036072-1.147309.442444-1.343857 1.026291-.19722.584533-.019501 1.229675.447967 1.631134.467408.401748 1.132721.479202 1.679825.196319l3.456192-.244766c.768891-.053985 1.356278-.709137 1.326645-1.479568-.029663-.770661-.667099-1.419785-1.435974-1.374176z" fill="#634f4f"/><path d="m147.306778 120.123154h-.000458c-.897705 0-1.632492.734588-1.632492 1.632705v1.002114c0 .89772.734787 1.632522 1.632492 1.632522h.000458c.897659 0 1.632904-.734802 1.632904-1.632522v-1.002114c0-.898117-.735245-1.632705-1.632904-1.632705z" fill="#634f4f"/><path d="m236.965042 222.969955c15.077057 1.205094 27.523361-.612014 27.798874-4.059112l.393829-4.927109-10.543777-.842773c-4.559876-1.193024-10.334885-2.148102-16.65126-2.65297-6.316376-.504867-12.169938-.479248-16.861084-.02565l-10.544129-.842773-.393829 4.927109c-.275513 3.447097 11.723938 7.218139 26.801376 8.423278z" fill="#ffdede"/><path d="m238.356552 205.560684c15.036575 1.201874 27.075943 4.985672 26.801193 8.42305-.27478 3.437561-12.762313 5.260956-27.798889 4.059097-15.036209-1.201843-27.076126-4.985702-26.801361-8.423263.27475-3.437378 12.762848-5.260712 27.799057-4.058884z" fill="#ffbaba"/><path d="m237.477005 216.564743c13.304016 1.063385 24.285538-.540268 24.528641-3.581497l2.034637-25.455521c-16.081421-1.285385-32.095718-2.565384-48.177307-3.850784l-2.034637 25.455521c-.243088 3.041229 10.344833 6.368911 23.648666 7.432281z" fill="#bd8f24"/><path d="m237.477005 216.564743c13.304016 1.063385 24.285538-.540268 24.528641-3.581497l1.492859-18.677246-4.802857 17.839157-4.508407-15.583832-5.607315 17.304962-9.417862-18.383545-12.218583 16.65416-2.787139-17.975922-6.926926 14.6698-1.908218-18.37558-1.492859 18.677262c-.243088 3.041229 10.344833 6.368911 23.648666 7.432281z" fill="#d1bb45"/><path d="m239.354736 193.072266c15.077072 1.205108 27.523377-.611969 27.798859-4.058701l.39386-4.92749-10.543793-.842758c-4.559875-1.193024-10.334869-2.148285-16.65123-2.653153-6.316375-.504867-12.169967-.479049-16.861114-.025467l-10.544129-.842788-.393844 4.92749c-.275498 3.446731 11.723953 7.217743 26.801391 8.422867z" fill="#ffdede"/><path d="m240.746262 175.662857c15.036575 1.201859 27.075943 4.985626 26.801193 8.423218-.27478 3.437591-12.762314 5.26094-27.798889 4.059082-15.036209-1.201843-27.076142-4.985672-26.801377-8.423248.274765-3.437592 12.762863-5.26088 27.799073-4.059052z" fill="#ffbaba"/><path d="m240.641281 176.976334c13.592697 1.086456 24.502579 4.186264 24.28566 6.900283-.21695 2.714035-11.480682 4.041321-25.07338 2.954865-13.592697-1.086456-24.502227-4.186035-24.285293-6.90007.216934-2.714005 11.480301-4.041535 25.073013-2.955078z" fill="#f7a6a6"/><path d="m239.853561 186.831482c11.874817.949158 21.923783.067123 24.458664-1.97551-2.178253-2.41922-11.959503-4.886612-23.83432-5.835769-11.874817-.949143-21.923813-.066773-24.458481 1.975753 2.17804 2.419342 11.959321 4.886383 23.834137 5.835526z" fill="#fcc"/><path d="m249.470703 183.396423c-.201218-1.313293.700577-2.540664 2.014404-2.741882 1.313538-.201202 2.541718.700897 2.742661 2.014679.200958 1.313293-.700867 2.541718-2.014679 2.74292-1.313828.200714-2.541718-.701386-2.742386-2.015717z" fill="#c63"/><path d="m253.656693 183.690765c-1.027314.128296-1.282105-1.64447-.279618-1.826614l43.100861-7.812637.643554 4.202209z" fill="#943303"/><path d="m248.399506 178.736649c-.466156-1.244156.164886-2.630326 1.409576-3.096573 1.244415-.466187 2.631424.165008 3.097412 1.409713.465881 1.244217-.164993 2.631394-1.409668 3.097641-1.244781.46576-2.631515-.165496-3.09732-1.410781z" fill="#c63"/><path d="m252.556931 178.166687c-.979203.336151-1.591965-1.346741-.648102-1.730499l40.584244-16.481568 1.491241 3.981064z" fill="#943303"/><g fill="#f5a40e"><path d="m266.394104 28.966339 2.075409 2.806213-1.131165.83664-2.075714-2.806229z"/><path d="m266.059509 27.581451.43451.587342c.411468.556366.293151 1.348251-.263245 1.75972l-.000305.000091c-.556092.411347-1.347931.292862-1.759308-.263382l-.434784-.587372c-.411499-.556442-.292816-1.348129.263245-1.759735l.000518-.000168c.556183-.411254 1.347931-.292892 1.759369.263504z"/><path d="m263.522736 31.09024c.691558.935288 1.383728 1.87056 2.075347 2.806046-.37741.27919-.754302.557831-1.1315.836655-.691498-.93515-1.383148-1.870743-2.075317-2.806061.376892-.278687.753998-.55777 1.13147-.83664z"/><path d="m263.18811 29.705353c.144532.195678.289704.391678.43451.587311.411407.556259.29309 1.348022-.263306 1.759597l-.000183.000397c-.556427.411316-1.347992.292725-1.759979-.263504-.144532-.195877-.289368-.391647-.434235-.587524-.411438-.556412-.292786-1.348084.263336-1.759476l-.00003-.000153c.556274-.411728 1.34848-.292907 1.759887.263352z"/><path d="m260.651001 33.214066 2.075623 2.805969-1.131409.836944-2.075409-2.80632z"/><path d="m260.316742 31.829239.434479.587341c.411407.556275.292572 1.348297-.263336 1.759415l-.000306.000107c-.556305.411758-1.347839.29306-1.759308-.263382l-.434783-.587357c-.411408-.556244-.292817-1.348068.263275-1.759628.556396-.411423 1.34851-.292908 1.759979.263504z"/><path d="m276.162628 42.173782-2.075348-2.806045-1.131164.836578 2.075378 2.806061z"/><path d="m277.389282 42.899094-.434875-.58751c-.411408-.556381-1.203217-.674819-1.759613-.26329-.556397.411469-.674683 1.203384-.263336 1.759506l.434356.587815c.411621.555862 1.203491.674652 1.759522.263015l.00058-.000183c.556427-.411438.674682-1.203354.263366-1.759353z"/><path d="m273.291199 44.297531c-.691559-.935287-1.383728-1.870621-2.075409-2.806198-.377411.279007-.754212.558029-1.131378.836853.692169.935242 1.383758 1.870697 2.075714 2.806213.376861-.278701.754181-.558014 1.131073-.836868z"/><path d="m274.517822 45.022736c-.145141-.195679-.290008-.391617-.434814-.587357-.411682-.556213-1.203217-.674744-1.759644-.263306-.556396.411469-.674957 1.203446-.263458 1.759873.145081.195633.289886.391388.434448.587311.411438.556381 1.203491.674621 1.759644.263412.556427-.411468.674713-1.203354.263824-1.759933z"/><path d="m270.41983 46.421616-2.075439-2.806397-1.131409.836838 2.075653 2.805969z"/><path d="m271.646057 47.146469-.43457-.587463c-.411011-.556107-1.203186-.674759-1.759583-.263291l.000092.000397c-.556488.411072-.674652 1.2034-.263336 1.759323l.434234.587464c.41156.556762 1.203461.674621 1.759644.263427.556396-.411514.675323-1.203277.263519-1.759857z"/></g><path d="m215.597473 104.124466c-.942505 3.442337-2.815735 6.401169-5.617554 8.473343-8.413574 6.223312-22.017456 2.097046-30.384582-9.215195-8.367371-11.312454-8.329636-25.528137.084305-31.75119 2.801788-2.072434 6.17894-2.996964 9.746856-2.89093 5.614731.167236 10.516022-2.583344 13.298569-7.463532.836105-1.466827 1.943894-2.745178 3.322495-3.764969 6.984542-5.165908 18.276764-1.740905 25.222793 7.649796 6.945633 9.390533 6.914292 21.191055-.070343 26.357132-1.37857 1.01944-2.924804 1.704712-4.572769 2.074707-5.480347 1.231674-9.545486 5.112961-11.02977 10.530838z" fill="#f5ac00"/><path d="m261.483093 37.234436 5.336121 7.214294-35.628189 26.352234c-1.467407-1.984069-4.291321-2.406952-6.274811-.93927l-2.668076-3.607132z" fill="#332d2a"/><path d="m274.353455 33.295364.000061.000229c2.283111 3.086716 1.625396 7.480072-1.46109 9.762924l-2.662629 1.969132c-3.086303 2.283417-7.479644 1.625687-9.762725-1.461014l-.000062-.000137c-2.283081-3.086716-1.62564-7.47995 1.46106-9.763062l2.662384-1.969162c3.086701-2.283096 7.47995-1.625641 9.763001 1.46109z" fill="#332d2a"/><path d="m216.606537 76.008011c3.216522 4.349213 2.298569 10.482773-2.0504 13.699661-4.349228 3.216507-10.48288 2.298752-13.699936-2.050751-3.216812-4.349166-2.299011-10.482681 2.050095-13.699646 4.349518-3.217025 10.483291-2.298843 13.700241 2.050736z" fill="#d19200"/><path d="m214.738937 77.389099c2.454102 3.317581 1.753403 7.996811-1.564407 10.450821-3.317673 2.453842-7.996613 1.753967-10.450729-1.564102-2.453965-3.3181-1.75354-7.996796 1.564102-10.450729 3.317657-2.454011 7.997055-1.754105 10.451034 1.56401z" fill="#593e00"/><path d="m216.192032 82.240631c-.118057 2.144577-1.155579 4.221985-3.017502 5.599289-3.317673 2.453842-7.996613 1.753967-10.450729-1.564102-.414383-.560257-.73877-1.160111-.975785-1.780747.118393-2.144348 1.155838-4.222045 3.017762-5.599319 3.317627-2.45401 7.996688-1.753693 10.450531 1.56398.414856.560257.739074 1.160065.975723 1.780899z" fill="#805a00"/><path d="m187.675201 86.588196 10.344361 13.985382c.463302.626816.329971 1.518219-.296692 1.981491l-.000153.000061c-.626449.463486-1.518203.329971-1.981567-.296539l-10.344193-13.985291c-.463424-.62677-.330062-1.518524.296616-1.981766.626678-.463241 1.518036-.330062 1.981628.296662z" fill="#332d2a"/></g><path d="m168.355698 9.785858-27.875245 6.765274v29.170151c-.959533-.431824-2.302459-.672012-3.789733-.672012-.91156 0-1.871003.191146-2.926484.622894-.659683.263916-1.256423.584991-1.780426.951538-.524002.366547-.975067.779388-1.343902 1.226196-.36882.446762-.654358.927689-.848511 1.43216-.194153.504532-.297562 1.033096-.297562 1.572784 0 .503784.108368 1.030884.294297 1.528641.185898.497772.450012.964996.761856 1.348816.407791.455795.946899.804275 1.600601 1.038193.653656.233856 1.422012.353164 2.285599.353164.707657 0 1.456939-.12883 2.200577-.359741.743637-.230896 1.480957-.563339 2.164627-.97113s1.314804-.889954 1.842544-1.420731c.527756-.530716.951965-1.110413 1.227814-1.710144.383819-.86351.721008-2.542862.721008-3.742279v-23.364502l23.652268-5.900406v21.30127c-1.151459-.479752-2.590195-.719391-4.077469-.719391-.91156 0-2.63884.527893-3.74231 1.103592-1.031509.551727-1.859772 1.270508-2.429489 2.086151-.284851.407791-.504791.839859-.653976 1.286682-.149155.446762-.227234.908813-.227234 1.376587 0 .503738.108368 1.030884.294281 1.528656.185913.497711.448379.966583.760238 1.350418.407792.45578.93599.802612 1.577683 1.03653.641693.233856 1.397491.354751 2.261078.354751 1.031494 0 2.086288-.229248 3.099807-.649017 1.01352-.419846 1.986054-1.030762 2.84964-1.798401.791626-.743683 1.391694-1.594788 1.793488-2.560272.40181-.965546.604935-2.045899.604935-3.245316z" fill="#fff"/></g><path d="m262 240c0-2.209137-50.591827-4-113-4s-113 1.790863-113 4 50.591827 4 113 4 113-1.790863 113-4z" fill="#ff634d" fill-rule="evenodd"/></svg>