<svg height="320" viewBox="0 0 320 320" width="320" xmlns="http://www.w3.org/2000/svg"><path d="m150 226c27.610001 0 50-22.389999 50-50v-120c0-27.609985-22.389999-50-50-50s-50 22.390015-50 50v120c0 27.610001 22.389999 50 50 50zm70-80v30c0 38.659988-31.340012 70-70 70-38.660004 0-70-31.340012-70-70v-30h-20v30c0 46.320007 35 84.470001 80 89.440002v40.559998h-40v20h100v-20h-40v-40.559998c45-4.970001 80-43.119995 80-89.440002v-30z" opacity=".401828"/><path d="m150 220c27.610001 0 50-22.389999 50-50v-120c0-27.609985-22.389999-50-50-50s-50 22.390015-50 50v120c0 27.610001 22.389999 50 50 50zm70-80v30c0 38.659988-31.340012 70-70 70-38.660004 0-70-31.340012-70-70v-30h-20v30c0 46.320007 35 84.470001 80 89.440002v40.559998h-40v20h100v-20h-40v-40.559998c45-4.970001 80-43.119995 80-89.440002v-30z" fill="#fff"/></svg>