<svg height="50" viewBox="0 0 165 50" width="165" xmlns="http://www.w3.org/2000/svg"><path d="m99.986328 48.732422v-5.458984h6.332031c.474068 0 .859375-.384514.859375-.859375 0-.474862-.385307-.859375-.859375-.859375h-7.214843c-2.612305.000904-4.955574-1.613274-5.890625-4.056641-.935067-2.443817-.269738-5.210304 1.673828-6.958984-3.025978-3.890969-2.739556-9.418267.669922-12.976563 3.409912-3.558746 8.910827-4.070194 12.916015-1.201172.085625-.099304.174294-.194122.267578-.287109.997696-1.005242 2.356049-1.56897 3.771485-1.564453h2.724609v5.458984h-2.607422v4.472656c.000901 2.634754-1.044555 5.16206-2.904297 7.025391-1.859756 1.862881-4.381828 2.909107-7.011718 2.908203h-3.609375c-.474511 0-.859375.384514-.859375.859375s.384864.859375.859375.859375h7.216797c3.483818 0 6.308593 2.830627 6.308593 6.320313 0 3.490135-2.824775 6.318359-6.308593 6.318359zm-52.117187-2.658203v-31.578125h5.449218v1.066406c1.384335-.702362 2.91528-1.068214 4.466797-1.066406 4.100731 0 7.777497 2.528587 9.251953 6.361328 1.474915 3.832739.442292 8.178919-2.597656 10.935547-3.039951 2.75618-7.460178 3.354149-11.121094 1.503906v12.777344zm-13.548828-11.699219c-2.909274-.010178-5.756646-1.301769-7.683594-3.691406-2.935852-3.6409-2.935852-8.841522 0-12.482422 2.9363-3.64135 8.012562-4.73629 12.183594-2.626953v-1.064453h5.449218v19.865234h-5.449218v-1.066406c-1.433793.72493-2.976098 1.071739-4.5 1.066406zm84.070312 0v-5.583984h5.451172v5.583984zm18.494141 0c-2.909272-.010178-5.756638-1.301769-7.683594-3.691406-2.93586-3.6409-2.93586-8.841522 0-12.482422 2.93631-3.64135 8.010605-4.73629 12.181641-2.626953v-1.064453h5.449218v19.865234h-5.449218v-1.066406c-1.433793.72493-2.974137 1.071739-4.498047 1.066406zm13.546875 0v-19.839844h5.449218v19.839844zm-70.107422-.001953c-3.033821-.049908-5.896714-1.445023-7.810547-3.816406v-.001953c-.376724-.474862-.710091-.984334-.992188-1.521485l-.009765-.019531c-.377632-.723576-.662003-1.49176-.847656-2.287109l-.009766-.046875c-1.063492-4.619963 1.280174-9.348839 5.597656-11.292969 4.317032-1.943672 9.403046-.56115 12.146485 3.302734h.003906c.073005.103369.14154.209877.210937.316406.043709.066805.086998.133463.128907.201172.086074.139931.169334.282837.25.427735.031997.057777.062644.117101.09375.175781.098686.186426.193824.373812.28125.568359l.003906.009766.009765.023437.011719.025391.003906.009766.015625.037109.003907.007813.013672.033203.003906.007812.017578.041016 1.070312 2.535156-5.496093 2.275391-.748047.308593-6.0625 2.507813c.689461.424757 1.487999.63631 2.296875.607422 1.634437 0 2.892303-.377928 4.501953-1.751953l3.53125 4.15625c-2.596985 2.214965-4.968742 3.160156-7.925781 3.160156-.098198.001198-.19706.00161-.294922 0zm-73.933594-.044922v-26.117187h-2.369141v-5.458985h11.611329c5.104734 0 9.24414 4.144482 9.24414 9.257813 0 5.11333-4.139406 9.259765-9.24414 9.259765h-3.792969v13.058594zm27.962891-5.412109c2.465847-.003161 4.464088-2.00461 4.466797-4.47461 0-2.470449-2.000054-4.474609-4.466797-4.474609-2.466298 0-4.466797 2.00416-4.466797 4.474609 0 2.470902 2.000499 4.472657 4.466797 4.472657zm102.5625 0c2.46585-.003161 4.464096-2.00461 4.466797-4.47461 0-2.470449-2.000046-4.474609-4.466797-4.474609-2.466294 0-4.464844 2.00416-4.464844 4.474609 0 2.470902 1.99855 4.472657 4.464844 4.472657zm-34.302735-.001953c1.195618.026145 2.377861-.428811 3.25586-1.308594 1.277542-1.279232 1.660011-3.203058.96875-4.875-.691269-1.671944-2.320816-2.761719-4.126953-2.761719-2.465401.002256-4.463639 2.003107-4.466797 4.472656 0 1.809616 1.089126 3.44038 2.757812 4.132813.521599.216383 1.067864.327959 1.611328.339844zm-44.828125-.009766c2.465843-.003161 4.46259-2.006567 4.464844-4.476563 0-1.809616-1.088676-3.440384-2.757812-4.132812-1.669137-.692433-3.58965-.308983-4.867188.970703-1.277088 1.279682-1.658066 3.203056-.966797 4.875.691715 1.671492 2.320377 2.761719 4.126953 2.761719zm18.341797-5.134766.199219-.082031 3.230469-1.335937 3.367187-1.394532c-.027939-.025728-.055145-.050295-.083984-.074218-.755707-.585904-1.684838-.904896-2.640625-.90625-.533097-.001805-1.060799.108455-1.548828.324218-1.396508.621563-2.35611 1.940809-2.521485 3.462891zm-64.287109-7.960937h3.792969c2.094978 0 3.792968-1.700775 3.792968-3.798828 0-2.098503-1.69799-3.800782-3.792968-3.800782h-3.792969zm138.591797-7.160156v-5.761719h5.449218v5.761719z" fill="#fff" fill-rule="evenodd"/></svg>