<svg height="25" viewBox="0 0 25 25" width="25" xmlns="http://www.w3.org/2000/svg"><path d="m21.912704 3.384769c-1.915618-2.001775-5.090591-2.071647-7.092142-.155851l-9.863112 9.438319.679778.710776 9.863261-9.438831c1.620424-1.550724 4.150886-1.495064 5.701455.125313 1.550724 1.620422 1.495064 4.150885-.125263 5.701472l-12.09784 11.577997c-1.620422 1.550724-4.150884 1.495063-5.70147-.125264-.029217-.030525-.057983-.060909-.086011-.092115l-.001218.001022-.036128-.03775c-.937047-.979177-1.054675-2.655764-.075539-3.593044l9.64284-9.228295c.979018-.936874 2.844695-.932865 3.781619.046168l.235883.246486c.936873.979019.844147 2.82763-.13487 3.764503l-8.355181 7.995358.680051.710604 8.35518-7.995356c1.360401-1.301872 1.467279-3.794734.165443-5.155124l-.235889-.246489c-1.301871-1.360401-3.811841-1.378603-5.17224-.076744l-9.642839 9.228297c-1.360401 1.301872-1.257064 3.62322.044812 4.983621l.123256.128801.09988.104367.001218-.001024c1.924731 1.900432 5.024662 1.93485 6.991484.052637l12.097842-11.577999c2.002031-1.915545 2.071954-5.090504.156261-7.092024z" fill="#fff"/></svg>