<svg height="320" viewBox="0 0 320 320" width="320" xmlns="http://www.w3.org/2000/svg"><g fill-rule="evenodd"><path d="m277.743683 140.263275-39.907669-39.025818-18.917374 18.500351 39.905457 39.027954c.579651.56688.579651 1.488526 0 2.055344l-39.907685 39.025818 18.919602 18.502533 39.907669-39.028c11.008423-10.767853 11.008423-28.288147 0-39.058243zm-74.287674-62.394516-30.294922-8.884659-55.324638 173.43776 30.294853 8.884689zm-144.517712 81.924698c0-.400284.148228-.744263.435826-1.027695l39.907737-39.027954-18.919609-18.500351-39.905506 39.025818c-11.010607 10.767853-11.010607 28.290329 0 39.058243l39.905506 39.027939 18.919609-18.502533-39.907737-39.027939c-.287598-.281265-.435826-.627426-.435826-1.025528z" opacity=".297907"/><path d="m273.503387 140.004181-38.481399-38.479294-18.241272 18.241272 38.479248 38.4814c.558929.558944.558929 1.467681 0 2.026565l-38.4814 38.479294 18.243424 18.243439 38.481399-38.481461c10.61496-10.617065 10.61496-27.891998 0-38.511261zm-73.718139-62.371521-28.783753-8.803818-52.564979 171.859696 28.783714 8.803863zm-137.267227 81.628204c0-.394668.142933-.733841.42025-1.013305l38.481453-38.4814-18.243432-18.241272-38.479297 38.479294c-10.617092 10.617065-10.617092 27.89415 0 38.511276l38.479297 38.4814 18.243432-18.243439-38.481453-38.481384c-.277317-.277329-.42025-.618637-.42025-1.01117z" fill="#fff"/></g></svg>