<svg height="2327" viewBox="0 0 2750 2327" width="2750" xmlns="http://www.w3.org/2000/svg"><g fill-rule="evenodd"><path d="m1518.34375 179.544678c643.033691 0 1103.474854 508.105224 1028.438232 1134.889404-42.199462 352.396851-244.673828 667.269287-528.141235 875.431152h-1481.961975c-233.628357-208.161865-360.713776-523.034301-318.522202-875.431152 75.042588-626.78418 657.151352-1134.889404 1300.18718-1134.889404z" fill="#edc7ed"/><path d="m1621.651733 1815.060791c-39.591308 42.28125-57.140869 100.626709-47.460937 157.731323 9.684204 57.108277 45.499634 106.400513 96.805786 133.268433h-455.442017c51.314209-26.86792 87.125367-76.160156 96.811646-133.268433 9.684204-57.104614-7.871216-115.450073-47.460815-157.731323z" fill="#c995c9"/><path d="m1621.651733 1815.060791c-37.231323 39.770508-54.972168 93.74585-48.897216 147.526245-80.899903 32.173462-154.353638 81.034302-215.403321 143.473511h-141.796631c51.314209-26.86792 87.125367-76.160156 96.811646-133.268433 9.684204-57.104614-7.871216-115.450073-47.460815-157.731323z" fill="#b372b3"/><path d="m554.067505 557.317383h1778.416138c35.791015 0 65.063476 29.276855 65.063476 65.061767v1155.57251c0 35.786621-29.272461 65.063233-65.063476 65.063233h-1778.416138c-35.784607 0-65.063324-29.276612-65.063324-65.063233v-1155.57251c0-35.784912 29.278717-65.061767 65.063324-65.061767z" fill="#fff"/><path d="m572.530823 1759.486206h1741.495788v-1118.648315h-1741.495788z" fill="#909"/><path d="m1642.269531 1218.900024h522.062012c23.307617 0 42.362549 19.063233 42.362549 42.362427v343.959717c0 23.290771-19.054932 42.354004-42.362549 42.354004h-522.062012c-23.299194 0-42.358276-19.063233-42.358276-42.354004v-343.959717c0-23.299194 19.059082-42.362427 42.358276-42.362427z" fill="#bd11bd"/><path d="m722.223755 1218.900024h769.769165c23.299194 0 42.358276 19.063233 42.358276 42.362427v343.959717c0 23.290771-19.059082 42.354004-42.358276 42.354004h-769.769165c-23.299194 0-42.36084-19.063233-42.36084-42.354004v-343.959717c0-23.299194 19.061646-42.362427 42.36084-42.362427z" fill="#d117d1"/><path d="m1139.882935 2189.865234h606.789184v-83.804687h-606.789184z" fill="#fff"/><path d="m460.130432 893.171753h1345.497498c103.617553 0 188.395385 84.779907 188.395385 188.396973 0 103.623779-84.777832 188.40332-188.395385 188.40332h-1345.497498c-103.619171 0-188.39917-84.779541-188.39917-188.40332 0-103.617066 84.779999-188.396973 188.39917-188.396973z" fill="#610061"/><path d="m460.130432 959.156616h1182.574646v244.838379h-1182.574646c-67.330017 0-122.414184-55.092041-122.414184-122.426269 0-67.327881 55.084167-122.41211 122.414184-122.41211z" fill="#fff"/><path d="m1790.290894 1203.994995h-1182.574707v-244.838379h1182.574707c67.329956 0 122.414184 55.092041 122.414184 122.42627 0 67.327881-55.084228 122.412109-122.414184 122.412109z" fill="#fff"/><path d="m1028.744019 1150.233887 32.436035-135.462891h18.854004l-32.793457 135.462891zm-54.503296 0 32.436035-135.462891h18.854004l-32.793457 135.462891zm-46.371888-72.020508v-25.108887h25.108887v25.108887zm0 69.786621v-25.108887h25.108887v25.108887zm-130.366088 0v-130.995117h42.443847c16.084107 0 26.56836.655273 31.453125 1.96582 7.505921 1.96582 13.790528 6.23999 18.854004 12.82251 5.063538 6.582519 7.595215 15.086182 7.595215 25.510986 0 8.041992-1.459412 14.803223-4.378418 20.283692-2.918945 5.480468-6.627136 9.784423-11.124756 12.911865-4.497558 3.127441-9.069519 5.19751-13.716064 6.210205-6.314453 1.250977-15.458435 1.876465-27.432129 1.876465h-17.245606v49.413574zm26.449218-108.834961v37.171875h14.475586c10.424866 0 17.394532-.685059 20.90918-2.055176 3.514709-1.370117 6.269775-3.514648 8.265381-6.433593 1.995605-2.918946 2.993408-6.314454 2.993408-10.186524 0-4.765625-1.399841-8.697266-4.199707-11.794922-2.799805-3.097656-6.344177-5.033691-10.633301-5.808105-3.157226-.595703-9.501404-.893555-19.032715-.893555zm-112.405578 108.834961v-108.834961h-38.869629v-22.160156h104.099121v22.160156h-38.780274v108.834961zm-115.443726 0v-108.834961h-38.869629v-22.160156h104.099121v22.160156h-38.780273v108.834961zm-165.214661 0v-130.995117h26.449219v51.558105h51.826172v-51.558105h26.449219v130.995117h-26.449219v-57.276855h-51.826172v57.276855z"/><path d="m1342.578735 2189.865234-7.588745-51.611084v-33.398437c0-34.956787-10.286255-69.148682-29.571655-98.299072l-49.362915-108.134034-123.177124-12.141723-123.174988 12.141723-49.363281 108.134034c-19.289185 29.15039-29.571655 63.342285-29.571655 98.299072v33.398437l-7.588807 51.611084z" fill="#1a1a1a"/><g fill="#f99"><path d="m1606.010498 1297.824585.769165-6.957886c.968262-8.712158 5.094483-16.768432 11.608765-22.635864 8.894897-8.016235 12.227417-20.52832 8.504394-31.91333-.960327-2.956299-.321533-6.195068 1.688477-8.561157 2.01416-2.366333 5.11499-3.521729 8.187012-3.051758 5.647583.887085 10.656616 4.134155 13.753295 8.939575 3.104615 4.797119 4.011719 10.69751 2.485962 16.206665-1.859741 6.760864-1.02539 13.9729 2.327393 20.121216h109.667969l-7.153321 12.37793c-4.382202 7.588867-12.023803 12.728027-20.69873 13.928344l-11.605103 11.995484c-5.672119 5.859619-13.179565 9.61084-21.276611 10.632446-22.688843 2.864502-35.656616 6.15625-58.223755 9.867065l-34.04126 41.011719-41.97583-35.013794z"/><path d="m659.75 1297.824585-.772949-6.957886c-.96875-8.712158-5.096619-16.768432-11.609131-22.635864-8.892944-8.016235-12.229187-20.52832-8.508362-31.91333.9646-2.956299.327515-6.195068-1.686645-8.561157-2.012085-2.366333-5.106263-3.521729-8.176697-3.051758-5.651612.887085-10.658753 4.134155-13.763306 8.939575-3.104614 4.797119-4.007934 10.69751-2.486267 16.206665 1.865845 6.760864 1.031677 13.9729-2.321228 20.121216h-109.674164l7.155426 12.37793c4.386658 7.588867 12.022095 12.728027 20.699158 13.928344l11.604553 11.995484c5.674622 5.859619 13.181702 9.61084 21.275025 10.632446 22.694946 2.864502 35.656677 6.15625 58.223327 9.867065l34.043335 41.011719 41.974182-35.013794z"/><path d="m1207.373779 1251.262817c24.409912 35.168335 14.577027 72.20459 36.136597 85.168335 21.553833 12.955933 22.43042 103.885987 9.23877 117.964722-7.391236 7.889893-50.728272 5.200317-74.517945 3.979492l7.91626 42.602539-94.01416-6.343384-5.395386-46.936279-89.5979-156.628296z"/></g><path d="m1207.373779 1251.262817-3.710815-26.529907c-2.728394-19.515014-15.633423-36.100342-33.882935-43.540405-18.243408-7.438355-39.070434-4.602051-54.660766 7.446289l-126.585083 51.045776c-15.466248 6.23584-23.702088 23.162842-19.06128 39.186646l-2.14624 4.520386c-6.589966 13.879638-5.755859 30.147583 2.219605 43.282104 31.137939 51.249146 71.327514 96.42749 118.605468 133.32544l66.159913-13.977051c6.313354-21.032959 1.296264-83.849976 2.022583-105.806763l41.164184-10.367798-19.905884-33.92334c-9.790039-16.699218-.604126-38.895385 18.412476-42.510864z" fill="#1a1a1a"/><path d="m1150.552124 1315.947876c-11.49292 6.844238-10.29248 30.029175 2.671265 51.765869 12.96167 21.740845 32.784179 33.80957 44.270752 26.961304 11.488769-6.847901 10.29248-30.025025-2.671265-51.765869-12.962036-21.744507-32.784058-33.813355-44.270752-26.961304z" fill="#f99"/><path d="m1224.931641 1278.989258 2.5979 16.035644-4.779175 2.392578c-4.158325 2.091675-7.902099 5.932862-10.996216 11.295899l-3.352905-6.779297c3.141235-8.056641 7.224609-14.461182 11.991211-18.807007z" fill="#1a1a1a"/><path d="m1189.571655 686.866699h507.413697c27.962524 0 50.830078 22.872071 50.830078 50.829956 0 27.960449-22.867554 50.829956-50.830078 50.829956h-507.413697c-27.959961 0-50.829956-22.869507-50.829956-50.829956 0-27.957885 22.869995-50.829956 50.829956-50.829956z" fill="#610061"/><path d="m940.224976 1639.808716-31.648682 286.079712c-1.934998 43.39624 8.81958 86.417846 30.948669 123.795654 133.005799-53.194092 253.702942-53.194092 386.70868 0 22.129272-37.377808 32.883545-80.399414 30.948852-123.795654l-31.648804-286.079712 26.306275-8.512451c98.828003-31.974244 186.913818-90.608765 254.552978-169.441651 25.75708-30.025512 33.203247-71.647094 19.454224-108.740478l-37.82959-36.816162c-30.782104 1.721191-60.762573 10.489868-87.626343 25.634521l-231.70581 143.908814c-35.221314-12.91919-75.901245-10.59961-108.644654 6.189087h-54.325439c-32.743286-16.788697-73.419067-19.108277-108.642395-6.189087l-231.70752-143.908814c-26.859619-15.144653-56.842102-23.91333-87.626281-25.634521l-37.823731 36.816162c-13.755005 37.093384-6.306701 78.714966 19.452088 108.740478 67.632873 78.832886 155.719177 137.467407 254.547058 169.441651z" fill="#ffe500"/></g></svg>