<svg height="20" viewBox="0 0 20 20" width="20" xmlns="http://www.w3.org/2000/svg"><g fill-rule="evenodd"><path d="m10 1c4.970563 0 9 4.029437 9 9s-4.029437 9-9 9c-1.710569 0-3.30968-.477215-4.671458-1.305777l-4.328542 1.305777 1.305776-4.328542c-.82856-1.361779-1.305776-2.960889-1.305776-4.671458 0-4.970563 4.029437-9 9-9z" fill="#ed2d0d"/><path d="m15 10c0-2.209139-2.238577-4-5-4-2.761424 0-5 1.790861-5 4s2.238576 4 5 4c2.761423 0 5-1.790861 5-4z" fill="#fff"/><path d="m7 8.5c0-.828427-.671573-1.5-1.5-1.5s-1.5.671573-1.5 1.5.671573 1.5 1.5 1.5 1.5-.671573 1.5-1.5z" fill="#fff"/><path d="m9.533334 9.7c0-.681152-.552182-1.233334-1.233334-1.233334-.681151 0-1.233333.552182-1.233333 1.233334 0 .681151.552182 1.233333 1.233333 1.233333.681152 0 1.233334-.552182 1.233334-1.233333z" fill="#ed2d0d"/><path d="m13 9.7c0-.681152-.552182-1.233334-1.233334-1.233334-.681151 0-1.233332.552182-1.233332 1.233334 0 .681151.552181 1.233333 1.233332 1.233333.681152 0 1.233334-.552182 1.233334-1.233333z" fill="#ed2d0d"/><g fill="#fff"><path d="m16.4 8.5c0-.828427-.671573-1.5-1.5-1.5s-1.5.671573-1.5 1.5.671573 1.5 1.5 1.5 1.5-.671573 1.5-1.5z"/><path d="m13 4.966666c0-.68115-.552182-1.233332-1.233334-1.233332-.681151 0-1.233332.552182-1.233332 1.233332 0 .681152.552181 1.233334 1.233332 1.233334.681152 0 1.233334-.552182 1.233334-1.233334z"/></g></g></svg>