<svg height="160" viewBox="0 0 160 160" width="160" xmlns="http://www.w3.org/2000/svg" xmlns:xlink="http://www.w3.org/1999/xlink"><linearGradient id="a" gradientUnits="userSpaceOnUse" x1="76.591455" x2="137.95582" y1="122.920357" y2="101.288985"><stop offset=".00001" stop-color="#41b0f6"/><stop offset=".435818" stop-color="#41b0f6"/></linearGradient><linearGradient id="b"><stop offset=".00001" stop-color="#0376bb"/><stop offset=".435818" stop-color="#1d4d80"/></linearGradient><linearGradient id="c" gradientUnits="userSpaceOnUse" x1="76.147489" x2="126.659324" xlink:href="#b" y1="128.521209" y2="104.174578"/><linearGradient id="d" gradientUnits="userSpaceOnUse" x1="36.098471" x2="76.083147" y1="128.066903" y2="109.501795"><stop offset=".00001" stop-color="#00a1fe"/><stop offset=".435818" stop-color="#00a1fe"/></linearGradient><linearGradient id="e" gradientUnits="userSpaceOnUse" x1="31.607787" x2="66.67498" xlink:href="#b" y1="131.47682" y2="107.76908"/><clipPath id="f"><path clip-rule="evenodd" d="m0 160h160v-160h-160z"/></clipPath><path d="m39 90s-17.754936-8.263481-20.817909-16.363083c-2.808695-7.4272-6.027634-12.994347-6.182091-23.636917-.175535-12.094673 2.138182-22.847183 8.272987-31.997543 5.575365-8.315934 19.788582-16.816468 25.727013-17.002457 5.938427-.185989 23-1 23-1s-33.82029 6.574677-40.363432 40.910759c-4.705042 24.690384 10.363432 49.089241 10.363432 49.089241z" fill-rule="evenodd" opacity=".197929"/><path d="m100.476791 149.999756 13.468377-14.387146s21.806465 4.655609 26.054832.744812c-3.407715-2.843475-7.861298-8.455422-12.536324-15.113098-12.465263-17.752472-26.506256-42.943695-26.506256-42.943695l-26.87632 7.880912 18.798005 45.448769 7.598571 18.36969z" fill="url(#a)"/><path d="m95.808609 158.999725 11.086441-16.193084s17.949913 5.240005 21.44693.838302c-2.805046-3.200393-6.470993-9.516769-10.319222-17.010147-10.260734-19.980842-21.818527-48.334167-21.818527-48.334167l-22.123131 8.870163 15.473504 51.153686 6.25473 20.675522z" fill="url(#c)"/><path d="m43.832912 148.59404c2.554455 3.444153 17.830822-5.841919 17.830822-5.841919s11.759537 12.514191 17.547806 11.093796c-1.090332-5.629593-1.461998-17.302048-1.461998-17.302048l.299584-50.071075-23.232121-3.010628-6.38834 49.29879c-.000465-.004837-.667435 13.665344-4.596958 15.830765z" fill="url(#d)"/><path d="m36.100903 148.802063c2.040824 3.903183 16.885295-4.364624 16.885295-4.364624s9.690159 14.434296 15.129441 13.520981c-.503655-6.065903.186241-18.450699.186241-18.450699l4.69812-52.934052-21.061859-5.54927-10.219559 51.497406c0-.005158-1.819874 14.387085-5.61858 16.277679z" fill="url(#e)"/><path clip-path="url(#f)" d="m16.394606 50.000008c0 27.614235 22.385744 49.999992 49.999994 49.999992 27.614227 0 49.999992-22.385757 49.999992-49.999992s-22.385765-50.000008-49.999992-50.000008c-27.61425 0-49.999994 22.385773-49.999994 50.000008z" fill="#ff9e00"/><path d="m34 49.5c0 17.949257 14.550743 32.5 32.500008 32.5 17.949249 0 32.499992-14.550743 32.499992-32.5 0-17.949265-14.550743-32.5-32.499992-32.5-17.949265 0-32.500008 14.550735-32.500008 32.5z" fill="#f9e231"/></svg>