<svg height="250" viewBox="0 0 300 250" width="300" xmlns="http://www.w3.org/2000/svg"><g fill-rule="evenodd"><path d="m149.04213 38.57962c67.650543 0 122.491348 54.841111 122.491348 122.490769 0 25.182358-7.60376 48.587265-20.633591 68.052337h-203.715c-13.029823-19.465072-20.633883-42.869979-20.633883-68.052337 0-67.649658 54.840857-122.490769 122.491126-122.490769z" fill="#99c5f0"/><path d="m155.123169 233.106522c70.431869 0 127.876831-1.878449 127.876831-4.182679 0-2.304275-57.444962-4.184555-127.876831-4.184555-70.433304 0-127.878271 1.88028-127.878271 4.184555 0 2.30423 57.444967 4.182679 127.878271 4.182679z" fill="#4f87bf"/><path d="m125.75621 225.764954h58.732148v-28.891404h-58.732148z" fill="#ebf5ff"/><path d="m125.75621 196.87355h58.732148v14.765046c-6.955842-4.386994-17.527695-7.187149-29.366074-7.187149-11.838745 0-22.410294 2.800155-29.366074 7.187149z" fill="#c7daed"/><path d="m103.021683 228.923843h104.202087v-6.315887h-104.202087z" fill="#fff"/><path d="m55.106846 62.90361h160.334987c3.058106 0 5.558167 3.080155 5.558167 6.845093v124.857544c0 3.766144-2.500061 6.845093-5.558167 6.845093h-160.334987c-3.056641 0-5.558445-3.078949-5.558445-6.845093v-124.857544c0-3.764938 2.501804-6.845093 5.558445-6.845093z" fill="#fff"/><path d="m56.296841 194.702835h158.703159v-125.050491h-158.703159z" fill="#b3d4f5"/><path d="m53.920021 134.268829h161.079979v-4.181213h-161.079979z" fill="#fff"/><path d="m56.296841 130.087616h20.144802v-50.172882h-20.144802z" fill="#bd591e"/><path d="m76.441643 130.087616h14.824394v-41.240753h-14.824394z" fill="#9ec05f"/><path d="m91.266037 130.087616h9.882126v-53.023499h-9.882126z" fill="#fb0"/><path d="m101.148163 130.087616h18.055244v-49.508377h-18.055244z" fill="#f2727f"/><path d="m119.203407 130.087616h12.73275v-54.639191h-12.73275z" fill="#69f"/><path d="m131.936157 130.087616h9.787049v-51.598511h-9.787049z" fill="#f29d72"/><path d="m196.172028 194.702835h15.014206v-49.031555h-15.014206z" fill="#69676c"/><path d="m189.520782 194.702835h6.651246v-43.899444h-6.651246z" fill="#93c"/><path d="m174.505936 194.702835h15.014846v-54.638962h-15.014846z" fill="#3aba5c"/><path d="m161.202866 194.702835h13.30307v-50.361771h-13.30307z" fill="#2dc0ca"/><path d="m146.378403 194.702835h14.824463v-41.239548h-14.824463z" fill="#993"/><path d="m140.86853 194.702835h5.509873v-35.347549h-5.509873z" fill="#e8b73c"/><path d="m129.750626 194.702835h11.117904v-53.022293h-11.117904z" fill="#b86125"/><path d="m122.053398 194.702835h7.697228v-46.750687h-7.697228z" fill="#f68d2e"/><path d="m115.971931 194.702835h6.081467v-56.633408h-6.081467z" fill="#96c"/><path d="m141.724091 130.087616h17.009597v-53.023499h-17.009597z" fill="#c9c"/><path d="m56.296841 97.49472h20.144802v-5.986129h-20.144802z" fill="#913b09"/><path d="m76.441643 121.629913h14.824394v-21.379654h-14.824394z" fill="#84a644"/><path d="m91.266037 99.300278h9.882126v-14.254029h-9.882126z" fill="#ffdd30"/><path d="m101.148163 84.808411h18.055244v8.077148h-18.055244zm0 30.502197h18.055244v8.076889h-18.055244zm4.704491-17.342148h8.646903v14.729935h-8.646903z" fill="#cc3d4b"/><path d="m119.203407 82.956116h12.73275v6.271301h-12.73275zm0 33.068222h12.73275v6.271614h-12.73275z" fill="#dbe7ff"/><path d="m131.936157 119.159851h9.787049v-27.366669h-9.787049z" fill="#ffbd9c"/><path d="m141.724091 97.49472h17.009597v-15.583679h-17.009597z" fill="#9e629e"/><path d="m115.971931 150.99353h6.081467v-6.224212h-6.081467z" fill="#f2727f"/><path d="m122.053398 169.75972h7.697228v-14.063553h-7.697228z" fill="#96657a"/><path d="m129.750626 157.027618h11.117904v-7.791931h-11.117904z" fill="#8c3604"/><path d="m129.750626 190.285721h11.117904v-6.509766h-11.117904z" fill="#8c3604"/><path d="m140.867981 170.33075h5.510422v-3.944581h-5.510422z" fill="#4d4c50"/><path d="m146.378403 162.63414h14.824463v-4.751236h-14.824463z" fill="#ffdd30"/><path d="m146.378403 168.358109h14.824463v-2.588501h-14.824463z" fill="#ffdd30"/><path d="m164.005463 188.313095h7.697235v-37.582291h-7.697235z" fill="#5ce3ed"/><path d="m174.505936 155.887527h15.014846v-8.362365h-15.014846z" fill="#18963a"/><path d="m174.697281 162.253296h14.823501v-4.180908h-14.823501z" fill="#18963a"/><path d="m189.520782 171.851135h6.651246v-17.199707h-6.651246z" fill="#fb0"/><path d="m189.520782 179.832642h6.651246v-4.559967h-6.651246z" fill="#fb0"/><path d="m199.82991 181.543732h7.69722v-32.308045h-7.69722z" fill="#4d4c50"/><path d="m196.172028 191.140961h15.014206v-5.036148h-15.014206z" fill="#4d4c50"/><path d="m62.758907 102.007843h7.221608v21.379654h-7.221608z" fill="#913b09"/><path d="m141.724091 106.285904h17.009597v-5.420013h-17.009597z" fill="#9e629e"/><path d="m158.733688 86.240524 8.171601-5.556701 29.814285 43.846534-8.172211 5.557259z" fill="#b86125"/><path d="m163.221619 92.841278 8.172226-5.55693 8.014709 11.787643-8.172211 5.556625z" fill="#8c3604"/><path d="m95.775139 194.702835-10.260155-4.280517 20.418251-48.934647 10.259903 4.281464z" fill="#993"/><path d="m99.98307 184.618896-10.259842-4.281143-2.506736 6.008255 10.25991 4.280564z" fill="#ffdd30"/><path d="m211.186234 194.702835h14.824096v-41.239548h-14.824096z" fill="#9ec05f"/><path d="m211.186234 186.247589h14.824096v-21.381225h-14.824096z" fill="#84a644"/><path d="m133.457718 69.652344h49.953903l-73.105255 125.050491h-49.953877zm2.941727 125.050491" fill="#c2dffc" opacity=".264409"/><path d="m98.12706 130.087616h49.953567l-2.443283 4.181213h-49.954765zm76.046646 0h27.582642l-2.445176 4.181213h-27.582016z" fill="#fff"/><path d="m101.148163 124.918602v5.169014h-3.021103z" fill="#fb0"/><path d="m119.203407 94.034668v36.052948h-18.055244v-5.169014z" fill="#ff8f9a"/><path d="m119.203407 130.087616h12.73275v-54.639191h-1.867431l-10.865319 18.586243z" fill="#82acff"/><path d="m131.936157 78.489105h9.787934v51.598511h-9.787934z" fill="#f29d72"/><path d="m189.520782 151.016907v-.213516h.124268z" fill="#93c"/><path d="m174.505936 176.700195v-36.636322h15.014846v10.953034z" fill="#4bcf6e"/><path d="m174.505936 144.341995h-8.665039l-4.638031 7.932556v42.428284h2.777969l10.525101-18.00264z" fill="#38d3de"/><path d="m161.202866 194.702835h-14.824463v-17.07048l14.12976-24.169068h.694703z" fill="#b3b34a"/><path d="m140.86853 187.058517v7.644318h5.509873v-17.07048z" fill="#fac94d"/><path d="m140.86853 194.702835h-4.469085l4.469085-7.644318zm-11.117904-33.260498v-19.761795h11.117904v.744843z" fill="#d17436"/><path d="m129.750626 147.952148h-7.697228v26.657898l7.697228-13.167709z" fill="#ffad61"/><path d="m115.971931 185.0121v-46.942673h6.081467v36.540619z" fill="#b791de"/><path d="m158.733688 77.064117h-17.009597v53.023499h6.356536l10.653061-18.221069z" fill="#e0b1e0"/><path d="m102.043411 123.387497 4.722-8.076889h12.437996v8.076889zm6.249436-10.689102 6.20671-10.617951v10.617951z" fill="#de5260"/><path d="m125.680237 82.956116h6.25592v6.271301h-9.922699zm-6.47683 33.068222h12.73275v6.271614h-12.73275z" fill="#f0f5ff"/><path d="m131.936157 91.793427h9.787934v27.366424h-9.787934z" fill="#ffbd9c"/><path d="m141.724091 81.911041h17.009597v15.583679h-17.009597z" fill="#bd5dbd"/><path d="m115.971931 144.769318h6.081467v6.224212h-6.081467z" fill="#bf2433"/><path d="m122.053398 155.697388h7.697228v5.744949l-4.861985 8.318008h-2.835243z" fill="#ad7d92"/><path d="m129.750626 149.235687h7.135772l-4.554962 7.791931h-2.58081z" fill="#ab470d"/><path d="m138.981476 190.285721h1.887054v-3.227204z" fill="#8c3604"/><path d="m157.924026 157.882904h3.27884v4.751236h-6.055695z" fill="#ffe24f"/><path d="m161.202866 165.770218h-7.889206l-1.513642 2.589157h9.402848z" fill="#ffe24f"/><path d="m164.006104 150.731445h7.696594v30.763001l-3.98584 6.818649h-3.710754z" fill="#74f3fc"/><path d="m174.505936 147.525162h15.014846v3.491745l-2.847564 4.87062h-12.167282z" fill="#27b04b"/><path d="m185.395905 158.072388h-10.698624v4.180908h8.254074z" fill="#27b04b"/><path d="m141.724091 100.865891h17.009597v5.420013h-17.009597z" fill="#bd5dbd"/><path d="m158.733688 86.240524 8.171601-5.556701 5.40776 7.952606-5.525253 9.45047zm27.609116 23.02919 10.37677 15.260643-8.172211 5.557259-7.727997-11.367432z" fill="#d1783d"/><path d="m163.221619 92.841278 8.172226-5.55693.919204 1.352081-5.525253 9.45047z" fill="#a6430a"/><path d="m95.775139 194.702835-10.260155-4.280517 20.418251-48.934647 10.259903 4.281464z" fill="#993"/><path d="m99.98307 184.618896-10.259842-4.281143-2.506736 6.008255 10.25991 4.280564z" fill="#ffdd30"/><path d="m37.701385 228.923843v-14.633346h73.942322v14.633346z" fill="#bd591e"/><path d="m102.961082 214.290497v-10.766297h-60.778575v10.766297z" fill="#9ec05f"/><path d="m33.500195 203.5242v-7.178558h78.143512v7.178558z" fill="#fb0"/><path d="m54.786652 228.923843v-14.633346h8.822578v14.633346z" fill="#913b09"/><path d="m58.988731 214.290497v-10.766297h31.509392v10.766297z" fill="#84a644"/><path d="m45.264477 203.5242v-7.178558h21.006153v7.178558z" fill="#ffdd30"/><path d="m70.260773 224.230377v-5.246506h31.510322v5.246506z" fill="#913b09"/><path d="m179.033249 210.868851v18.054992h-49.507507v-18.054992z" fill="#fb0"/><path d="m205.472107 197.142471v10.237717h67.741699v-10.237717z" fill="#22509c"/><path d="m269.606995 207.380188v7.868927h-61.204331v-7.868927z" fill="#c06c84"/><path d="m271.297211 228.923843v-13.674728h-76.225968v13.674728z" fill="#8a391b"/><path d="m174.804352 210.868851v18.054992h-8.076859v-18.054992zm-30.501892 0v18.054992h-8.07779v-18.054992zm17.342132 4.703293v8.647781h-14.72995v-8.647781z" fill="#cc3d4b"/><path d="m263.905182 197.142471v10.237717h-7.775391v-10.237717zm-40.997116 0v10.237717h-7.776001v-10.237717z" fill="#ff9100"/><path d="m253.824936 207.380188v7.868927h-32.461273v-7.868927z" fill="#f2727f"/><path d="m264.329132 215.249115v13.674728h-22.401977v-13.674728z" fill="#b86125"/><path d="m237.079926 215.249115v13.674728h-7.791962v-13.674728z" fill="#b86125"/><path d="m214.982956 89.919052 2.884445 6.590897c7.728729 17.660003-.322403 38.241806-17.982574 45.970611-17.660004 7.728699-38.241684-.322235-45.970398-17.982254l-2.884445-6.590896c15.77861-6.90535 59.869827-26.201416 63.952972-27.988358z" fill="#e07e45"/><path d="m169.012146 71.936981c17.660202-7.72879 38.242111.322083 45.97081 17.982071 7.72879 17.660172-.322388 38.241791-17.982575 45.970596-17.659988 7.728699-38.241607-.322067-45.970397-17.982238-7.728714-17.659989.322189-38.2417 17.982162-45.970429z" fill="#fa9961"/><path d="m171.974472 78.705841c13.922043-6.09285 30.146805.253922 36.239487 14.175583 6.092758 13.92186-.253861 30.146522-14.175904 36.239365-13.92163 6.092651-30.146499-.253815-36.239242-14.175675-6.092697-13.921676.254028-30.146622 14.175659-36.239273z" fill="#f5b48e"/><path d="m209.198471 95.476273c4.297501 13.286666-2.095612 27.926826-15.160416 33.644516-13.064392 5.717498-28.156692.480224-35.000961-11.69191-4.297256-13.286087 2.095719-27.926666 15.160111-33.644165 13.064788-5.717667 28.157241-.479965 35.001266 11.691559z" fill="#ffd2b8"/><path d="m199.424026 138.426849 4.227845 9.660584c.599823 1.370575-5.862686 4.198822-6.462509 2.828247l-4.227845-9.660584c-.599701-1.3703 5.862809-4.198547 6.462509-2.828247z" fill="#332d2a"/><path d="m207.990631 143.336197 15.9608 36.470215c2.626282 6.001022-14.609344 13.544021-17.235626 7.542999l-15.960831-36.4702c-2.626388-6.001281 14.609238-13.544281 17.235657-7.543014z" fill="#a6450d"/><path d="m226.550186 212.141937-9.185654-9.879074-4.853012-.866455c-5.233886-.934509-9.599441-4.535461-11.512924-9.496307-1.913498-4.960251-1.096557-10.560288 2.153931-14.767502 1.063629-1.37619 1.5-3.136093 1.203461-4.849579-.29654-1.713501-1.299073-3.223846-2.763031-4.16272-6.573731-4.215408-9.546784-12.285034-7.279358-19.757827.50093-1.650483 1.843765-2.909272 3.523224-3.302384 1.679306-.393097 3.441391.138718 4.622604 1.396103 1.768951 1.882309 3.446411 3.848755 5.026047 5.892227 3.68341 4.765671 8.512603 8.521652 14.038345 10.918854 2.01915.87619 3.630432 2.486862 4.506302 4.506317 2.999405 6.914459 5.659912 13.970917 7.972458 21.144333l15.771286 18.371307-9.842697 21.552826h-.560822z" fill="#e86625"/><path d="m186.341263 170.372971-2.079804 5.372757c-1.200622 3.101898-.565033 6.614791 1.646576 9.098846l.086533 3.640121c.050781 2.131669.552811 4.228577 1.47319 6.15239l.346558 2.686249c.405014 3.138275 2.681366 5.71289 5.745971 6.49942 4.314438 1.107208 8.638642 2.176193 12.971894 3.206268 2.019439.480255 4.120071.510041 6.15271.086869l10.681579 21.726165h16.204819l-11.37471-34.551361-23.022095-28.943466z" fill="#e86625"/><path d="m269.148621 228.842056-22.667557-27.098922c-4.985932-5.960572-13.250565-8.01828-20.449051-5.091614-.422577.172119-.83638.358642-1.239822.559906-7.81511 3.889984-11.444931 12.893829-8.513871 21.11644l3.747681 10.51419z" fill="#fff"/><path d="m270.947998 228.842056-18.403274-22.001114c-5.954255-7.118545-15.82454-9.576233-24.421799-6.080291-.5047.205032-.998444.428222-1.480255.668045-9.333618 4.646103-13.669068 15.398849-10.168106 25.219284l.78244 2.194076z" fill="#332d2a"/><path d="m203.2005 169.276733-10.382049-4.189392c-1.926193-.777115-4.270279.493744-5.696762 3.08783-1.426193 2.594681-1.572571 5.853943-.355026 7.920105 1.846252 3.13388 4.605682 4.98938 7.772781 5.226669 2.067291.154892 4.250336-.566131 6.273727-2.072738 1.346573-1.002503 2.405808-2.726349 2.872269-4.674317.466461-1.947662.28746-3.901611-.48494-5.298157z" fill="#e86625"/><path d="m183.809601 132.381531c14.976074 0 27.190399-12.214859 27.190399-27.190399 0-14.976624-12.214325-27.191132-27.190399-27.191132-14.97609 0-27.190781 12.214508-27.190781 27.191132 0 14.97554 12.214691 27.190399 27.190781 27.190399z" fill="#fff"/><path d="m182.944 124.783997c2.800003 0 4.199997-1.567994 4.199997-3.751999 0-2.127991-1.455993-3.975998-3.975998-3.975998-3.024002 0-4.143997 2.352005-4.143997 3.919998 0 2.408005 1.791992 3.807999 3.919998 3.807999zm.335999-39.031998c-2.968003 0-4.087998 2.128006-4.087998 4.983993 0 2.296006 2.688004 15.792008 3.080002 21.168015 0 .335998.056.559998.391998.559998h1.007996c.335999 0 .391998-.112.391998-.391999.335999-5.320007 3.528-18.984009 3.528-22.23201 0-2.632003-1.343994-4.087997-4.311996-4.087997z"/><path d="m114.489845 63.159164v-9.882751h-53.023193v9.882751z" fill="#fb0"/><path d="m114.489845 53.276413v-18.053085h-49.507171v18.053085z" fill="#f2727f"/><path d="m83.702789 63.159164v-9.882751h-14.252495v9.882751z" fill="#ffdd30"/><path d="m69.211571 53.276413v-18.053085h8.076843v18.053085zm30.502777 0v-18.053085h8.077514v18.053085zm-17.343674-4.703842v-8.645966h14.730583v8.645966z" fill="#cc3d4b"/></g></svg>