<svg height="300" viewBox="0 0 300 300" width="300" xmlns="http://www.w3.org/2000/svg"><path d="m128.541031 58.62149c4.633163-1.042831 9.482483-2.007003 14.365692-2.347946 2.278061-.159057 4.509491-.178817 6.722641-.115081 2.403015-.052643 4.823105-.01558 7.229065.172515 4.879547.381501 9.453079 1.36438 14.077362 2.446366-.159943 9.947342.471176 19.759659 6.103622 25.639389 8.070435-.169953 15.317933-6.696045 22.294419-13.78772 8.300659 5.213806 16.002075 11.66919 22.324173 19.159271-.018601.024231-.037201.048462-.055802.072708 3.024033 3.532593 5.788727 7.280915 8.216492 11.211487-7.20163 6.959687-13.979843 14.128296-14.227371 22.231339 5.957046 5.67575 16.077301 6.339477 26.062286 6.253891 1.01973 4.496856 1.680802 9.05896 2.037415 13.787018.017196.00241.034393.004821.05159.007232.173019 2.29448.25531 4.591889.251678 6.905594.030884 2.856186-.062774 5.687271-.303009 8.484329-.026275.003464-.052566.006928-.078842.010392-.402969 4.700805-1.090027 9.306976-2.150101 13.765914-10.009903-.167999-20.132858.04863-26.121307 5.588761.211853 8.215347 6.944855 15.79039 14.075348 22.798477-2.464661 3.905991-5.296295 7.599884-8.386368 11.074371.035522.047181.07106.09433.106628.14148-6.35144 7.38002-14.177368 13.587585-22.461761 18.704681-6.885559-7.108032-14.119354-13.516021-22.172836-13.718704-5.712647 5.825699-6.403946 15.599365-6.318238 25.602219-4.528534 1.018127-9.026687 1.689819-13.787353 2.037933l-.000534.003799c-1.492676.109787-2.976914.184403-4.462555.223175-3.507538.100174-7.000992.014679-10.399353-.264541-.00203-.015457-.004074-.030914-.006119-.046387-4.677566-.39386-9.330124-1.113922-13.764152-2.150772.167984-9.979294-.438599-19.736343-6.066964-25.613861-8.069976.115982-15.368522 6.472961-22.324485 13.534683-8.242196-5.185745-16.01561-11.458221-22.305436-18.890808.041512-.054077.083008-.108169.124474-.162292-3.067528-3.505646-5.873978-7.22934-8.310494-11.162842 7.183472-6.943146 13.973977-14.456146 14.263833-22.66182-5.881806-5.574737-15.807663-5.888122-25.80634-5.802429-1.022415-4.467483-1.671737-9.079651-2.035679-13.784683-.026207-.003677-.052421-.00734-.078636-.011017-.215202-2.780228-.285896-5.593124-.233349-8.430023.01421-2.332443.115712-4.647369.309983-6.958435.017181-.002258.034359-.004517.051536-.00679.395821-4.725998 1.093727-9.28299 2.152111-13.770951 9.971604.167343 19.902695-.423645 25.845765-6.035064-.189995-8.097016-6.903954-15.316193-14.041573-22.330796 2.464775-3.917587 5.26619-7.649185 8.32592-11.161972-.023834-.031616-.047668-.063217-.071518-.094818 6.384216-7.437881 14.138985-13.828369 22.482727-18.972976 6.928826 7.160873 14.13295 13.756561 22.217415 13.973709 5.645775-5.837464 6.355057-15.622239 6.278-25.548005zm21.337494 61.034821c-.840317-.00946-1.687821.014984-2.541123.07457-15.034057 1.049698-26.982544 12.663589-28.757072 27.088302-.050675.422257-.092842.847428-.126297 1.275345-1.330505 17.018112 11.616478 31.867752 28.634575 33.198258.838348.065551 1.671387.097091 2.497757.095794.679748-.003112 1.363586-.028335 2.05075-.076324 13.779557-.962097 24.79123-10.786225 27.861619-23.52301.284133-1.182114.501251-2.392823.646881-3.628251.220718-1.887344.269958-3.822799.132675-5.788986-.868027-12.432174-8.950058-22.611282-19.876373-26.737961-2.665635-1.002807-5.516922-1.651397-8.501694-1.88475-.677185-.052948-1.351334-.08374-2.021698-.092987z" opacity=".300007"/><path d="m150.010117 53c-5.025757 0-10.061371.640717-14.881226 1.377472-.766373 12.355865-2.706284 24.415695-12.951187 28.659302-10.267929 4.252807-19.912903-3.081238-29.209892-11.298737-8.128701 5.933548-15.554841 13.095245-21.494309 21.21933 8.249733 9.323303 15.840996 18.909729 11.574364 29.2099-4.262024 10.289627-16.523148 12.190735-28.934918 12.951828-.75452 4.874466-1.102508 9.794296-1.102508 14.880569 0 5.151398.330227 10.221894 1.102508 15.155548 12.41177.759781 24.672238 2.111603 28.934918 12.401246 4.266632 10.300811-3.323967 20.437835-11.574364 29.76181 5.910523 8.06224 13.4235 15.042389 21.494309 20.943039 9.267387-8.18132 18.978141-15.26146 29.209892-11.022446 10.288971 4.262024 12.190735 16.247528 12.951187 28.659287 4.819855.73677 9.855469 1.101852 14.881226 1.101852 5.025085 0 9.785751-.366409 14.604934-1.101852.759796-12.411759 2.662216-24.397934 12.951187-28.659287 10.231751-4.238342 19.943161 2.841126 29.209885 11.022446 8.070145-5.90065 15.583771-12.880799 21.494309-20.943039-8.249741-9.323975-15.840989-19.460327-11.574372-29.76181 4.262024-10.289643 16.798126-11.640152 29.209885-12.401246.772949-4.934311 1.102508-10.004806 1.102508-15.155548 0-5.085601-.349304-10.005447-1.102508-14.880569-12.411759-.759781-24.948517-2.662857-29.209885-12.951828-4.266617-10.300827 3.323975-19.887253 11.574372-29.2099-5.939469-8.123428-13.365616-15.285782-21.494309-21.21933-9.296326 8.217499-18.942612 15.551544-29.209885 11.298737-10.244903-4.243607-12.184814-16.303437-12.951187-28.659302-4.819854-.737412-9.579849-1.377472-14.604934-1.377472zm0 65.309799c17.525665 0 31.689865 14.1642 31.689865 31.689865 0 17.525681-14.1642 31.689225-31.689865 31.689225-17.525681 0-31.966164-14.163544-31.966164-31.689225 0-17.525665 14.440483-31.689865 31.966164-31.689865z" fill="#eee"/></svg>