<?xml version="1.0" encoding="UTF-8"?>
<!-- Generated by Pixelmator Pro 3.6.9 -->
<svg width="16" height="18" viewBox="0 0 16 18" xmlns="http://www.w3.org/2000/svg">
    <g id="layer1">
        <g id="g11676">
            <path id="path11666" fill="#ffffff" stroke="none" d="M 12.482091 11.795444 C 13.872692 11.795444 15 12.934641 15 14.339907 C 15 15.745173 13.872692 16.884369 12.482091 16.884369 C 11.091491 16.884369 9.964182 15.745173 9.964182 14.339907 C 9.964182 12.934641 11.091491 11.795444 12.482091 11.795444 Z"/>
            <path id="path11668" fill="#ffffff" stroke="none" d="M 12.482091 1.121025 C 13.872692 1.121025 15 2.260222 15 3.665488 C 15 5.070754 13.872692 6.20995 12.482091 6.20995 C 11.091491 6.20995 9.964182 5.070754 9.964182 3.665488 C 9.964182 2.260222 11.091491 1.121025 12.482091 1.121025 Z"/>
            <path id="path11670" fill="#ffffff" stroke="none" d="M 3.517909 6.45815 C 4.90851 6.45815 6.035818 7.597347 6.035818 9.002613 C 6.035818 10.407879 4.90851 11.547075 3.517909 11.547075 C 2.127308 11.547075 1 10.407879 1 9.002613 C 1 7.597347 2.127308 6.45815 3.517909 6.45815 Z"/>
            <path id="rect11672" fill="#ffffff" stroke="none" d="M 10.916284 14.124081 L 2.915508 9.456304 L 3.415912 8.580403 L 11.416689 13.248178 Z"/>
            <path id="rect11674" fill="#ffffff" stroke="none" d="M 10.98586 3.974768 L 2.985114 8.64269 L 3.485533 9.518587 L 11.48628 4.850665 Z"/>
        </g>
    </g>
</svg>
