<svg height="50" viewBox="0 0 50 50" width="50" xmlns="http://www.w3.org/2000/svg"><path d="m12.082162 15.825409c-.297858.566124-.56316 1.070515-.801022 1.522736-.230508.437919-.437789.832147-.625599 1.189052-.326494.620682-.600886 1.142252-.834757 1.586783-.377278.717224-.668393 1.270641-.899949 1.710788-.188417.358219-.345026.655587-.476939.906431-.210172.399655-.370309.703938-.496319.943375-.101655.193304-.185391.352627-.255719.486216.000264.000253.000483.000463.000733.000704 0 0-.249556.260118-.669167.69749.437362.419602.697526.669201.697526.669201-.000253.000261-.000463.000481-.000715.000744.075814.130548.166076.28627.275611.475191.135834.234005.308447.531382.534992.921995.1422.245154.310987.535788.514071.885901.249614.430155.56341.971033.970072 1.672024.252082.434459.547853.944211.899769 1.550846.202416.348795.425886.734106.67434 1.162099.231902.39975.488031.841256.772405 1.331376l1.869239-1.948357c-.378102-.386595-.719092-.735134-1.028052-1.050976-.333164-.340656-.63307-.647262-.904564-.924801-.472242-.48275-.869003-.888374-1.20714-1.233974-.545531-.557682-.96639-.988022-1.301107-1.330172-.272457-.278463-.498593-.50967-.689215-.704618-.303937-.310642-.535267-.547125-.717275-.733221-.146968-.15021-.268135-.274021-.369706-.377903l-.000273.000284s-.142527-.13674-.393977-.377979c.241238-.25145.377979-.393977.377979-.393977l.000285.000273c.097179-.107998.213131-.236748.353731-.392898.174138-.193472.395472-.439341.68626-.762328.182401-.202655.398761-.443035.659446-.732547.320259-.355725.722924-.803128 1.244879-1.382941.323528-.35931.703132-.781036 1.154981-1.282926.25976-.288548.546717-.607308.865489-.961506.327021-.363283.691585-.768194 1.100264-1.222235z" fill="#d82ab2"/><path d="m9.840776 13.675041c-.170181.693577-.321438 1.311207-.457161 1.864784-.130645.53238-.248131 1.011792-.354405 1.445614-.185151.754944-.340685 1.389452-.473201 1.930046-.213852.872412-.37901 1.54592-.510225 2.081282-.106923.436062-.195603.797888-.270348 1.103115-.119324.486393-.210133.856686-.281557 1.148113-.057592.235283-.105222.429203-.145006.591761.000165.000158.000307.000294.00047.000452 0 0-.384071.400326-1.000412 1.042755.642441.616354 1.042767 1.000422 1.042767 1.000422-.000168.000175-.000294.000309-.000462.000484.046486.160769.102088.352528.169421.585266.083419.288199.189502.654396.328866 1.135441.087325.301867.190917.659708.315817 1.090969.153286.529465.346203 1.195549.596019 2.058356.154799.534639.336498 1.162149.55275 1.908788.124167.429039.261424.903168.414013 1.429672.143485.495507.301861 1.042893.477999 1.650914l1.870826-1.950016c-.271391-.502949-.51588-.956063-.737317-1.366417-.23722-.439434-.450629-.835106-.643923-1.193186-.336096-.622948-.618635-1.14658-.859348-1.592541-.388317-.719848-.688126-1.275352-.926497-1.717006-.194058-.35974-.355174-.658192-.490878-.909813-.216569-.401185-.381346-.706601-.511066-.946928-.103702-.192244-.189305-.350892-.261271-.484139l.000484-.000503-.001488-.001429c-.000315-.000637-.000694-.001295-.001028-.001911-.000168.000175-.000295.000307-.000462.000482 0 0-.276736-.265497-.739264-.709243.443746-.462531.709222-.739245.709222-.739245.000163.000156.000308.000296.000482.000464.000321-.000618.000669-.001336.000968-.001975l.001429-.001489-.000514-.000492c.066393-.136101.14536-.298197.240986-.494549.119671-.245474.271644-.557467.471405-.96728.125163-.257028.273773-.561895.452751-.92938.219891-.451128.496423-1.018625.854585-1.753895.222008-.45557.482621-.99045.792618-1.626787.17829-.365786.375119-.769957.593933-1.218843.225825-.463475.477625-.980317.76024-1.560391z" fill="#f8f412"/><path d="m7.597561 11.522919c-.040834.822254-.076696 1.553959-.109153 2.209427-.031028.626766-.058958 1.191135-.084061 1.701915-.044008.888748-.080813 1.635693-.112285 2.272389-.050689 1.027439-.089852 1.820474-.12107 2.451269-.025243.513546-.046429.939909-.064204 1.299374-.028292.573057-.049796 1.00942-.066862 1.352785-.013611.277225-.024925.505691-.034462.697353.000371.000357.000711.000683.001072.001028 0 0-.524867.547083-1.332077 1.38846.841391.807266 1.388472 1.332133 1.388472 1.332133-.000358.000373-.000693.000721-.00103.001073.017458.191111.038231.418913.063316.695336.031279.342367.070852.777452.122865 1.348842.032643.358433.071473.78356.117976 1.295611.057324.628961.129322 1.419685.222523 2.444155.057846.634815.125542 1.379619.206342 2.265781.046241.5093.097526 1.072025.1545 1.696972.05396.591843.113333 1.246017.179632 1.973125l1.872255-1.9515c-.16296-.620525-.309697-1.179172-.442619-1.68494-.141295-.538017-.268521-1.022468-.383743-1.460964-.200438-.762859-.368846-1.403956-.512375-1.950298-.231495-.881638-.41027-1.562115-.552511-2.103312-.115649-.440548-.211748-.806293-.292859-1.114815-.129174-.491533-.227356-.865705-.304787-1.160314-.062181-.236708-.113458-.432013-.156487-.59586l.000965-.001005s-.418519-.401524-1.086455-1.042337c.640832-.667958 1.042337-1.086455 1.042337-1.086455l-.001018-.000978c.036225-.16551.079359-.362738.131672-.601818.065151-.29753.147757-.675484.256464-1.171936.068251-.311629.14912-.681027.246417-1.125992.119699-.546623.270118-1.233931.464883-2.124407.120757-.551828.262474-1.199343.431134-1.969851.096944-.442909.20401-.93219.322893-1.475601.123585-.564502.261365-1.194225.41608-1.901462z" fill="#dc562d"/><path d="m5.64535 10c.029424.310226-.026669 3.591175 0 3.872105.096873 1.022396.314804 1.896732.384156 2.629226.060003.631737.112065 1.18224.157952 1.666144.04073.428713.076929.811241.109408 1.15459.056176.591151.102601 1.081837.141874 1.495613.062464.659581.110253 1.161877.147631 1.557141.030378.319046.055187.582214.076111.802803l.00023.000221s-.67108.699484-1.662712 1.73309c1.033604.991586 1.733088 1.662712 1.733088 1.662712l-.000209.000217c-.011768.221266-.025652.485235-.042817.805258-.020965.396473-.047882.900337-.082977 1.561954-.022084.415036-.048161.907242-.079774 1.500191-.018238.344414-.038566.728125-.061478 1.158135-.025787.485378-.055041 1.037563-.088781 1.671253-.038946.734741-.084902 1.596607-.139331 2.622139-.031368.589279-.066027 1.24036-.104345 1.963405-.036669.689766-.077045 1.452732-.122226 2.3013l1.873905-1.95322c-.053216-.740349-.101186-1.40646-.144564-2.009067-.045841-.636509-.087353-1.209637-.124384-1.728055-.06503-.90242-.119621-1.66093-.166108-2.307365-.074913-1.043186-.132858-1.8486-.179047-2.488991-.037592-.521564-.068611-.954435-.094964-1.319551-.04193-.581816-.073706-1.024895-.098896-1.373612-.020128-.280622-.03664-.511991-.050687-.706218l.000233-.000243-.000282-.00027c-.000053-.00043-.000108-.000899-.000117-.00133-.000211.000219-.00042.000437-.000609.000633 0 0-.564988-.542043-1.429686-1.371629.82958-.864691 1.371628-1.429684 1.371628-1.429684.000199.000189.00043.00041.000625.000599.000015-.000406.000036-.000891.000069-.001322l.000272-.000284-.00025-.00024c.005976-.194615.012899-.426499.021406-.707694.010707-.349466.02413-.793499.041885-1.376537.011204-.365896.024286-.79966.040234-1.32233.019584-.641791.044111-1.448914.075748-2.494295.019661-.647809.04278-1.407929.070388-2.312287.0155-.519489.033216-1.09386.05266-1.731705.020182-.662658.04267-1.401939.067853-2.232097z" fill="#f39022"/><path d="m21.028343 24.4083c-.78738.071169-1.491163.134871-2.124161.192065-.109277.009863-.216648.019579-.322221.029081.105875.005127.213554.01038.323148.015707.572358.027878 1.202416.05864 1.899598.092621 0 0 .179674-.187279.27178-.283283z" fill="#a5263b"/><path d="m18.794147 22.264833c-.668033.191973-1.264654.363408-1.800926.517523-.531452.152725-1.009939.290085-1.44273.414564-.752937.216221-1.385367.398117-1.924137.552866-.869297.249894-1.539849.442519-2.072964.595751-.433944.124762-.794043.228121-1.097585.315397-.18789.053977-.358389.102982-.513558.147568.156881.038124.329266.080021.519228.126169.306901.074622.670972.162972 1.109713.26965.539006.131012 1.216965.295689 2.095868.509354.544719.132288 1.184141.28783 1.945391.472671.437579.10644.921345.223856 1.458668.354433.48923.118912 1.028145.249838 1.62497.394869l1.863245-1.942112c.408627-.28791.688484-.472288.677713-.428888-.007484.030161-.378139-.302653-.468689-.405777z" fill="#ed230d"/><path d="m16.560305 20.121702c-.546658.314688-1.034554.59552-1.472678.847788-.430873.248083-.81872.471352-1.169649.673357-.610486.35142-1.123254.646694-1.5603.898317-.704951.405882-1.248872.718993-1.681378.967944-.351864.202587-.644008.370761-.890416.512641-.392555.225983-.691382.398007-.926446.53337-.187986.108203-.343166.197511-.473562.27255l-.00035-.000336-.001198.00125c-.000761.000444-.001611.00089-.002331.001335.000197.000191.000371.000358.000547.000524 0 0-.003444.00359-.010188.010621.007006.006719.010599.010168.010599.010168-.000146.00015-.000314.000326-.000504.000524.000779.00041.001603.000822.002386.00128l.001225.001175.000357-.000374c.133393.069576.292161.152397.484449.252701.240469.125503.546167.285.947746.494522.252073.131554.550939.287477.910913.475288.442432.230845.998855.521147 1.720022.897477.447093.233299.971676.507053 1.596174.832895.358998.187296.755761.3943 1.196545.624319.404749.211216.851038.44404 1.345596.702064l1.865175-1.944122c-.584991-.158066-1.113211-.300844-1.592705-.430429-.526016-.142224-.999595-.270047-1.428096-.385905-.745263-.201282-1.371277-.370535-1.904719-.514621-.860495-.23259-1.524319-.411915-2.05202-.554535-.429535-.116053-.785959-.212246-1.086669-.293627-.277205-.074894-.516088-.139469-.723791-.195612.205195-.064703.441197-.139118.715065-.225437.29708-.093769.649213-.204647 1.073571-.338394.521341-.164364 1.177161-.371039 2.027262-.6391.527034-.166046 1.145501-.361085 1.881783-.593076.423331-.133515.891182-.280865 1.410882-.444742.524942-.165486 1.10898-.349623 1.762968-.555788z" fill="#ff8713"/><path d="m14.32309 17.975338c-.423241.439484-.800683.831327-1.139328 1.182947-.330431.343058-.628052.652002-.897227.931524-.468342.486149-.861812.894694-1.19718 1.242859-.540941.561594-.958483.995108-1.290367 1.339634-.270167.280417-.494471.513256-.68355.709675-.301362.312801-.530771.551046-.711278.738407-.144024.149506-.262917.272993-.362824.376736 0 0-.123721.128912-.343408.357897.228967.219667.357919.343383.357919.343383l.00002-.000019c.104119.099513.228031.21797.378142.361357.188117.17972.427181.408276.741243.708323.197052.188421.430813.411764.712368.68075.345868.33048.781018.746316 1.34478 1.284999.349463.334012.759544.725884 1.247626 1.192213.280527.268124.590668.564452.935054.893549.318987.304814.670968.641196 1.06137 1.014315l1.867191-1.946224c-.482581-.271381-.917919-.516277-1.312654-.738196-.429498-.241563-.816219-.458862-1.166083-.655681-.608615-.342308-1.119898-.629793-1.555628-.874809-.702756-.395207-1.245022-.700135-1.676211-.942564-.350925-.197335-.642271-.36114-.887848-.499243-.391328-.220036-.689231-.387566-.923695-.519463-.189258-.106396-.345192-.194107-.47598-.267572-.000357.000372-.000692.000721-.00105.001093 0 0-.017383-.016676-.050617-.048561.031905-.033259.048561-.050619.048561-.050619.00035.000335.000746.000713.001095.00105.127612-.078844.279797-.172918.464507-.287042.228798-.141537.519482-.321249.901379-.557287.239625-.14818.523934-.323914.866378-.53562.420754-.260103.949941-.587221 1.635723-1.011204.4252-.262861.924135-.571276 1.518048-.938509.341407-.211145.71879-.44428 1.137912-.70343.426496-.263596.901613-.557446 1.434019-.886602z" fill="#f3cd25"/><g fill="#fff" fill-rule="evenodd"><path d="m16 8h27v-4h-27z"/><path d="m16 45h27v-4h-27z"/><path d="m23 15h20v-4h-24z"/><path d="m28 23h15v-4h-19z"/><path d="m28 27h15v4h-19z"/><path d="m23 34h20v4h-24z"/></g></svg>