<svg height="100" viewBox="0 0 100 100" width="100" xmlns="http://www.w3.org/2000/svg"><path d="m83.976509 88.897087.089577-51.576015-24.129132-24.129139-37.701768.109687v75.595467z" fill="#e0e0e0"/><path d="m83.976509 88.897087.089577-51.576015-24.129132-24.129139-37.701768.109687v75.595467z" fill="#e7e7e7"/><g opacity=".376621"><path d="m59.979141 36.977272 23.977272 20.551945v-20.551945z" fill-opacity=".19608"/><path d="m83.956413 36.977272h-23.977272v-23.977272z" fill="#fff"/></g><path d="m47.288425 27.881836c-1.104599.390663-2.139713.913406-3.108638 1.568748-.260189.175881-.507004.361466-.741524.555985l2.909904 1.283806z" fill="#e003eb"/><path d="m52.33268 31.00985-.30291-3.99405c-.530914.022088-1.068726.06707-1.613934.135582-.430999.054169-.853016.124558-1.266311.211121z" fill="#812374"/><path d="m52.33268 31.009857-3.183155-3.647346c-.641217.134124-1.261456.307281-1.861103.519333l-.940255 3.408531z" fill="#ca2a7a"/><path d="m62.69976 30.112747c-.051315-.035148-.102802-.070167-.15464-.104851-1.587814-1.062904-3.416141-1.888176-5.425686-2.436233l-.602317 6.734337z" fill="#ed0dd3"/><path d="m56.517117 34.305992.602317-6.734329c-.029098-.007965-.05812-.015999-.087227-.023796-.403511-.108132-.811359-.200096-1.223712-.276131l-3.475815 3.738114z" fill="#c800c4"/><path d="m55.808495 27.271736c-1.21912-.225082-2.477814-.310104-3.778725-.255928l.30291 3.994049z" fill="#a600ad"/><path d="m68.71833 42.121689c.086548-1.06303.045693-2.099919-.13507-3.10524-.14827-.895443-.383004-1.75008-.701561-2.565472l-.494233 2.740841z" fill="#c800c4"/><path d="m66.569641 33.962318c-.01268-.018646-.025024-.037368-.037712-.055915-.706413-1.031876-1.538528-1.951744-2.497551-2.771737l.197197 3.428452z" fill="#9b0b51"/><path d="m64.231575 34.56311-.197197-3.428451c-.420444-.359543-.865143-.699898-1.334618-1.021919l-6.182643 4.193252z" fill="#a200cd"/><path d="m64.231575 34.56311-7.714458-.257118 1.729858 2.431172z" fill="#da34c8"/><path d="m43.438263 30.006569c-.73489.60952-1.344147 1.309975-1.829109 2.0989l4.739013-.815094z" fill="#e2056f"/><path d="m46.348167 31.290375-4.739013.815086c-.333542.54258-.608197 1.12703-.824841 1.752335l.537811 2.996219z" fill="#da34c8"/><path d="m41.322124 36.854015 5.961102.21043-.935059-5.77407z" fill="#ca2a7a"/><path d="m52.332684 31.009857 1.523635 6.162808c.053452.010639.107495.022091.161713.034088l2.499085-2.900753z" fill="#ca2a7a"/><path d="m47.283226 37.064445 5.049454-6.054595-5.984513.280525z" fill="#c800c4"/><path d="m47.28323 37.064445 4.07877.172944c.002639-.000977.005363-.00195.008087-.002938.694755-.234512 1.522796-.253883 2.486232-.061786l-1.523635-6.162808z" fill="#a200cd"/><path d="m40.784313 33.857803c-.076813.221749-.14677.448357-.208988.680374-.16851.629593-.216393 1.241532-.143368 1.842328l.890167.47351z" fill="#e2056f"/><path d="m40.431953 36.380505c.034008.279331.09396.55624.180478.831314l.709693-.357804z" fill="#6c2256"/><path d="m64.348427 36.760559-.116852-2.197449-5.9846 2.174054z" fill="#a200cd"/><path d="m64.348427 36.760559 2.645904-2.128937c-.134048-.226471-.275756-.4496-.42469-.669311l-2.338066.600799z" fill="#ed0dd3"/><path d="m67.387466 39.191818.494233-2.740841c-.246064-.629566-.541985-1.235798-.887368-1.819355l-2.645904 2.128937z" fill="#a200cd"/><path d="m56.517117 34.306-2.499085 2.900753c.10519.023197.211918.048763.320271.076809l3.908672-.546398z" fill="#840c8a"/><path d="m48.806877 38.745201c.917393-.709011 1.752709-1.223503 2.555123-1.507812l-4.07877-.172944z" fill="#ed0dd3"/><path d="m40.612431 37.211819c.042308.134601.091068.268772.146007.402523l.563686-.760327z" fill="#77255c"/><path d="m40.758438 37.614342c.061707.150219.131115.300014.208687.449386.255638.466576.556332.864888.905281 1.19431l-.550282-2.404023z" fill="#e003eb"/><path d="m41.322124 36.854015.550282 2.404023c.4921.464485 1.080299.791736 1.774796.977912.304649.081574.596191.140339.874298.176049l2.761726-3.347554z" fill="#e4136f"/><path d="m67.387459 39.191818-3.039032-2.431259-1.285752 9.163757z" fill="#c800c4"/><path d="m63.062675 45.924316 1.285752-9.163757-6.101452-.023395z" fill="#da34c8"/><path d="m58.246975 36.737164-.696457 3.211833c.356445.820847.436104 1.642071.217041 2.459172-.232269.866035-.615692 1.566536-1.150772 2.101749l6.445888 1.414398z" fill="#ca2a7a"/><path d="m54.338303 37.283562c.026466.006809.052856.01366.079574.020771 1.304482.349251 2.251419 1.024173 2.829655 2.05566.11668.196224.217712.392616.302986.589004l.696457-3.211833z" fill="#b50057"/><path d="m47.424809 39.692734c.439849-.25861.900634-.57275 1.377681-.944123.001446-.001148.00293-.002262.004387-.00341l-1.523651-1.680756z" fill="#b71b73"/><path d="m44.521503 40.411999c.682106.087581 1.283066.03532 1.796799-.167668.350178-.140434.72028-.324649 1.106507-.551597l-.141579-2.628289z" fill="#e003eb"/><path d="m63.062675 45.924316 4.826256.105961c.120178-.365928.232598-.743946.337113-1.134346.252014-.941482.418487-1.867313.492286-2.774242l-1.330864-2.929871z" fill="#ca2a7a"/><path d="m65.073151 49.010113 2.09098-1.121792c.266991-.579777.50853-1.199162.7248-1.858044l-4.826256-.105961z" fill="#93008a"/><path d="m63.062675 45.924316-6.445888-1.414402c-.008266.008297-.016773.01656-.025112.024769l2.239754 2.932549z" fill="#a81a75"/><path d="m50.922577 45.703114c-.719174-.03621-1.302349-.039017-1.739395-.013062-.177922.010551-.353115.034855-.525421.072727l1.570961 2.756378z" fill="#b50057"/><path d="m55.001644 45.48988c-.83152.281074-1.834457.375969-3.010166.284221-.384018-.030937-.740631-.05447-1.068901-.070987l-.693855 2.816043z" fill="#bb00bc"/><path d="m47.285439 46.439957c-.492226.428955-.849137 1.138771-1.097363 2.064129l-.158131.59032.809136.266312z" fill="#da34c8"/><path d="m50.228722 48.519154-1.570961-2.756375c-.443592.097576-.867146.288014-1.262818.587982-.037243.028256-.073662.058045-.109501.089196l-.446361 2.920761z" fill="#ff00ca"/><path d="m58.831429 47.467236-2.239754-2.932549c-.432438.424572-.962342.742966-1.590031.955193l-4.772922 3.029277z" fill="#b900b7"/><path d="m65.90612 50.07037c.469124-.651985.888123-1.37912 1.258011-2.182049l-2.09098 1.121796z" fill="#8c0f80"/><path d="m65.073151 49.010113-2.010476-3.085797-4.231246 1.542916z" fill="#b50057"/><path d="m50.78981 55.392044 8.041619-7.924812-8.602707 1.051922z" fill="#a300cd"/><path d="m46.029945 49.094406-.45359 1.692936 1.262726-1.426624z" fill="#b71b73"/><path d="m58.362217 54.472084c1.355293-.218983 2.604538-.615253 3.749523-1.1889l-3.280311-5.815952z" fill="#aa0087"/><path d="m50.78981 55.392044 3.387467.683857c.027061-.085617.053024-.172264.076675-.260689l.314655-1.174862c1.346352.079239 2.610333.022808 3.79361-.168266l.469212-7.004852z" fill="#c800c4"/><path d="m58.831429 47.467236 3.280311 5.815948c.018044-.009098.036007-.018295.054043-.027573l2.907368-4.245494z" fill="#a40092"/><path d="m45.576351 50.787342-.675564 2.521629c-.181156.677052-.244438 1.331555-.191414 1.954728l2.129708-5.902981z" fill="#85187c"/><path d="m46.839081 49.360718 3.950729 6.031326-.561088-6.87289z" fill="#a600ad"/><path d="m62.165783 53.255608c.35321-.17915.696796-.374737 1.03009-.587857 1.040989-.665645 1.942715-1.530868 2.710247-2.597381l-.832969-1.060257z" fill="#b50057"/><path d="m46.839081 49.360718-2.129704 5.902981c.001698.019489.002938.039062.004853.058471l6.07558.069874z" fill="#c800c4"/><path d="m44.71423 55.32217c.002597.027062.005996.053959.009063.080853l.989487 2.300525c.098137.119748.203121.236012.315121.349041.372997.352349.795784.642487 1.269676.870243l3.492233-3.530788z" fill="#da34c8"/><path d="m51.538944 59.10276c.537636-.22538 1.016724-.540703 1.423039-.960388.544876-.55347.95673-1.247284 1.215294-2.066471l-3.387471-.683857z" fill="#c800c4"/><path d="m47.297577 58.922832c.309418.148606.640449.270817.994339.365468.894974.240516 1.73637.253116 2.540954.05149.245118-.063667.480622-.142566.706078-.23703l-.749138-3.710716z" fill="#b84f9c"/><path d="m44.819939 55.960155c.179191.656704.473289 1.231713.892841 1.743393l-.989487-2.300525c.021572.188686.053322.37474.096646.557132z" fill="#7b0c53"/><path d="m47.079475 64.55304c-.084293-.027329-.169746-.052597-.256309-.07576l.015915.288871z" fill="#ad9ec0"/><path d="m46.823166 64.47728c-.000042-.000077-.000122-.000077-.000122-.000077-.174053-.04673-.348271-.083923-.522663-.11158l.5387.400528z" fill="#e2056f"/><path d="m46.300381 64.365623c-.742966-.118141-1.48964-.064346-2.242482.157197-.668705.196601-1.286521.49279-1.8442.900032l4.625382-.656701z" fill="#a84154"/><path d="m47.655754 64.779938c-.185879-.086991-.377972-.162735-.576279-.226898l-.240394.213111z" fill="#7b0c53"/><path d="m46.839081 64.766151-4.625385.656701c-.215798.157547-.422917.331085-.62003.52275-.459042.453812-.819008.970429-1.081913 1.54509l2.096081 3.236649z" fill="#da34c8"/><path d="m42.607834 70.727341 3.763744-.116944.467503-5.844246z" fill="#b71b73"/><path d="m50.584518 71.12149c.24376-.926338.229294-1.856765-.041526-2.777832-.247372-.943267-.681778-1.744751-1.349255-2.444778-.456017-.478577-.96804-.852127-1.537983-1.118942l-.816673-.013787z" fill="#b50057"/><path d="m46.371578 70.610397 3.93821 1.306443c.1077-.248185.197452-.506066.268902-.772881.002002-.0075.003833-.015068.005828-.022469l-3.745437-6.355339z" fill="#e003eb"/><path d="m40.511753 67.490692c-.126861.277283-.231373.56794-.312958.871948-.174644.652794-.235626 1.311631-.17736 1.964768l2.586403.399933z" fill="#7b0c53"/><path d="m40.650101 72.344254c.260471.463516.586952.885658.970844 1.27436.081665.080849.16473.158303.249161.232781l.737732-3.124054z" fill="#a02b4e"/><path d="m40.021435 70.327408c.026893.30146.079105.601646.157406.899528.117157.398232.275673.769387.47126 1.117318l1.957737-1.616913z" fill="#a02c4f"/><path d="m42.607834 70.727341 2.524963 4.447769c.211327.007736.423336.002289.636284-.017021l.602497-4.547692z" fill="#a73852"/><path d="m49.128033 73.624916c.508403-.495094.904503-1.069244 1.181755-1.708076l-3.93821-1.306443-.602497 4.547692c.31448-.028435.631043-.086312.950504-.173889.411301-.108086.792508-.252518 1.148053-.436783l1.04898-.724114c.071576-.063835.142094-.129791.211415-.198387z" fill="#831e62"/><path d="m41.870106 73.851395c.632282.558151 1.342098.940368 2.132091 1.151626.375634.100762.751992.158036 1.1306.172089l-2.524963-4.447769z" fill="#ff00ca"/><path d="m47.867641 74.547417c.376656-.195153.724457-.435158 1.048977-.724114z" fill="#a62a4f"/></svg>