<svg height="250" viewBox="0 0 300 250" width="300" xmlns="http://www.w3.org/2000/svg" xmlns:xlink="http://www.w3.org/1999/xlink"><clipPath id="a"><path clip-rule="evenodd" d="m10.61518 236.976468h280.257385v-230.245118h-280.257385z"/></clipPath><clipPath id="b"><path clip-rule="evenodd" d="m10.61518 236.976468h267.04657v-217.977952h-267.04657z"/></clipPath><linearGradient id="c" gradientUnits="userSpaceOnUse" x1="183.770828" x2="183.770828" y1="25.998912" y2="158.655384"><stop offset="0" stop-color="#fff"/><stop offset=".407946" stop-color="#fff"/><stop offset="1" stop-color="#fff" stop-opacity="0"/></linearGradient><g fill-rule="evenodd"><path clip-path="url(#a)" d="m267.28186 179.886993c0-64.8833-52.598312-117.481628-117.481613-117.481628-64.883316 0-117.481636 52.598328-117.481636 117.481628 0 64.883316 52.59832 117.481629 117.481636 117.481629 64.883301 0 117.481613-52.598313 117.481613-117.481629z" fill="#294e6f" opacity=".244104"/><g clip-path="url(#b)"><path d="m58.3736 201.608917h-19.532211c-5.233574 0-8.644436 4.28273-7.580017 9.517288l5.775379 23.019379c1.064068 5.234848-2.402664 0 2.830883 0l27.864185 13.484696c5.233864 0 8.644715-4.282731 7.58033-9.517579l-5.487923-26.986496c-1.064102-5.234558-6.217079-9.517288-11.450626-9.517288z" fill="#333"/><path d="m31.159109 207.984436-.000894.005585-.018645 2.394272c.030697.244949.070963.492447.121802.741912l1.601677 7.877228c6.770328-1.857651 14.081848.65921 18.248916 6.472641 4.538696 6.332062 4.177288 14.943238-.876167 20.872788l-1.092068 1.281418h18.588089c1.799233 0 3.383217-.50644 4.643631-1.383072l-3.722046-8.038269-5.318958-35.345948-.000309-.000152z" fill="#333"/><path d="m81.684998 195.980713 6.438819 15.96077c1.189454 2.948089.380341 6.326202-2.015144 8.415542-2.395622 2.089325-5.851738 2.430954-8.609985.851364v-.187942l-6.510536-18.471131.250434-.56343z" fill="#f5f5ff"/><path d="m86.764137 215.948578 2.62928 3.819626c1.431977 2.080124 1.280739 4.864502-.367874 6.777298-1.648918 1.912796-4.380104 2.472625-6.648086 1.362457-1.594338-.780548-2.782624-2.201218-3.269112-3.908783-.486359-1.707687-.225204-3.541412.718773-5.045074.512634-.817078 1.03054-1.631028 1.553276-2.441788.569946-.884583 1.510147-1.462769 2.556801-1.572251 1.046493-.109588 2.239883.155488 2.826942 1.008515z" fill="#f66"/><path d="m57.587032 229.847534 2.378926 8.76619c1.054767 3.888153 3.688114 7.157425 7.261627 9.016556h15.149872c11.075241 0 21.815063-3.801865 30.424774-10.769822h2.629394c1.089203-.015014 2.164734.247818 3.229119.741608l-4.481278-8.130157c-2.278373-4.133423-6.838104-5.985306-11.518738-5.384751l-21.112869 2.710175-3.114387-2.820847z" fill="#333"/><path d="m58.735001 187.076813-2.231015-.154755-2.253273-.626129c-5.472599-1.520477-11.33456.175476-15.150146 4.383026l-10.892567 4.758667c-3.319172 1.450104-5.320158 4.880417-4.948225 8.4841.371626 3.603501 3.030497 6.553086 6.576077 7.294678 1.529524.320007 3.122522.098663 4.507116-.626114l9.640591-3.256027 1.752914 5.00914c1.888859 5.396957 5.120216 10.223694 9.390396 14.025559l1.252053 5.510177 21.23381 4.153702c8.134178 1.361725-3.662323-12.056351 3.935127-9.235504l-3.007637-8.568146.125061-6.762268 1.502487-2.003754c2.264237-3.019668 2.830872-6.986191 1.502633-10.519012l.125228-1.314789c.231522-2.432343-1.289741-4.688446-3.630958-5.385101l-6.955238-2.287201-1.815758-2.880249-8.764122-2.504517z" fill="#fff"/><path d="m72.839096 228.099228c2.69886-1.427582 5.416687-2.400162 8.42794-1.399017-2.513633-4.279419-4.142845-9.028122-4.782402-13.964341-.532341-4.110244-1.562454-8.140503-3.067642-12.002227l-2.42884-6.230103v-1.502914l-2.096932-1.377366-1.196991-.062545v2.128738l1.447151 1.440216c.20958 5.217529.146744 10.442291-.187324 15.653382-.33255 5.179962.642265 10.360397 2.835388 15.064758z" fill="#cc003a"/><g fill="#f66"><path d="m34.861046 208.979279v17.594497h-5.383911c-7.611002-8.041-12.159033-21.563263-4.922951-26.464157 2.632414-1.78334 6.13349-1.581085 8.544002.49321 2.410515 2.074158 3.132744 5.506271 1.76286 8.37645z"/><path d="m38.249062 235.014557-.858124 4.315201c-.133503.668243-.79559 1.13948-1.540386 1.095596-.74445-.04422-1.334675-.589462-1.371376-1.267899l-4.351374-1.480529c-.888794-.302216-1.554796-.985459-1.778509-1.82454-.552635-2.073822-.655756-4.22557-.302477-6.335205.239353-1.429367.765236-2.806442 1.551199-4.062591.634432-1.013153 1.868685-1.58696 3.142364-1.460816 1.273663.126007 2.34346.92807 2.72353 2.04152l1.852745 4.833236c.360504.940232.941429 1.797913 1.702721 2.513367.296787.279053.380375.692566.211986 1.04985-.16838.356675-.555648.586426-.982299.58281z"/><path d="m77.553085 230.643265.858277 4.315353c.133072.668228.795593 1.139801 1.540229 1.095261.744607-.043884 1.334839-.589112 1.371537-1.267273l4.351227-1.480499c.888633-.302536 1.554641-.986115 1.778358-1.824845.552628-2.073715.655617-4.225601.302628-6.335235-.239205-1.42923-.765091-2.80629-1.551506-4.062577-.633828-1.013015-1.868386-1.586975-3.142182-1.460815-1.273689.126007-2.343651.928223-2.723404 2.041519l-1.853042 4.833206c-.360215.940232-.941262 1.797943-1.702431 2.513367-.296936.278946-.380371.692886-.212143 1.049713.168381.356674.555801.586578.982452.582825z"/></g><path d="m72.137016 176.196457-9.246673-.313217-2.464638 10.298736 7.268524 4.50856 1.540077-1.56575z" fill="#f24343"/><path d="m58.608707 170.415619c-1.155796.326157-1.708126 1.957641-1.23246 3.644134.475377 1.686203 1.798336 2.789307 2.953545 2.463166 1.15638-.325852 1.708736-1.957489 1.23307-3.643692-.475681-1.686661-1.798362-2.789566-2.954155-2.463608zm18.185482 0c1.156113.326157 1.708001 1.957641 1.23246 3.644134-.475349 1.686203-1.798019 2.789307-2.953811 2.463166-1.15641-.325852-1.708161-1.957489-1.232773-3.643692.475655-1.686661 1.798027-2.789566 2.954124-2.463608z" fill="#f24343"/><path d="m76.571106 165.625122h-17.738995v12.271362c0 4.879258 3.990868 8.871308 8.869358 8.871308 4.878144 0 8.869637-3.99205 8.869637-8.871308z" fill="#f66"/><path d="m64.444824 181.019165c.089607 1.715668 1.520226 3.091187 3.256645 3.091187 1.736382 0 3.167313-1.375519 3.256905-3.091187z" fill="#fff"/><path d="m58.832111 174.014511-1.762859-7.933624c-2.553055-11.491425 23.704071-10.982132 21.264092 0l-1.762558 7.933624-.492814-6.7677c-1.88491.720688-3.8862 1.089874-5.904357 1.089874h-2.472146-2.47216c-2.018452 0-4.019138-.369186-5.904385-1.089874z" fill="#333"/><path d="m67.701469 178.552063c-.892112 0-1.615539-.236481-1.615539.018829 0 .255493.723427 1.692215 1.615539 1.692215.892395 0 1.61522-1.436722 1.61522-1.692215 0-.25531-.722825-.018829-1.61522-.018829z" fill="#f24343"/><path d="m172.548721 230.641373c3.331742 0 6.500748-1.436295 8.697022-3.942108 2.196258-2.505219 3.204849-5.836075 2.76886-9.139588l-1.613343-18.603149c-.281753-3.244309-2.147689-6.14003-4.985168-7.736069-2.838089-1.596054-6.28096-1.686829-9.199188-.24231l-5.520142 2.371567-9.767548.339493-4.500595-1.69899c-6.302841-2.377945-13.421112-.470962-17.690414 4.741379l-13.564537 18.194443c-2.31073 3.099456-2.595505 7.263855-.729889 10.649093 1.865967 3.384888 5.539261 5.366562 9.392593 5.066239z" fill="#e68572"/><path d="m174.841537 194.596863-4.949371-6.411499c-1.131836-1.465485-2.775528-2.208832-4.623886-2.089798l-14.568115.937698c-2.022003.129975-3.713684.997254-5.001587 2.561676l-7.46257 9.069443 24.293777 3.189056z" fill="#e68572"/><path d="m146.015564 174.618118h14.727814l3.415527 12.992111-9.485779 4.001938-5.006424-3.104919z" fill="#ffceae"/><path d="m146.015564 174.618118h9.220459c1.958221 1.76883 3.200577 4.405197 3.200577 7.350388 0 3.864715-2.138581 7.197998-5.226242 8.736633l-3.543656-2.197891z" fill="#f9aa89"/><path d="m143.359634 162.516937h18.656464l-1.728119 14.872971c-.596283 5.131576-5.281494 9.329971-10.411804 9.329971-5.130905 0-8.839722-4.198395-8.244064-9.329971z" fill="#ffceae"/><path d="m43.619572 230.69429h223.684902c2.582306 0 4.695526 1.384033 4.695526 3.074539v.000595c0 1.690506-2.11322 3.073914-4.695526 3.073914h-223.684902c-2.582756 0-4.695568-1.383408-4.695568-3.073914v-.000595c0-1.690506 2.112812-3.074539 4.695568-3.074539z" fill="#ffceae"/><path d="m148.187546 182.13887h-.340637c-1.57573 0-2.859955-1.284775-2.859955-2.860168v-.922516h6.060531v.922516c0 1.575393-1.284851 2.860168-2.859939 2.860168z" fill="#fff"/><path d="m138.70903 205.148438v8.754547l-1.97525.246582c-1.728729.215881-3.256439 1.229522-4.127197 2.738128-.870743 1.509491-.984894 3.338745-.307251 4.944199l-3.158066-4.287079c-1.879151-2.551056-2.069512-5.973328-.485153-8.718719 1.584198-2.744187 4.6427-4.290436 7.791687-3.938172z" fill="#ffceae"/><path d="m152.829041 208.911102c3.438598-2.807647 7.423721-4.219665 11.46286-4.060821l-.132996 11.754379-4.014236 2.694992c-3.75618 2.521912-8.196686 2.521912-11.952866 0 0-5.420334 1.918747-8.180618 4.637238-10.38855z" fill="#ffceae"/><path d="m142.49617 169.953568-1.504654-8.720994c-.466949-2.706359.802734-5.417144 3.181152-6.789978 2.377854-1.373321 5.359223-1.118087 7.469285.639496l8.75653 1.775666c1.059571.214843 1.887192 1.042907 2.102143 2.102386l.870742.531097c1.35347.825989 1.820404 2.569428 1.060776 3.961701l-2.540527 15.532104-1.810715-.437255c-1.250839-.302155-2.228439-1.279343-2.530838-2.531342l.258072-5.652008-4.00209-.085022.180313-4.884415-2.193833.509705c-2.903671.674576-5.922088.68219-8.828766.022018z" fill="#f7ba00"/><path d="m159.201675 167.548889c1.650391.278763 2.681427 2.319946 2.303132 4.559464-.378296 2.239486-2.022004 3.829147-3.671769 3.550415-1.65039-.278488-2.681427-2.319687-2.303146-4.559784.378296-2.239517 2.022003-3.828873 3.671783-3.550095z" fill="#ffceae"/><path d="m79.231361 205.766708h25.092858c2.079704 0 4.219192 1.701737 4.755348 3.78151l4.457817 17.311371c.535271 2.080673-.72773 3.781784-2.806496 3.781784h-25.093788c-2.078766 0-4.218872-1.701111-4.754722-3.781784l-4.458138-17.311371c-.535225-2.079773.727455-3.78151 2.807121-3.78151z" fill="#4d4441"/><path d="m111.308624 218.204651 2.22876 8.654938c.535271 2.080673-.72773 3.781784-2.806496 3.781784h-25.093788c-2.078766 0-4.218872-1.701111-4.754722-3.781784l-2.228775-8.654938z" fill="#332d2a"/><path d="m78.653603 218.204651h32.655021l-2.630417 7.154541c-1.068374 2.905136-4.318451 5.282181-7.223625 5.282181h-22.092056c-2.904587 0-4.407394-2.377045-3.339333-5.282181z" fill="#7d6f6a"/><path d="m190.320023 191.476547h12.164611c.704331 0 1.436921.576355 1.628296 1.28067l4.749771 17.474488c.191391.704467-.22821 1.280685-.93254 1.280685h-12.164292c-.704178 0-1.437088-.576218-1.628631-1.280685l-4.749314-17.474488c-.191513-.704315.228073-1.28067.932099-1.28067z" fill="#333"/><path d="m193.174347 209.327103 1.167526-.398758c.899018-.307038 1.583512-1.045349 1.822251-1.965119.186401-.718033.67456-1.320373 1.338134-1.651779.823716-.411239-.016967-2.65982-3.074859.256516-.631699.602539-1.513596.162841-1.742112-.679489l-.493392-1.814621-.953766 1.070144c-1.801773 2.022446-2.513047 4.79216-1.907639 7.432739l4.612839.142548.028274-.142548z" fill="#fc9"/><path d="m229.570694 232.236908.547241 2.580276-34.004486 4.300187c-7.151718.903976-11.310654 5.949676-9.118744 13.090423l15.372345 50.083618 6.097397.312439c.776199-18.187072 4.495712-29.933349-3.908783-46.285675h41.299652c12.002381 0 8.73613-20.311126-1.275787-27.990509z" fill="#ed5623"/><path d="m228.370102 189.147995 7.43602 1.687866c3.935852.893601 6.552933 3.850571 6.472931 7.314087-.16687 7.204514 1.806167 14.210648 5.744415 20.395355 1.88855 2.965683.537918 6.807389-3.066269 8.72049-7.336792 3.89508-16.102707 5.12149-24.123215 3.37587-1.909301-.415604-3.393448-1.594483-3.979766-3.160981-.586319-1.566543-.201447-3.32521 1.031631-4.715942.753784-.850311.844574-1.962723.22879-2.813049-2.488067-3.436478-4.225219-7.241639-5.137466-11.252655-.98729-4.342286-.55777-8.903778 1.244797-13.22139.728958-1.74588 2.324371-3.186691 4.359939-3.938522z" fill="#20a6c7"/><path d="m242.271545 199.400253c.076386 6.763321 2.042176 13.31868 5.751923 19.14505 1.88855 2.965683.537918 6.807389-3.066269 8.72081-7.336792 3.89476-16.102707 5.12117-24.12294 3.37555-1.909271-.415604-3.393723-1.594483-3.980041-3.160981-.586625-1.566391-.202073-3.32521 1.031631-4.715942.754089-.850311.844574-1.962433.22879-2.813049-.980194-1.354035-1.844024-2.765519-2.58641-4.224106 4.357406 4.116745 10.689331 5.369156 16.285202 3.220856 5.596191-2.147828 9.464966-7.315903 9.949981-13.291291l.508133-6.257202z" fill="#0e96b8"/><path d="m244.579529 228.327667c-1.240891-1.671448-2.240921-2.884598-2.150742-4.64946-5.786178-1.240203-10.777115-1.038116-14.774612 4.143662 1.05809 1.631134 1.610748 2.717987 1.916519 4.415039l1.249603.510483c2.831467 1.157364 6.052292.835281 8.598755-.859635 1.73999-1.158142 3.460159-2.345092 5.160477-3.560089z" fill="#f96"/><path d="m242.937241 225.908447c-.351807-.691375-.550812-1.40007-.508454-2.23024-5.786178-1.240203-10.777115-1.038116-14.774612 4.143662.719833 1.10968 1.205444 1.967361 1.538879 2.93663 1.538269-2.459381 3.949677-4.280166 6.785645-5.067932 2.3134-.642532 4.739563-.550644 6.958542.21788z" fill="#f2854e"/><path d="m214.377701 195.136169-2.51741 7.536774c-1.068146 3.198166-3.548127 5.726715-6.724625 6.856262-3.176483 1.129715-6.69603.734558-9.542832-1.071197-1.071624-.67952-2.386474-.859207-3.600891-.49202-1.214874.367508-2.209823 1.245636-2.725326 2.405441-1.299378 2.922181-1.220154 6.273118.215271 9.130951 1.435425 2.858033 4.075653 4.921814 7.195465 5.623993 7.324173 1.648773 24.182465-1.694 24.459686-18.19339.082993-4.93367-2.364212-9.555893-6.759338-11.796814z" fill="#20a6c7"/><path d="m226.705566 180.421631.986206 2.817413c.889695 2.542267 2.333542 4.834412 4.23021 6.7155l-1.415589.214264c-2.348861.355606-4.720306.419968-7.059249.191437l.053207-1.019058c.049606-.944565-.101624-1.879853-.443802-2.744629-.853897-2.159531-2.264694-4.035492-4.092178-5.444001z" fill="#fc9"/><path d="m222.1828 188.578094c4.091873 0 7.429398-4.369339 7.429398-9.726562 0-5.357239-3.337525-9.726593-7.429398-9.726593-4.092514 0-7.429992 4.369354-7.429992 9.726593 0 5.357223 3.337478 9.726562 7.429992 9.726562z" fill="#fc9"/><path d="m254.926895 206.766342c8.550003 0 14.478745 6.996536 13.175003 15.548004l-1.702728 11.174301c-1.303436 8.551621-9.365448 15.54802-17.915466 15.54802-8.549714 0-14.47876-6.996399-13.175019-15.54802l1.703018-11.174301c1.303147-8.551468 9.365159-15.548004 17.915192-15.548004z" fill="#333"/><path d="m215.880341 173.697723.055908-1.594787c.170486-4.870651 4.08197-8.778076 8.951721-8.942719 4.870041-.164947 9.03653 3.469254 9.535919 8.317063l.6642 1.60289c1.608017 3.878814.946548 8.328491-1.719849 11.571563l-.234527 1.837326c-.179199 1.406998-1.263748 2.527817-2.663697 2.753815-1.400222.225845-2.781845-.497269-3.394638-1.776413-1.082122-2.259552-2.777618-4.169372-4.893173-5.512008v-2.150376c0-.91333-.426971-1.774292-1.154312-2.326904-.282028-.214111-.596817-.372605-.927582-.471695-.65065-.195358-1.047546-.840408-.927871-1.509354.126266-.707657-.140747-1.450622-.734879-1.911194-.764893-.59378-2.533493-.570175-2.55722.112793z" fill="#333"/><path d="m222.835281 176.242828c.989197.209168 1.498536 1.761383 1.138031 3.466828-.360519 1.705734-1.454361 2.919067-2.443893 2.7099-.988922-.20932-1.49855-1.761521-1.137756-3.467285.360504-1.70546 1.454376-2.918763 2.443618-2.709443z" fill="#fc9"/><path d="m234.876144 180.421631c4.440064 0 8.061097-3.622009 8.061097-8.062897 0-4.440781-3.621033-8.062668-8.061097-8.062668-4.439773 0-8.061142 3.621887-8.061142 8.062668 0 4.440888 3.621369 8.062897 8.061142 8.062897z" fill="#333"/></g><path d="m38.249062 235.014557-.858124 4.315201c-.133503.668243-.79559 1.13948-1.540386 1.095596-.74445-.04422-1.334675-.589462-1.371376-1.267899l-4.351374-1.480529c-.888794-.302216-1.554796-.985459-1.778509-1.82454-.552635-2.073822-.655756-4.22557-.302477-6.335205.239353-1.429367.765236-2.806442 1.551199-4.062591.634432-1.013153 1.868685-1.58696 3.142364-1.460816 1.273663.126007 2.34346.92807 2.72353 2.04152l1.852745 4.833236c.360504.940232.941429 1.797913 1.702721 2.513367.296787.279053.380375.692566.211986 1.04985-.16838.356675-.555648.586426-.982299.58281z" fill="#f66"/><path d="m128.568619 158.655396h110.404419v-132.656495h-110.404419z" fill="url(#c)"/><path d="m233.16304 82.76619-6.189453-11.533204h-.001953c.011413-.185668.019531-.371994.019531-.560546 0-4.974839-4.032974-9.007813-9.007812-9.007813h-64.146485c-4.974838 0-9.007812 4.032974-9.007812 9.007813 0 4.974853 4.032974 9.007812 9.007812 9.007812h64.146485c.887832 0 1.744415-.129806 2.554687-.369141z" fill="#20a6c7"/><path d="m142.081253 111.009186 6.1875-11.433594c-.009994-.172394-.015625-.344635-.015625-.519531 0-4.897583 3.969605-8.869141 8.867188-8.869141h38.75c4.897583 0 8.86914 3.971558 8.86914 8.869141s-3.971557 8.867187-8.86914 8.867187h-38.75c-.870148 0-1.709366-.127746-2.503907-.361328z" fill="#f66"/><path d="m173.929337 55.953644-2.402344-2.804688h-17.830078c-4.897568 0-8.867188-3.969604-8.867188-8.867187 0-4.897568 3.96962-8.869141 8.867188-8.869141h38.75c4.897583 0 8.86914 3.971573 8.86914 8.869141 0 4.897583-3.971557 8.867187-8.86914 8.867187h-16.117188z" fill="#f7ba00"/><path d="m209.721039 158.654526 1.554687-25.365235c2.327301-1.529678 3.865235-4.163101 3.865235-7.15625 0-4.726715-3.831879-8.558593-8.558594-8.558593h-49.771484c-4.726716 0-8.558594 3.831878-8.558594 8.558593s3.831878 8.558594 8.558594 8.558594h46.697265z" fill="#20a6c7"/><path d="m133.287094 171.865417-46.007812-34.710937c-5.594475 3.425491-12.187462 5.404297-19.248047 5.404297-20.244477 0-36.65625-16.253624-36.65625-36.30275 0-20.049118 16.411773-36.300781 36.65625-36.300781 20.244484 0 36.65625 16.251663 36.65625 36.300781 0 7.197037-2.115982 13.904389-5.763672 19.546883z" fill="#f7ba00"/></g><path d="m67.905937 113.014526c3.390816 0 6.140557-2.74974 6.140557-6.140564v-14.737335c0-3.390823-2.749741-6.140564-6.140557-6.140564s-6.14056 2.749741-6.14056 6.140564v14.737335c0 3.390824 2.749744 6.140564 6.14056 6.140564zm8.596779-9.82489v3.684326c0 4.747879-3.8489 8.596787-8.596779 8.596787-4.747883 0-8.596786-3.848908-8.596786-8.596787v-3.684326h-2.456223v3.684326c0 5.688614 4.29839 10.373871 9.824898 10.984238v4.981224h-4.912449v2.456223h12.281117v-2.456223h-4.912446v-4.981224c5.526505-.610367 9.824891-5.295624 9.824891-10.984238v-3.684326z" fill="#fff"/></svg>