<svg height="300" viewBox="0 0 300 300" width="300" xmlns="http://www.w3.org/2000/svg"><path d="m54.800781 269c-13.144363 0-23.800781-10.656433-23.800781-23.800781v-190.398438c0-13.144348 10.656418-23.800781 23.800781-23.800781h190.398438c13.144348 0 23.800781 10.656433 23.800781 23.800781v190.398438c0 13.144348-10.656433 23.800781-23.800781 23.800781zm4.44336-20.523437c21.562324-5.777298 56.277343-15.078125 56.277343-15.078125l3.728516 1.318359c9.887787 3.496384 20.26123 5.269531 30.830078 5.269531 50.975662 0 92.447266-41.469787 92.447266-92.443359 0-50.97258-41.471604-92.441406-92.447266-92.441406-50.975242 0-92.447265 41.468826-92.447265 92.441406 0 16.26622 4.281902 32.259826 12.384765 46.25l2.652344 4.578125s-8.164703 30.471802-13.425781 50.105469z" fill="#fff"/></svg>