<svg height="27" viewBox="0 0 36 27" width="36" xmlns="http://www.w3.org/2000/svg"><path d="m6.91128 15.68016v-2.952361h-3.087c-1.19484 0-2.16756-1.034639-2.16756-2.306159v-6.657119c0-1.27188.97236-2.306879 2.16756-2.306879h13.804199c1.194841 0 2.166842 1.034999 2.166842 2.306879v6.657119c0 1.27152-.972001 2.306159-2.166842 2.306159v1.618561c2.086922 0 3.78504-1.76076 3.78504-3.92472v-6.657119c0-2.163962-1.69776-3.925082-3.78504-3.925082h-13.804199c-2.08764 0-3.78576 1.76112-3.78576 3.925082v6.657119c0 2.16396 1.69812 3.92472 3.78576 3.92472h1.4688v2.86848c0 .440281.28404.839519.70668.995041.12024.044281.24372.06624.36504.06624.29556 0 .57924-.127439.7794-.3636l3.012841-3.5658h3.00708v-1.618561h-3.758041z" fill="#00a1fe"/><path d="m32.17572 8.56332h-9.3456v1.618561h9.3456c1.19484 0 2.167561 1.035 2.167561 2.30688v6.656039c0 1.271879-.972363 2.306879-2.167561 2.306879h-3.086639v2.9538l-2.495161-2.953079h-8.222761c-1.194479 0-2.166838-1.035-2.166838-2.306881v-6.656758c0-1.27188.972359-2.30688 2.166838-2.30688v-1.618561c-2.086918 0-3.7854 1.76112-3.7854 3.92508v6.656761c0 2.165039 1.698121 3.925438 3.7854 3.925438h7.471443l3.013918 3.567602c.1998.23472.48312.361439.77796.361439.12132 0 .2448-.021239.365039-.06552.423363-.155519.708123-.555479.708123-.996479v-2.867401h1.468078c2.087639 0 3.785759-1.760761 3.785759-3.92544v-6.656039c0-2.164321-1.69812-3.925441-3.785759-3.925441z" fill="#60d838"/><path d="m9.551519 2.51676-2.862719 7.54236h1.6794l.59184-1.679399h2.82024l.57024 1.679399h1.721521l-2.820241-7.54236zm-.158039 4.627081.98244-2.767679h.02088l.95076 2.767679z" fill="#41b0f6"/><path d="m21.6432 17.520481c0 .82692.52848 1.36332 1.39032 1.36332 1.03536-.021962 2.059561-.679322 2.392919-.97596.333361-.297362 1.231201-1.329479 1.627562-2.14668.501478.236878.73908.633599.73908 1.0728 0 .950039-.915121 1.501198-2.375642 1.668599l.70848.981001c2.287442-.299521 3.06576-1.260001 3.06576-2.66688 0-1.18836-.747719-1.909801-1.7064-2.22588.017643-.08712.049681-.178201.067682-.266401l-1.299961-.231481c-.00864.131401-.034919.155522-.060478.28728-.466923-.026639-.985683.043561-1.152721.078842 0-.237601.00864-.871561.017637-1.0998 1.082163-.043921 2.146322-.131402 3.131643-.281162l-.114481-1.283759c-1.011598.20232-1.988281.30816-2.946958.361079.025919-.255599.061918-.978119.061918-.978119l-1.372681-.10476c-.017997.352081-.025919.765721-.043558 1.126081-.607681.008639-1.328041.008639-1.707121 0l.06156 1.240559h.14904c.36108 0 .950762-.018359 1.479239-.035639 0 .34272.008281 1.081799.017282 1.416239-1.241281.51804-2.130121 1.4778-2.130121 2.700721zm4.13496-1.988641c-.185039.369001-.40464.704521-.650881.98496-.035999-.29052-.053278-.58932-.07056-.905759.096481-.017281.48348-.079201.721441-.079201zm-1.935722.51048c.044281.49284.097202.96768.176042 1.398602-.228241.114479-.447839.185039-.651241.194038-.440279.017639-.440279-.263519-.440279-.387359.00036-.466921.36108-.897122.915478-1.205281z" fill="#89f94f"/></svg>