<svg height="36" viewBox="0 0 36 36" width="36" xmlns="http://www.w3.org/2000/svg"><path d="m5.028751 5.000002.558874 1.896219h.875495s.679998 3.972254.949873 5.563334c.567373 3.336548 3.465861 18.900446 3.465861 18.900446h14.69644l4.290358-24.46378h.762871l.537622-1.896219zm3.374489 1.896219h3.234237l.125374 1.311371.184873 1.589264h-3.106736zm4.88748 0h3.943983l.080751 2.900635h-3.71236l-.25925-2.281275zm5.703476 0h3.67836l-.197622 2.900635h-3.40849zm5.425102 0h3.67836l-.57587 2.900635h-3.393612zm-15.293562 4.228352h2.928237l.31875 2.764412h-2.800738zm4.596357 0h3.599736l-.021252 2.764412h-3.272485zm5.337977 0h3.321363l-.293251 2.764412h-3.040861zm4.974606 0h3.306486l-.463248 2.764412h-3.121612zm-14.277817 4.103025h2.722112l.2465 2.515581h-2.596739zm4.390232 0h3.159861v2.515581h-2.921863zm4.906605 0h2.943113l-.17425 2.515581h-2.756115zm4.609106 0h3.028112l-.344248 2.515581h-2.955862zm-13.247195 3.843298h2.428864l.318748 2.689943h-2.297115l-.0595-.272445zm4.082107 0h2.909114l-.012751 2.689943h-2.675362l-.053126-.566686zm4.649482 0h2.58399l-.187 2.689943h-2.39699zm4.150108 0h2.768862l-.478123 2.689943h-2.569113zm-4.150108 4.104845h2.297115l-.271999 2.666331h-2.018742zm3.77186 0h2.484116l-.459 2.666331h-2.30349zm-11.793702.14712h2.13774l.218874 2.679046h-1.903991zm3.790983 0h2.471366v2.679046h-2.237616zm-3.134362 3.859642h1.827493l.312375 2.911533h-1.600118l-.418624-2.168665zm3.493486 0h2.205742l-.014875.345096v2.566437h-1.891242zm3.958861 0h1.84449l-.206124 2.911533h-1.665992zm3.31286 0h2.205742l-.471748 2.911533h-2.027245z" fill="#fff"/></svg>