<svg height="893" viewBox="0 0 1463 893" width="1463" xmlns="http://www.w3.org/2000/svg" xmlns:xlink="http://www.w3.org/1999/xlink"><clipPath id="a"><path clip-rule="evenodd" d="m1131 461c0-222.018494-179.981506-402-402-402-222.018463 0-402 179.981506-402 402 0 222.018463 179.981537 402 402 402 222.018494 0 402-179.981537 402-402z"/></clipPath><clipPath id="b"><path d="m652.735537 207.606823c0-33.57447 27.258215-60.832684 60.832684-60.832684s60.832683 27.258214 60.832683 60.832684c0 33.574469-27.258214 60.832683-60.832683 60.832683s-60.832684-27.258214-60.832684-60.832683z"/></clipPath><g clip-path="url(#a)"><g fill-rule="evenodd"><path d="m1130 461c0-221.466187-179.533813-401-401-401s-401 179.533813-401 401 179.533813 401 401 401 401-179.533813 401-401z" fill="#ace5dd"/><path d="m557.14801 333.430664c35.539978 0 64.35199 28.81073 64.35199 64.350708s-28.812012 64.35199-64.35199 64.35199c-35.540039 0-64.350677-28.812012-64.350677-64.35199s28.810638-64.350708 64.350677-64.350708" fill="#ed3820"/><path d="m630.85199 502.626709c-11.082642 44.469299 126.889343 44.157349 115.885376 0l-20.425354-81.946655c-6.78003-27.197388-68.169373-27.552002-75.034668 0z" fill="#47bc53"/><path d="m771.684021 655.986694 15.951965 172.805298h-76.707946l-1.498719-124.582641 41.138672-54.573365z" fill="#f28f62"/><path d="m676.818665 565.463989 95.932006 72.72937-21.971984 51.402649c-12.085389 28.270691-41.419983 36.656006-65.19336 18.637329l-52.711975-39.963989z" fill="#f28f62"/><path d="m657.398682 516.018677c-1.35199-23.638672 64.143982-23.638672 62.793335 0l-11.066712 193.529358c-1.195984 20.895996-39.466675 20.897339-40.65863 0z" fill="#463d3b"/><g fill="#f5a683"><path d="m738.726685 605.353394c19.902648 0 36.035949 16.1333 36.035949 36.035949 0 19.901306-16.133301 36.034668-36.035949 36.034668-19.902649 0-36.033387-16.133362-36.033387-36.034668 0-19.902649 16.130738-36.035949 36.033387-36.035949"/><path d="m773.614624 632.362671-33.953308 8.782715-20.659973-79.852051c-3.505371-13.549316 3.135986-27.41333 15.149292-33.491943 2.766662-1.398682 5.725342-1.464051 8.550659-.186707 2.82666 1.277344 4.730713 3.541321 5.506714 6.542664z"/><path d="m631.670654 554.793335v-.001343c4.985352-7.531982 15.223999-9.618652 22.754639-4.633301l15.126709 10.006653c7.534668 4.982666 9.618652 15.222656 4.635986 22.753357v.001343c-4.985351 7.533325-15.223999 9.618652-22.754638 4.635986l-15.126709-10.006714c-7.534668-4.983947-9.618653-15.222656-4.635987-22.755981"/><path d="m643.773315 573.624023 27.802674 17.109314c19.269348 11.854676.678711 40.897339-19.03064 28.768006l-27.802673-17.109314c-19.515991-12.007996-.1427-40.565369 19.030639-28.768006"/><path d="m623.219971 610.925354c5.233337-7.910706 15.98938-10.101318 23.898681-4.867981l15.886658 10.51062c7.910706 5.232056 10.102661 15.988037 4.869385 23.897339v.002686c-5.23468 7.910644-15.98938 10.101318-23.900025 4.868042l-15.886657-10.510743c-7.910706-5.231933-10.101319-15.987976-4.868042-23.899963"/><path d="m625.744019 655.449341c.409301-8.246643 7.490661-14.658692 15.735961-14.247986l16.558655.822693c8.246704.409302 14.658692 7.4906 14.248047 15.735962-.409363 8.246704-7.490723 14.658691-15.736023 14.248047l-16.559997-.82135c-8.245362-.410706-14.657349-7.490662-14.246643-15.737366"/></g><path d="m703.976013 732.141357h94.469361v24.709351h-94.469361z" fill="#e7dad5"/><path d="m695.223999 747.328003h112.486633v145.30133h-112.486633z" fill="#463d3b"/><path d="m695.223999 747.328003h45.044006v145.30133h-45.044006z" fill="#2f2825"/><path d="m820.305298 475.877319c20.395996 41.034668 122.420044-22.374633 95.093384-58.762634l-50.561402-67.325378c-30.919983-41.174622-104.867981 4.709411-81.047912 52.628051z" fill="#4ba5ce"/><path d="m1019.610657 536.132019 86.177307 119.088013v30.709289l-50.45459 29.858704-64.740051-106.451965 7.609314-67.916016z" fill="#f28f62"/><path d="m891.864014 506.544006 119.599975 13.730652 7.271973 55.426697c3.998718 30.485352-16.977356 52.642639-46.612 49.241333l-65.718689-7.545349z" fill="#f28f62"/><path d="m849.970642 473.88269c-13.203979-19.654663 43.164002-53.013366 54.039978-31.981323l89.038696 172.185303c9.614624 18.592041-23.318664 38.082703-34.990661 20.708008z" fill="#463d3b"/><g fill="#f5a683"><path d="m965.459961 509.340027c17.126709-10.135986 39.22937-4.468018 49.364014 12.659973 10.137329 17.126709 4.469299 39.228027-12.660035 49.364014-17.126586 10.137329-39.226623 4.46936-49.363952-12.657349-10.136048-17.127991-4.468018-39.229309 12.659973-49.366638"/><path d="m1009.23999 514.817383-24.749389 24.85199-58.446656-58.19867c-9.917297-9.875976-11.263977-25.189331-4.018615-36.538696 1.667968-2.614624 4.178649-4.176026 7.261291-4.515991 3.08136-.339966 5.874695.638672 8.073364 2.82666z"/><path d="m847.577332 520.354675v-.001281c.450622-9.02002 8.201355-16.029358 17.222656-15.577393l18.114685.90802c9.018677.451965 16.029297 8.201355 15.575989 17.221313v.001343c-.452027 9.021363-8.200013 16.030701-17.220032 15.577332l-18.115967-.906616c-9.020019-.45337-16.028015-8.202698-15.577331-17.222718"/><path d="m867.582642 530.395996 32.640014.564026c22.619995.390686 21.414673 34.847961-1.726684 34.449341l-32.638672-.562683c-22.910645-.395996-20.782654-34.838623 1.725342-34.450684"/><path d="m868.893311 572.965332c.47467-9.474609 8.614685-16.835999 18.088012-16.361328l19.023987.953369c9.473328.474609 16.837341 8.613281 16.361328 18.088013-.473327 9.473266-8.614685 16.835937-18.08667 16.361328l-19.025329-.953369c-9.473328-.474671-16.835999-8.614624-16.361328-18.088013"/><path d="m893.741333 609.996033c-3.84668-7.305359-1.02002-16.429383 6.286621-20.276001l14.66803-7.726685c7.305359-3.84668 16.430664-1.018677 20.277344 6.286682 3.846618 7.305298 1.017334 16.430664-6.286682 20.277344l-14.667969 7.726685c-7.305359 3.847961-16.430664 1.017334-20.277344-6.288025"/></g><path d="m1000.125305 636.152039 69.458679-45.023987 36.20398 45.661316v178.931945 76.90802z" fill="#f1454c"/><path d="m1025.642578 619.612061 80.145386 159.647949v36.461303 76.90802l-105.662659-256.477294z" fill="#e83031"/><path d="m393.582642 512.381348-74.38797 86.90271v243.001281l103.402649-256.700012-7.608002-67.915954z" fill="#f28f62"/><path d="m319.194672 735.99469 116.818664-192.791992 11.841309 13.385315-29.406647 41.778686-99.253326 243.979981z" fill="#dd754a"/><path d="m521.328003 482.793335-119.601349 13.730713-7.269318 55.426636c-3.998687 30.484008 16.975983 52.6427 46.610657 49.241333l65.718659-7.54535z" fill="#f28f62"/><path d="m563.222656 450.132019c13.202698-19.656006-43.164001-53.013367-54.040008-31.981384l-89.041321 172.185425c-9.613312 18.59198 23.320007 38.083984 34.992004 20.707946z" fill="#463d3b"/><g fill="#f5a683"><path d="m447.733337 485.589355c-17.12799-10.135986-39.230682-4.468017-49.366668 12.660035-10.134674 17.126648-4.466675 39.227966 12.660003 49.363952 17.127991 10.136048 39.227997 4.469361 49.365326-12.657287 10.135987-17.128052 4.468018-39.22937-12.658661-49.3667"/><path d="m403.951996 491.06665 24.747986 24.852051 58.446685-58.198669c9.918641-9.876038 11.26532-25.189331 4.021332-36.539978-1.667999-2.613404-4.181335-4.176026-7.262665-4.514649-3.082672-.340027-5.874694.638672-8.072021 2.82666z"/></g></g><path d="m712.554321-21c62.672364 0 113.554383 50.730591 113.554383 113.216431v98.008178c0 62.48584-50.882019 113.216431-113.554383 113.216431-62.672302 0-113.554321-50.730591-113.554321-113.216431v-98.008178c0-62.48584 50.882019-113.216431 113.554321-113.216431z" fill="#f2c29b"/><path d="m652.735535 207.606812c0-33.574463 27.258239-60.832703 60.832702-60.832703s60.832642 27.25824 60.832642 60.832703c0 33.574462-27.258179 60.832702-60.832642 60.832702s-60.832702-27.25824-60.832702-60.832702z" fill="#660023"/><g clip-path="url(#b)"><path d="m687.714355 250.189697c0-33.574463 27.258179-60.832702 60.832642-60.832702s60.832703 27.258239 60.832703 60.832702-27.25824 60.832703-60.832703 60.832703-60.832642-27.25824-60.832642-60.832703z" fill="#d61a47"/><path d="m652.735535 130.045166h121.665344v49.679993h-121.665344z" fill="#fbfbef"/><path d="m652.735535 114.330017h121.665344v49.680054h-121.665344z" fill="#d0d0c5"/></g><g fill="#f5a683" fill-rule="evenodd"><path d="m565.614685 496.604004v-.001343c-.452026-9.019958-8.201355-16.029297-17.221374-15.57727l-18.115967.906616c-9.02002.453369-16.029358 8.202698-15.577332 17.222656.451966 9.021362 8.202637 16.032044 17.221314 15.578674l18.116028-.906677c9.019958-.453308 16.029296-8.202637 15.577331-17.222656"/><path d="m545.609314 506.645386-32.639954.563965c-22.621368.389343-21.414703 34.848022 1.725281 34.44934l32.640015-.562683c22.911987-.395996 20.782654-34.838684-1.725342-34.450622"/><path d="m544.298645 549.214722c-.47467-9.474732-8.614624-16.83606-18.087952-16.361328l-19.024017.951965c-9.473328.476013-16.835999 8.614685-16.361328 18.089294.47467 9.473389 8.613312 16.83606 18.087982 16.361328l19.023987-.953308c9.47467-.47467 16.835998-8.614685 16.361328-18.087951"/><path d="m519.452026 586.245361c3.846619-7.305359 1.017334-16.429321-6.286682-20.276001l-14.669342-7.726684c-7.305328-3.84668-16.430664-1.018677-20.277344 6.286682-3.846649 7.305359-1.018676 16.429321 6.286683 20.277344l14.669311 7.72528c7.305359 3.84668 16.429352 1.018677 20.277374-6.286621"/></g></g><g fill-rule="evenodd"><path d="m468 219.5c0-47.772644-38.727356-86.5-86.5-86.5s-86.5 38.727356-86.5 86.5 38.727356 86.5 86.5 86.5 86.5-38.727356 86.5-86.5z" fill="#ace5dd" opacity=".694023"/><path d="m1334 628.5c0-45.563477-36.936523-82.5-82.5-82.5s-82.5 36.936523-82.5 82.5 36.936523 82.5 82.5 82.5 82.5-36.936523 82.5-82.5z" fill="#404040"/><g fill="#ace5dd"><path d="m258 591.5c0-47.772644-38.727371-86.5-86.5-86.5s-86.5 38.727356-86.5 86.5 38.727371 86.5 86.5 86.5 86.5-38.727356 86.5-86.5z"/><path d="m305 420.5c0-12.978699-10.521301-23.5-23.5-23.5s-23.5 10.521301-23.5 23.5 10.521301 23.5 23.5 23.5 23.5-10.521301 23.5-23.5z"/><path d="m1417 586.5c0-12.978699-10.521362-23.5-23.5-23.5s-23.5 10.521301-23.5 23.5 10.521362 23.5 23.5 23.5 23.5-10.521301 23.5-23.5z" opacity=".515736"/><path d="m203 303.5c0-22.367554-18.132477-40.5-40.5-40.5-22.367538 0-40.5 18.132446-40.5 40.5s18.132462 40.5 40.5 40.5c22.367523 0 40.5-18.132446 40.5-40.5z"/><path d="m1394 451c0-29.823364-24.176636-54-54-54s-54 24.176636-54 54 24.176636 54 54 54 54-24.176636 54-54z"/><path d="m1327 232.5c0-73.177734-59.322266-132.5-132.5-132.5s-132.5 59.322266-132.5 132.5 59.322266 132.5 132.5 132.5 132.5-59.322266 132.5-132.5z" opacity=".800892"/></g></g><path d="m1264.961548 313 .192871-111.070312-51.962647-51.962708-81.191772.236206v162.796814z" fill="#e0e0e0"/><path d="m1264.961548 313 .192871-111.070312-51.962647-51.962708-81.191772.236206v162.796814z" fill="#e7e7e7"/><path d="m1213.282593 201.189331 51.63562 44.259155v-44.259155z" fill-opacity=".19608"/><path d="m1264.918213 201.189331h-51.63562v-51.635681z" fill="#fff"/><text fill="#404040" font-family="Helvetica" font-size="86.824965" x="1167" y="266">A</text><g fill-rule="evenodd"><path d="m1281 307.038757h-20.961304v20.961243h-10.077392v-20.961243h-20.961304v-10.077514h20.961304v-20.961243h10.077392v20.961243h20.961304z" fill="#8f8f8f"/><path d="m1252 545c-45.8396 0-83 37.160339-83 83s37.1604 83 83 83 83-37.160339 83-83-37.1604-83-83-83zm51.646484 50.209229 8.917847-5.147278c1.229614-.69928 2.793457-.274781 3.500732.950439.707398 1.225159.293213 2.791565-.927246 3.50708l-8.917602 5.147278c-1.229859.69928-2.793457.27478-3.500855-.950439-.707275-1.22522-.29309-2.791626.927124-3.50708zm-23.310791-21.430787 5.147461-8.91571c.438233-.837647 1.300171-1.367676 2.245484-1.380493.945434-.012757 1.821533.493713 2.282226 1.319214.460694.8255.431763 1.837097-.075439 2.634887l-5.147217 8.915833c-.438232.837646-1.300293 1.367554-2.245483 1.380371-.945557.012817-1.821534-.493652-2.282227-1.319092-.460693-.825561-.431763-1.837158.075195-2.63501zm-30.909423-17.197021c0-1.421387 1.152343-2.57367 2.57373-2.57367s2.57373 1.152283 2.57373 2.57367v10.294556c0 1.421386-1.152343 2.573608-2.57373 2.573608s-2.57373-1.152222-2.57373-2.573608zm-34.422364 7.339355c1.230957-.710632 2.80481-.28894 3.515625.941956l5.147217 8.91571c.467163.796753.471314 1.782715.011597 2.583558-.460083.800781-1.313843 1.293762-2.237549 1.291748-.923462-.002076-1.775147-.498719-2.23169-1.301575l-5.147094-8.915833c-.710816-1.230896-.289063-2.80487.941894-3.515564zm-36.996093 64.079224c0-1.421387 1.152099-2.573608 2.573608-2.573608h10.294433c1.421631 0 2.573731 1.152221 2.573731 2.573608s-1.1521 2.573608-2.573731 2.573608h-10.294433c-1.421509 0-2.573608-1.152221-2.573608-2.573608zm22.343627 32.790771-8.915161 5.147339c-1.229736.699219-2.793457.274659-3.50061-.9505-.70752-1.225159-.293335-2.791626.927002-3.50708l8.915039-5.147278c.796753-.467102 1.782837-.471436 2.583496-.011475.801025.459961 1.293823 1.313843 1.291748 2.237366-.001953.923523-.498779 1.775208-1.301514 2.231628zm.942627-62.065979c-.34143.591248-.903442 1.022767-1.562988 1.199402-.659302.176697-1.36206.084046-1.953369-.257446l-8.915039-5.147278c-.802734-.456482-1.299561-1.308166-1.301636-2.231628-.001953-.923584.491089-1.777405 1.291748-2.237366.801026-.460022 1.786865-.455627 2.583496.011475l8.915161 5.147278c.591187.341186 1.022828.903259 1.199585 1.562561.176636.659301.084229 1.361877-.256958 1.953002zm22.372681 83.496705-5.147217 8.915771c-.715454 1.220459-2.281982 1.634583-3.507202.927185-1.22522-.707336-1.649536-2.270996-.950317-3.500854l5.147094-8.915711c.456543-.802917 1.308228-1.29956 2.23169-1.301636.923706-.002014 1.777466.490967 2.237549 1.29181.459717.800781.455566 1.786743-.011597 2.583435zm30.906982 17.197082c0 1.421387-1.152343 2.57367-2.57373 2.57367s-2.57373-1.152283-2.57373-2.57367v-10.294556c0-1.421386 1.152343-2.573669 2.57373-2.573669s2.57373 1.152283 2.57373 2.573669zm34.422364-7.339355c-1.230225.708923-2.802368.287353-3.51294-.941956l-5.147461-8.915771c-.506958-.797791-.535888-1.809388-.075195-2.634888.460693-.825501 1.33667-1.33197 2.282227-1.319214.94519.012817 1.807251.542786 2.245483 1.380493l5.147217 8.915711c.711181 1.230285.290771 2.803955-.939331 3.515625zm9.863525-106.390564-41.622192 41.621582 3.056152 1.764221c1.525635.894409 2.043335 2.852417 1.159058 4.383911-.884278 1.531494-2.838867 2.062134-4.375977 1.18811l-4.549194-2.626464-3.712403 3.714416c-1.260864 1.229187-3.275634 1.216248-4.520629-.028992-1.244996-1.245117-1.257447-3.259887-.028199-4.520507l2.496338-2.495179-25.345825-14.632446c-1.00354-.570618-1.62439-1.635193-1.627075-2.789612-.002442-1.154419.613647-2.221679 1.614868-2.796631 1.000977-.575012 2.233398-.56958 3.229248.014283l26.838745 15.494018 42.838257-42.84021c.809204-.829956 2.002075-1.160278 3.123047-.86499 1.120727.29541 1.99585 1.170776 2.291138 2.291626.295044 1.12085-.035401 2.313782-.865357 3.122864zm17.217652 79.307434c-.710572 1.22937-2.282593 1.650879-3.51294.942016l-8.917847-5.147339c-1.220214-.715454-1.634399-2.28186-.927124-3.50708.707398-1.225219 2.270996-1.649658 3.500855-.950439l8.917602 5.147278c1.230103.711609 1.650513 2.285339.939454 3.515564zm7.341308-34.422486h-10.294433c-1.421631 0-2.573731-1.152221-2.573731-2.573608s1.1521-2.573608 2.573731-2.573608h10.294433c1.421265 0 2.573609 1.152221 2.573609 2.573608s-1.152344 2.573608-2.573609 2.573608zm-71.418579-4.503845c-1.065918 0-1.930176.864197-1.930176 1.930237s.864258 1.930237 1.930176 1.930237 1.930176-.864197 1.930176-1.930237-.864258-1.930237-1.930176-1.930237z" fill="#ace5dd"/><path d="m153.238525 614.626343c-1.107055.883117-2.481292 1.366699-3.899078 1.372009-1.210709.027649-2.40419-.289734-3.440369-.914673-2.374511-1.524475-5.423645-1.524475-7.798156 0-1.036179.624939-2.22966.942322-3.440369.914673-1.417786-.00531-2.792023-.488892-3.899078-1.372009-8.337159-5.852051-13.761475-15.972962-13.761475-27.211548.083069-2.084839.390656-4.154785.917435-6.174072 1.807335-5.903748 6.513763-10.290039 12.385315-10.290039 2.857788 0 5.963302 1.371948 5.963302 1.371948 1.814224.728576 2.938095 1.37207 5.733948 1.37207s3.919724-.643494 5.733948-1.37207c0 0 3.105514-1.371948 5.963302-1.371948 5.871552 0 10.577973 4.386291 12.385315 10.290039.526779 2.019287.834366 4.089233.917435 6.174072 0 11.238586-5.424316 21.359497-13.761475 27.211548zm11.467896-57.167114c-15.100906-2.907715-20.309647 8.893371-20.802734 10.189941-.112397.294739-.114686 1.084351.20639 1.472168.382431.460937.960388.715088 1.559647.685974 6.754577 0 14.713302-2.883484 19.036697-12.348083zm-23.623856 14.177429c.135315.336364.231659.685974.917435.685974.183334.002807.360001-.068543.489655-.197754.129653-.129273.201248-.30542.198425-.48822 0-5.782532-1.940369-9.528382-3.211014-10.747376 0 0-2.752289 0-2.752289 1.371948 1.424301 1.803956 3.892182 5.021363 4.357788 9.375428z" fill="#47bc53"/><path d="m212.238525 614.626343c-1.107055.883117-2.481292 1.366699-3.899078 1.372009-1.210709.027649-2.40419-.289734-3.440369-.914673-2.374511-1.524475-5.423645-1.524475-7.798156 0-1.036179.624939-2.22966.942322-3.440369.914673-1.417786-.00531-2.792023-.488892-3.899078-1.372009-8.337159-5.852051-13.761475-15.972962-13.761475-27.211548.083069-2.084839.390656-4.154785.917435-6.174072 1.807327-5.903748 6.513763-10.290039 12.385315-10.290039 2.857788 0 5.963302 1.371948 5.963302 1.371948 1.814224.728576 2.938095 1.37207 5.733948 1.37207s3.919724-.643494 5.733948-1.37207c0 0 3.105514-1.371948 5.963302-1.371948 5.871552 0 10.577973 4.386291 12.385315 10.290039.526779 2.019287.834366 4.089233.917435 6.174072 0 11.238586-5.424316 21.359497-13.761475 27.211548zm11.467896-57.167114c-15.100906-2.907715-20.309647 8.893371-20.802734 10.189941-.112397.294739-.114686 1.084351.20639 1.472168.382431.460937.960388.715088 1.559647.685974 6.754577 0 14.713302-2.883484 19.036697-12.348083zm-23.623856 14.177429c.135315.336364.231659.685974.917435.685974.183334.002807.360001-.068543.489655-.197754.129653-.129273.201248-.30542.198425-.48822 0-5.782532-1.940369-9.528382-3.211014-10.747376 0 0-2.752289 0-2.752289 1.371948 1.424301 1.803956 3.892182 5.021363 4.357788 9.375428z" fill="#ed3820"/><path d="m185.233612 325.233948c-1.021805 1.021362-2.678024 1.021362-3.699829 0l-11.550751-11.550598c-7.623962 5.68396-18.343323 4.515625-24.563782-2.677246-6.220474-7.192933-5.830352-17.968628.893967-24.692872 6.72432-6.724365 17.500122-7.11444 24.693085-.894043 7.192963 6.220459 8.361297 16.939698 2.677246 24.56366l11.550064 11.550598c1.021866 1.021912 1.021866 2.67865 0 3.700501zm-26.095352-40.400269c-7.900192 0-14.304566 6.404297-14.304566 14.304444 0 7.900085 6.404374 14.304443 14.304566 14.304443 7.900177 0 14.30455-6.404358 14.30455-14.304443 0-7.900147-6.404373-14.304444-14.30455-14.304444z" fill="#404040"/></g></svg>